<?xml version='1.0' encoding='utf-8'?>
<svg xmlns="http://www.w3.org/2000/svg" enable-background="new 0 0 2362.861 1684.018" version="1.1" viewBox="0 0 2362.9 1684"> <path d="m2062 119.34c18.05 14.88 25.993 33.089 40.623 50.994 36.105 44.185 28.013 33.673 97.731 56.488 13.884 5.704 29.195 7.606 42.358 15.163 51.205 26.252 71.261 84.878 52.75 121.34-41.215-22.713-46.818-0.154-105.21-26.457-92.524-41.03-100.12-27.23-122.24-10.966-5.164 3.016-2.787 9.294-2.771 14.065 0.787 5.918-1.147 12.048 0.295 17.851 5.623 5.59 12.934 9.147 18.59 14.721 199.66 193.81-72.155 758.67-554.4 762.52-7.082 0.147-14.458-0.934-21.179 1.885-13.802 60.359-5.87 30.141-8.868 55.029-1.328 8.786 5.245 16.048 6 24.589 0.606 5.541 6.655 6.836 10.819 8.901 16.572 7.043 1.197 32.647-0.721 51.603-3.896 24.902-10.65-6.719 7.491 136.7 0.098 6.508 6.032 11.081 5.246 17.851 3.246 13.114 1.065 26.982 5.77 39.801 11.422 32.56 10.744 88.37 92.338 80.093 5.442-0.754 10.065 2.869 15.196 4.016 14.72 2.803 30.244-1.836 44.685 3.033 12.261 3.147 24.523 6.426 37.03 8.491 12.917 0.951 26.277-1.279 38.882 2.459 15.95 7.426 29.834 18.605 45.456 26.654 51.57 30.49 48.235 16.885 51.832 35.604-77.556 27.283-300.54-16.545-282.23-11.458-70.138-19.483-82.748 13.072-134.81-37.571-4.311-7.672-5.59-16.622-7.114-25.179-12.046-65.068-13.218-67.072-6-109.53 11.812-101.71-40.255-186.51-22.261-284.57-3 0.656-5.967 1.393-8.966 2.033 3.278-1.459 6.639-2.705 10.048-3.852-0.016-1.361-0.082-4.065-0.115-5.41-5.754 0.115-11.294 1.82-16.278 4.623-0.361-8.262-10.409-7.704-16.327-6.393 1.885-0.738 3.803-1.475 5.721-2.197 0.311-1.901 0.623-3.786 0.951-5.655-22.654-0.869-45.62 0.115-67.553 6.327-9.442 3.016-20.917-0.066-28.686 7.262-8.344 2.885-17.015 5.114-24.965 9.114 2.901-2.524 4.901-5.639 3.246-9.54-7.344 1.41-15.573 2.426-20.785 8.393 0.574-2.557 1.131-5.114 1.656-7.655-5.213 3.508-10.229 7.295-15.458 10.77-3.049 2.328-7.327 1.836-10.13 4.59-4 3.246-8.508 5.803-13.294 7.688 3.951-3.295 11.13-4.737 9.77-11.262-6.245 1.443-10.868 6.065-16.507 8.688-4.524 0.443-9.163 0.459-13.294 2.639-2.623-3.491-4.967-7.262-4.262-11.819 2.213-0.836 4.426-1.656 6.639-2.541-0.016-1.18-0.033-3.574-0.049-4.77-27.762 4.494-14.307 7.445-24.769 0.328 11.016-2.426 22.425-3.147 33.112-6.95-0.23-1.098-0.705-3.278-0.934-4.377-5.573-0.328-12.72 4.114-16.622-1.525-17.31 4.891 9.263 2.962-72.372 19.474 0.492-2.459 0.967-4.934 1.377-7.376-3.475 1.246-6.77 2.967-9.901 4.901 1.492-2.262 2.967-4.541 4.393-6.836-3.508 0.59-6.95 1.443-10.442 1.967 2.164-1.82 4.426-3.508 6.573-5.344-29.08-1.241-141.41 30.521-487.98 98.616-14.163 1.836-28.391 3.623-42.341 6.754-289.74 42.231-397.92 47.767-397.92 47.767-6.934 0.033-13.77 2.197-20.703 1.475-12.179-2.115-24.49 0.803-36.735 0.852-4.934-0.984-9.917-1.311-14.95-1.016 4.967-2.229 10.229-3.688 15.278-5.672-2.639-0.393-5.311-0.688-7.967-0.951v-0.672c6.95-0.033 13.884-0.016 20.818-0.393 7.213-12.161 12.697-7.46 17.999-9.721 2.869-2.328 6.475-4.672 6.475-8.786 5.623-3.328 12.507-4.344 17.704-8.229 0.229-0.869 0.721-2.606 0.967-3.475-5.524-0.295-11.065-0.41-16.573-0.918 10.114-5.049 20.851-10.311 28.146-19.212-5.206-0.415-98.847 3.891-101.68 4.328 1.016-1.344 1.983-2.705 2.934-4.049-7.262 0.738-14.524 1.443-21.818 1.508 1.77-0.885 3.541-1.771 5.311-2.623-1.016-0.836-2.049-1.656-3.065-2.459 1.902 0.049 3.803 0.033 5.705-0.033 11.452-16.098 37.294-20.703 44.276-20.343-0.033-3.573-3.459-3.475-6.098-4.033 4.033 0.18 8.18 0.607 12.13-0.508 2.623-1.426 2.36-4.557 0.311-6.295 4.41 0.426 8.737-0.623 12.688-2.557-0.82-0.492-2.442-1.475-3.246-1.951 22.01-3.828 73.502-40.407 90.305-39.423 8.335-11.89 14.294-7.948 22.064-7.18-0.623-2.033-1.279-4.033-1.967-6 4.114-3.033 8.409-5.901 13.36-7.377 4.098-0.852 5.803-5.262 9.245-7.049 7.229-0.787 13.458-5.328 20.966-4.229-0.902-0.721-2.705-2.18-3.606-2.901 7.672-2.688 14.606-6.934 20.605-12.376 4.997-4.583 39.985-16.475 51.505-17.114 6.147-0.82 11.491 3.934 17.671 3 3.639-1.131 7.081-4.082 6.295-8.245 4.95 0.377 9.917 0.934 14.655 2.524 0.967-1.803 1.934-3.59 2.901-5.36 6.426-2.77 12.983-6.491 20.179-3.967 0.229-0.984 0.688-2.934 0.902-3.901 19.302 2.138 7.252-1.984 27.359-4.606 1.679-10.024-7.193-17.583 43.522-65.946 13.114-14.458 30.686-23.769 44.653-37.309 5.032-5.934 3.606-14.163 6.754-20.785-2.049-1.902-3.983-3.901-5.688-6.082-8.245 1.344-17.179-3.115-19.507-11.442-1.426 0.016-2.852 0.033-4.262 0.082-0.213-5.131 0.59-10.704 4.41-14.458 7.704-7.508 9.163-18.736 14.868-27.555 37.689-81.241 73.442-56.248 93.666-86.814 47.802-65.687 43.904-38.992 72.241-67.159 7.114-6.475 17.556-3.311 25.9-6.737 6.803-9.098 16.884-14.917 23.851-23.884 15.979-19.377 6.987-11.664 33.506-25.424 12.999-6.311 24.031-16.13 37.571-21.408 12.278-4.852 25.638-7.606 36.211-15.999-2.443-1.41-4.918-2.754-7.393-4.049 3.606-8.796 4.164-4.29 19.999-20.507-1.197-1.246-2.508-2.311-3.918-3.213-4.377 1.213-7.999 4.147-12.097 6.032 1.738-2.508 3.721-4.819 5.737-7.098-3.639-2.819-7.262-5.639-10.835-8.491 3.36-4.746 46.121-52.839 101.75-81.109 45.705-25.471 54.688-63.971 175.2-103.52 38.498-13.451 82.632-18.608 98.354-27.949 6.921-4.112 54.044-21.773 52.217-28.2 19.43-6.159 35.215-18.691 55.188-23.926 7.029-1.84 93.209-10.829 93.385-10.812 18.322 1.764 2.534 13.891 84.945-21.762 192.28-78.895 108.27 20.111 170.18-166.25 54.265-163.37 276.56-134.7 390.43-40.834z"/> </svg>