<?xml version='1.0' encoding='utf-8'?>
<svg xmlns="http://www.w3.org/2000/svg" clip-rule="evenodd" fill-rule="evenodd" stroke-linejoin="round" stroke-miterlimit="2" version="1.1" viewBox="0 0 1024 1024"><g fill="#080908" fill-rule="nonzero"><path d="m388.78 51.143c57.715-19.749 117.88-33.08 178.88-36.442 51.592-3.144 104.1 1.654 153.3 18.018 18.971 5.959 37.264 13.857 55.042 22.696 17.46 9.508 34.843 19.312 50.836 31.174 29.75 20.856 56.619 45.874 78.877 74.617 14.557 19.103 27.669 39.378 38.097 61.044-0.099 0.833-0.285 2.52-0.373 3.363-3.702-0.482-6.692-2.826-9.442-5.148-15.981-13.375-32.171-26.563-49.707-37.845-10.264-7.098-21.141-13.243-31.963-19.421-37.987-21.644-79.392-36.607-121.48-48.043-16.244-4.425-32.686-8.368-49.423-10.438-25.642-4.239-51.701-5.105-77.65-5.061-30.868 0.131-61.669 2.979-92.142 7.733-21.196 2.925-41.964 8.073-62.809 12.739-24.076 6.123-47.812 13.517-71.33 21.459-38.984 13.407-77.376 28.6-114.65 46.235-21.863 9.683-43.299 20.308-64.473 31.426 0.526 5.093 2.454 9.891 3.571 14.864 2.092 8.774 6.298 17.296 5.992 26.475-3.056 2.53-6.857 3.976-10.187 6.101 1.5 8.259 3.779 16.354 5.619 24.536 3.976 11.94 6.474 24.328 10.614 36.224 7.23 24.405 14.525 48.799 21.688 73.225 6.08 22.926 13.375 45.502 20.538 68.099 3.626 1.796 6.967 4.086 10.187 6.528 4.228-3.691 9.618-6.254 15.379-5.137 7.799 0.099 11.973 7.536 16.201 12.958 5.016 6.386 5.674 14.667 7.426 22.302 11.863 0.591 21.349 8.325 30.703 14.776 1.578 0.844 2.859 2.969 4.864 2.542 3.067-2.312 4.206-7.306 8.555-7.569 3.439 0.35 6.791 1.27 10.143 2.092 2.256-1.895 4.929-3.177 7.262-4.94 1.731-2.322 0.778-6.058 3.22-7.887 2.629-0.789 5.389 0.022 7.975 0.646 2.683-6.758 9.201-11.019 12.279-17.569 3.121-1.293 6.199-2.728 9.201-4.316-7.295-3.538-14.777-6.627-22.258-9.738-4.228-1.993-9.168-3.658-11.491-8.062-7.021-12.465-11.457-26.157-16.375-39.499 5.63-15.652 8.379-32.105 12.125-48.261 1.687-10.143 3.79-20.221 4.897-30.451 2.223-22.598 3.154-45.316 2.891-68.012 0.154-12.914-0.186-26.135 3.922-38.546 1.752-5.126 3.176-10.942 7.755-14.349 4.831-4.491 10.483-7.908 16.058-11.37 7.525-5.038 15.467-9.387 23.375-13.768 10.023-4.875 19.224-11.228 28.239-17.734 14.623-9.892 28.545-20.933 44.121-29.356 2.727-1.654 5.63-3.308 8.927-3.264 17.285-0.132 34.406 2.541 51.428 5.279 22.082 4.075 43.989 9.026 65.743 14.591 5.313 1.5 11.075 2.179 15.828 5.148 8.971 7.755 17.373 16.189 26.957 23.232 4.776 4.042 9.453 8.216 14.404 12.06 3.451 6.463 5.291 13.725 8.194 20.473 7.021 16.77 14.294 33.452 20.286 50.638 7.492 23.2 12.202 47.189 15.642 71.298 2.749 19.322 5.794 38.644 6.506 58.186 0.493 5.049-2.256 9.562-3.932 14.141-3.998 8.346-10.045 15.455-15.226 23.068-6.769 9.135-14.316 17.668-21.48 26.497-1.796 2.421-4.305 4.206-7.054 5.378-11.512 4.645-23.287 8.555-35.03 12.52 3.637 3.549 7.12 7.262 10.428 11.118 2.947 0.285 6.112-0.109 8.883 1.117 3.703 3.79 6.737 8.577 11.611 11.02 3.538 0.131 6.923-2.038 10.505-0.986 1.128 2.519 3.111 4.447 5.301 6.079 3.407-1.38 6.967-2.333 10.56-3.089 3.111 1.38 5.959 3.243 8.697 5.258 2.497 1.052 4.217-1.895 6.233-2.892 13.188-8.303 29.18-13.692 44.866-11.129 5.279-9.234 8.292-19.99 16.003-27.668 4.491-5.434 10.318-9.946 13.177-16.573 3.768-7.383 4.086-16.595 10.253-22.653 8.357 0.154 18.807 0.822 23.649 8.796 5.268 7.12 4.162 16.672 1.709 24.646-1.578 6.2-6.167 10.844-9.793 15.883 9.201 2.114 18.818 2.026 27.954 4.611 7.569 2.213 16.113 2.728 22.4 7.975 7.58 7.853 6.463 21.239-1.479 28.446 1.983 7.755 5.236 17.526-0.975 24.219 0.636 5.466 1.26 11.939-2.771 16.332-1.665 2.344-4.48 3.198-6.956 4.359-1.391 4.776-0.011 10.976-4.589 14.295 0.098 3.833 0.953 8.083-1.435 11.446-3.275 5.838-10.023 8.369-16.222 9.683-6.419 0.603-12.411-2.442-17.493-6.046-0.844 27.45-1.161 54.943-1.512 82.415-0.416 5.575-3.648 10.329-5.477 15.478-4.337 12.224-10.603 23.616-15.828 35.446-11.392 22.728-24.887 44.318-38.644 65.656-0.888 1.205-2.038 2.344-3.527 2.727-4.656-0.526-8.928-2.629-13.112-4.6-7.405-3.758-11.906-10.998-16.617-17.504-1.708-2.29-2.848-5.16-5.411-6.638-8.653-6.09-18.292-10.592-27-16.595-14.109-9.322-24.909-22.521-36.958-34.186-3.79-3.604-6.912-7.81-10.548-11.556 3.373 9.025 6.079 18.281 8.719 27.537 5.356 16.409 10.373 32.949 17.076 48.875 9.464 24.504 22.313 47.517 31.558 72.119 1.172 3.122 2.618 6.134 4.129 9.124 7.438 12.674 13.999 26.212 24.591 36.673 1.764 2.114 4.667 4.228 3.933 7.372-0.219 3.56-3.626 5.455-5.839 7.799 0.548 2.399 1.863 4.513 3.692 6.178 6.879 6.649 12.64 14.47 16.825 23.09 28.26 2.07 56.707 3.494 84.562 9.125 4.885 1.522 10.734 1.511 14.47 5.465-2.728 3.867-7.778 3.911-11.951 4.919-17.789 3.078-35.851 3.844-53.738 6.046 6.298 3.012 13.779 2.947 19.946 6.496l0.537 1.226c-2.224 2.301-5.86 1.589-8.741 2.257-32.686 3.089-65.536 4.754-98.375 4.195-8.423-0.055-16.879-1.161-25.259 0.186-31.689 1.808-63.443 0.449-95.121-1.139 1.117 1.939 2.234 3.943 3.056 6.057-0.318 0.603-0.975 1.819-1.304 2.421-6.988 2.257-14.404 2.574-21.644 3.494-40.781 3.341-81.868 3.385-122.64-0.153-30.725 0.865-61.461-1.358-91.945-5.115-13.528-2.454-27.483-3.933-40.156-9.585-2.432-0.591-3.078-4.064-5.828-3.735-17.953-0.252-35.906-1.676-53.683-4.184-9.114-1.589-18.655-2.947-26.903-7.317-1.895-3.188 2.673-4.053 4.754-4.94 19.892-6.299 40.857-7.953 61.505-10.034 14.459-1.03 28.929-1.742 43.409-2.377-4.173-4.162-7.952-8.697-11.972-12.991-0.964-2.782 2.826-4.009 4.119-5.992 4.195-3.866 28.917-32.302 32.707-40.353 0.657-0.065 1.994-0.197 2.662-0.263-3.976-5.63-5.4-12.553-7.438-19.026-7.612-23.32-13.604-47.145-21.633-70.333-3.527-11.809-7.273-23.529-10.68-35.359-4.841 1.523-9.924 1.983-14.886 3.001-4.414 1.129-6.879-3.34-9.672-5.827-5.378-4.852-10.713-9.792-15.258-15.456-5.313-6.747-11.469-12.848-15.982-20.198-2.453-4.228-6.43-7.646-7.58-12.542-1.489-6.079-2.935-12.191-3.658-18.413-3.177-18.227-5.817-36.585-7.054-55.053-0.449-19.519 2.552-38.918 5.005-58.241-6.637 0.055-14.075-0.273-19.289-4.94-4.184-4.151-5.378-10.241-5.948-15.882-5.027-2.421-9.716-6.945-9.759-12.882 0.295-4.108 1.38-8.095 2.059-12.148-1.687-4.83-6.364-7.985-7.668-12.98-1.303-5.389-1.095-10.986-0.263-16.419 0.559-2.465-2.125-3.812-3.428-5.444-5.543-4.809-7.021-12.772-5.597-19.717 1.183-5.345 1.686-11.359 5.422-15.663 7.087-3.024 14.688-4.831 21.622-8.27-2.738-14.634-6.463-29.071-10.022-43.53-3.779-14.185-7.328-28.458-12.52-42.216-4.086-13.308-8.785-26.42-13.725-39.433-7.493-19.859-15.281-40.013-27.724-57.386-2.114 1.326-4.272 2.826-6.868 2.914-5.641 0.515-11.523 2.037-17.088 0.756-8.116-15.138-16.923-30.013-23.079-46.115-4.579-9.552-7.361-19.859-12.235-29.279-3.221-5.28-7.536-9.804-11.775-14.273 6.933-10.099 15.652-18.829 24.273-27.472-7.887-10.537-14.536-22.006-23.342-31.853-2.52-2.147-0.176-5.258 1.27-7.273 6.069-7.69 11.118-16.442 19.005-22.477 7.941-7.218 19.213-10.833 29.87-9.278 7.975 0.603 15.215 4.206 22.521 7.12 2.246 10.735 4.798 21.415 7.427 32.061 5.038-0.963 9.891-2.847 15.05-3.088 1.172 3.581 1.994 7.262 2.552 10.997 17.493-9.88 35.041-19.651 52.654-29.312 50.453-26.968 102.84-50.463 157.13-68.592m62.743-10.504c-51.964 12.87-102.32 31.634-151.15 53.475-34.964 16.146-69.578 33.157-102.74 52.797-4.775 3.461-10.143 5.904-15.192 8.883-0.964 2.257 1.084 4.787 1.632 7.055 18.533-10.374 36.738-21.459 56.05-30.342-9.574 7.262-20.834 11.885-30.671 18.785-7.755 4.82-15.083 10.286-22.115 16.102-1.556 1.304-2.235 3.286-3.231 4.995 8.27-1.752 13.79-8.883 21.523-11.709-3.264 4.37-8.204 7.021-12.147 10.701-4.217 2.87-2.771 8.796-5.455 12.751 9.201-3.933 17.789-9.3 27.045-13.2-3.56 3.988-8.862 5.631-12.827 9.114-4.02 3.702-9.935 5.652-12.29 10.943 3.713 0.81 6.846-1.961 9.869-3.659 10.121-5.51 19.903-11.742 30.539-16.277 1.73-0.876 3.669-1.03 5.575-1.074-13.714 6.102-26.968 13.66-38.732 23.003 0.734 0.044 2.202 0.11 2.936 0.142l-0.165-0.832c8.993-2.432 15.905-9.453 24.876-11.841-1.917 2.629-5.082 4.064-6.714 6.934 1.884-1.03 3.483-2.465 5.049-3.911 2.158-1.073 4.371-2.048 6.572-3.045 3.133-1.851 6.386-3.593 10.023-4.195l0.033 0.515c-4.239 0.526-7.832 2.848-11.37 5.06-5.652 3.692-10.724 8.227-15.664 12.805 15.083-7.656 30.473-14.776 45.874-21.819 19.038-9.169 38.94-16.343 58.372-24.591 11.184-4.754 22.674-8.687 34.033-12.97 14.667-4.885 29.673-8.631 44.538-12.815 26.956-7.033 53.957-14.043 81.385-18.994l1.074-1.358c-0.033 1.161-0.033 2.322-0.022 3.483-1.709-0.175-3.407-0.164-5.094 0.033 1.939 0.438 4.02 0.778 5.882-0.175 5.017-1.49 10.286-1.906 15.445-2.75-0.548-0.515-1.643-1.533-2.18-2.048 1.326 0.602 2.443 2.191 4.075 1.555 50.376-7.963 101.49-10.723 152.44-9.485 17.296 0.985 34.613 2.563 51.668 5.772 26.114 4.173 51.515 11.94 76.391 20.79 18.512 6.342 36.311 14.525 54.012 22.806 13.78 6.659 27.275 13.944 40.299 21.995-10.976-9.026-23.09-16.486-35.063-24.088-9.299-6.44-19.508-11.38-29.476-16.682-41.788-20.319-85.614-36.443-130.6-48.097-40.452-9.881-82.339-11.611-123.82-10.998-4.327 0.34-8.665 0.778-13.013 0.745 20.965-3.921 42.434-2.41 63.64-2.695 24.679 0.953 49.379 3.593 73.423 9.366 23.375 5.729 46.553 12.366 69.051 20.976 17.899 6.353 35.063 14.546 52.337 22.411 16.661 7.887 32.73 17.022 48.087 27.231 15.368 9.497 29.859 20.374 43.442 32.291 12.947 11.48 26.727 21.973 39.685 33.453-3.078-6.134-6.43-12.115-10.362-17.756-17.23-26.563-38.634-50.255-62.195-71.352-34.658-30.057-74.08-54.889-116.88-71.571-46.498-18.161-96.655-26.278-146.48-25.61-47.615 0.646-95.088 7.35-141.24 18.972m-342.98 74.233c-7.832 5.663-13.352 13.768-19.585 21.009-2.201 2.245 1.315 4.096 2.333 5.969 5.861 9.245 11.578 18.808 19.443 26.53-1.972-7.218-7.065-13.068-9.541-20.078-1.927-5.74-4.951-11.205-5.444-17.329 4.163 3.254 6.178 8.358 9.432 12.411 3.811 4.622 7.404 9.42 11.359 13.922 0.558 0.876 1.139 1.742 1.741 2.585-0.219-3.68-3.242-6.222-5.06-9.19-4.207-5.477-6.846-11.939-10.943-17.471 6.452 5.082 10.055 12.761 14.754 19.333 2.18 2.728 3.046 6.386 5.696 8.73-1.27-6.955-4.009-13.56-6.353-20.209 3.538 4.6 6.912 9.376 9.409 14.634 0.745 0.942 1.205 2.683 2.651 2.662 4.261-1.534 8.204-3.801 12.148-6.003 3.154-1.501 6.539-2.519 9.508-4.425-2.892-8.566-3.21-17.68-5.203-26.442-0.537-1.83-0.417-3.725-0.176-5.587 2.925 8.347 5.598 16.825 7.23 25.522 0.821-9.508-1.129-19.147-4.995-27.822-11.271-7.58-27.702-7.46-38.404 1.249m348.37-5.609c-28.315 6.156-55.71 15.686-83.434 23.978-24.667 9.354-49.905 17.329-74.123 27.8-6.967 2.848-13.988 5.532-20.834 8.643-7.624 2.65-14.535 6.933-22.148 9.617-19.804 8.588-39.028 18.435-58.044 28.6-0.953 0.559-1.752 1.282-2.409 2.18 6.933-1.304 12.41-6.233 18.927-8.676 19.881-9.945 40.211-18.971 60.476-28.118 62.446-26.869 126.6-50.441 192.9-65.82-3.866-0.099-7.602 0.909-11.315 1.796m-303.49 43.892c-8.73 3.713-17.131 8.182-25.094 13.341-9.289 5.346-18.643 10.943-26.169 18.687-4.852 4.338-9.288 9.124-13.363 14.207 1.249 2.245 3.012 4.108 4.754 5.981 6.89 7.996 9.65 18.369 13.988 27.767 3.822 10.406 8.083 20.648 13.341 30.407 3.626 6.595 6.331 13.703 10.636 19.936 3.505-3.79 6.671-7.974 11.096-10.756 12.925-10.154 28.589-16.672 44.833-18.972 4.327-0.285 8.665-0.121 13.002-0.197-2.103-7.076-5.433-13.747-7.317-20.9-4.206-10.559-6.747-21.655-9.978-32.521-5.269-17.811-10.428-35.819-12.17-54.374-6.057 1.961-11.841 4.633-17.559 7.394m333.7 12.87c-19.99 12.224-38.907 26.092-58.678 38.677-15.171 10.527-32.073 18.545-46.006 30.802-1.424 1.358-2.596 3.133-2.65 5.159-1.019 9.913-2.432 19.794-2.848 29.761-0.712 14.602-0.318 29.258-1.435 43.848-0.274 20.571-2.87 41.021-6.058 61.318-2.727 15.872-5.849 31.766-11.359 46.937-1.763 4.151 0.669 8.248 2.016 12.114 3.067 7.931 4.787 16.595 9.727 23.66 4.337 3.604 9.409 6.397 14.853 7.964 3.275 1.347 6.462 2.913 9.749 4.272-8.205-5.072-17.943-8.479-24.263-16.048-3.538-7.098-5.509-15.28-4.797-23.254 1.752-9.968 5.4-19.465 7.919-29.235 3.319-10.702 2.76-21.995 3.921-33.004 0.044-18.917 1.337-37.779 1.665-56.685 2.235-23.178 2.279-47.013 10.198-69.205 1.293-3.231 4.305-5.291 6.89-7.438 10.844-8.182 22.006-15.937 32.992-23.933 15.281-10.472 31.383-19.673 47.003-29.619 11.928-7.262 23.375-15.872 36.705-20.407 14.733 1.797 29.389 4.152 43.957 7.022 8.905 1.303 17.712 3.582 26.738 3.888 0.131 0.373 0.394 1.118 0.537 1.501-8.237 2.202-16.277 5.236-24.197 8.379-24.558 9.07-48.043 21.031-70.037 35.227-9.651 6.671-17.187 15.752-24.756 24.602-8.193 9.99-11.413 22.751-15.707 34.669-4.174 16.134-11.885 31.053-16.442 47.056-4.841 16.146-8.795 32.598-11.107 49.303-2.059 10.461-1.687 21.184-1.533 31.787 0.317 8.391-0.077 16.803 0.876 25.172 0.044 9.332 0.329 18.654 1.468 27.921 14.864 9.77 30.429 18.632 46.914 25.412 10.439 4.863 21.787 7.865 31.328 14.514 7.032 4.973 15.302 8.587 20.68 15.565 6.2 7.645 11.611 15.894 17.515 23.769-1.95-8.215-6.473-15.51-11.271-22.356-2.739-3.79-4.962-8.15-8.818-10.965-8.817-6.079-17.701-12.257-27.844-15.937-19.662-9.07-40.748-16.781-56.663-32.04-1.753-1.862-4.206-3.45-4.732-6.123-2.443-12.662-4.305-25.467-4.71-38.36 0.055-35.446 5.959-70.913 17.613-104.4 4.842-13.79 8.007-28.183 14.317-41.437 5.049-14.393 14.929-26.278 24.821-37.604 6.933-8.084 16.66-12.761 25.675-18.063 14.305-7.678 28.907-14.919 44.209-20.406 8.007-2.87 15.861-6.365 24.284-7.876 14.711-3.494 29.75-0.241 44.351 2.256 9.563 1.348 16.858 8.281 24.482 13.594 7.941 5.422 15.05 11.939 22.093 18.457 2.684 2.3 3.166 5.991 4.437 9.102 5.816 14.974 15.554 28.074 21.348 43.037 2.947 10.45 5.893 20.889 8.884 31.327 0.657 3.736 0.81 7.613 2.201 11.173 0.219 3.286 0.11 6.627 1.03 9.837 0.186 4.206 0.471 8.423 1.325 12.563 2.706 19.399 2.848 39.039 5.313 58.471 0.109 6.287 1.413 12.487 1.292 18.775-1.906 2.333-3.647 4.797-5.257 7.338-10.965 17.504-23.967 33.562-36.859 49.653-4.469 5.335-11.458 7.153-17.625 9.727-10.526 4.612-21.195 8.895-31.952 12.936-9.069 4.415-18.029 9.059-27.132 13.408-11.83 7.361-21.578 18.687-26.168 31.919 8.61-10.658 17.602-21.316 28.852-29.279 6.233-3.779 13.013-6.529 19.465-9.903 8.587-4.721 18.445-6.134 27.362-10.088 8.193-2.607 16.408-5.082 24.35-8.423 4.534-2.18 10.877-2.509 13.243-7.635 4.042-7.405 9.584-13.812 14.48-20.648 7.756-10.504 15.861-20.757 23.08-31.656 1.347-1.774 0.931-4.107 0.909-6.177-2.541-24.164-5.784-48.24-8.785-72.349-2.443-22.893-8.281-45.294-15.598-67.08-5.345-14.908-12.86-28.863-19.059-43.399-1.851-4.031-2.783-8.522-5.181-12.268-6.803-6.736-13.528-13.604-21.294-19.267-6.759-4.864-12.236-11.25-18.819-16.299-8.993-3.341-18.61-4.776-27.92-7.109-15.774-4.371-31.689-8.292-47.747-11.469-9.826-2.672-20.013-3.439-30.013-5.214-6.638-0.241-13.232-1.851-19.881-1.128-6.474 2.289-11.808 6.78-17.866 9.913m-28.096 50.639c-8.248 5.334-16.058 11.304-23.846 17.263 14.722-9.486 30.298-17.537 45.48-26.256 7.01-4.633 13.856-9.53 21.085-13.845-14.196 7.689-29.092 14.119-42.719 22.838m94.311-10.286c-8.566 2.75-16.934 6.102-25.106 9.848-9.935 4.808-20.395 8.675-29.651 14.787-4.36 2.947-9.146 5.302-13.188 8.686-4.174 4.031-7.055 9.169-9.957 14.131-5.981 9.946-9.771 21.02-12.893 32.138-1.478 4.6-3.428 9.08-4.195 13.878-2.191 10.307 1.939 20.494 1.687 30.823-0.132 4.645 0.263 9.771-2.476 13.802-4.83 4.283-10.23 8.434-12.717 14.623-2.99 6.058-1.851 13.002-0.854 19.399 2.563 10.68 11.885 19.092 22.564 21.283 15.423 3.593 30.966-1.128 46.214-3.374 5.093-0.58 10.121-2.464 15.313-1.676 9.442 0.559 15.697 11.786 12.531 20.319-0.405 1.862 1.271 3.407 1.873 5.083 4.765-2.651 11.611-4.414 15.324 0.832 4.59-5.509 15.072-5.597 19.147 0.559 3.177-2.574 5.992-6.222 10.275-6.846 3.943-0.482 6.988 2.443 9.891 4.633 3.472-5.739 12.213-6.583 16.649-1.489 1.928-1.326 3.768-3.243 6.299-3.221 2.672-0.186 4.797 1.775 6.999 3.013 1.49-1.863 3.275-3.451 5.335-4.656-0.351-3.308-0.975-6.627-0.691-9.946 0.625-5.915 2.64-11.654 2.542-17.646-0.449-3.713-2.399-7.109-2.52-10.888 3.451 4.677 5.116 10.494 5.192 16.277 9.771-3.505 19.607 1.818 29.499 1.216 9.288-1.139 18.949-5.959 23.002-14.809 1.928-6.2 1.128-13.002-0.515-19.18-1.577-6.342-5.422-12.027-5.706-18.687-0.428-6.999 0.898-13.922 1.993-20.801 1.249-6.452 0.898-13.057 0.778-19.574-0.252-8.161-1.764-16.606-6.43-23.474-2.903-4.929-7.24-8.741-10.614-13.32-3.45-4.315-4.984-9.704-7.251-14.645-4.064-10.022-9.629-19.869-18.271-26.628-3.396-2.87-6.824-5.718-10.669-7.974-15.664-10.253-34.876-13.166-53.257-13.046-9.014 0.822-17.427 4.403-26.146 6.55m-367.5 63.028c3.418 8.73 5.696 17.931 6.759 27.23 1.259 1.479 1.007 3.462 0.909 5.258-0.679-0.526-1.085-1.194-1.205-2.004-0.635-8.018-4.382-15.335-7.974-22.368-1.052-1.413-0.132-3.79-1.961-4.6 1.106 5.608 2.552 11.194 4.425 16.627 1.84 4.853 2.322 10.1 4.338 14.908-4.546-9.989-9.355-19.902-14.349-29.717 0.372 4.305 3.143 7.887 4.589 11.874 2.98 5.893 3.681 12.542 5.729 18.763-2.388-3.658-4.261-7.689-7.317-10.877-3.472-3.68-5.806-8.182-8.292-12.53-0.789-1.052-1.194-2.728-2.749-2.87-1.457 5.575 2.168 10.909 3.91 16.047 4.316 10.811 8.084 21.896 13.714 32.149 2.541 5.871 6.134 11.381 7.613 17.668-9.738-14.108-16.266-30.035-24.12-45.184-2.07-3.757-3.363-8.303-6.813-11.03 2.278 8.149 6.802 15.434 10.066 23.189 1.829 4.775 3.845 9.475 5.992 14.119 5.334 12.213 9.277 24.941 13.626 37.527 3.177 11.381 7.722 22.367 10.297 33.935 5.564 17.701 10.625 35.577 15.203 53.563 1.687 5.805 3.012 11.698 4.064 17.657 0.723-0.219 2.158-0.657 2.87-0.876-2.158-16.606-8.237-32.259-12.246-48.437-7.153-24.394-16.288-48.185-23.2-72.645 2.464 2.75 3.067 6.561 4.37 9.913 6.967 20.232 14.941 40.178 19.783 61.067 2.147 9.201 5.991 17.876 8.313 27.023 2.607 7.437 4.261 15.236 7.854 22.301 0.92-0.109 2.761-0.307 3.67-0.405-2.268-10.669-4.207-21.415-5.433-32.259 3.428 9.935 4.042 20.779 8.062 30.572 1.369 0.865 3.187 0.504 4.732 0.811-1.742-8.895-3.867-17.702-5.543-26.607-2.092-10.296-6.079-20.209-7.054-30.725 2.223 9.617 5.827 18.84 8.39 28.37 3.111 9.453 4.009 19.607 8.467 28.589 0.68 0.625 1.403 1.227 2.158 1.786-0.591-6.321-3.1-12.203-4.721-18.271-4.896-15.642-9.442-31.393-13.9-47.166-4.765-14.766-8.073-29.959-13.155-44.626-4.075-14.294-7.942-28.643-12.323-42.85-3.089-10.078-5.061-20.506-9.059-30.287-2.026-5.324-5.958-9.563-8.489-14.612m341.01 135.87c0.887 2.541 4.097 4.655 2.596 7.525 0.438-0.482 1.315-1.457 1.753-1.939 3.023 1.555 5.882 3.418 8.828 5.137-0.69-6.013-6.594-12.815-13.177-10.723m-25.686 9.507c1.073 16.256 8.127 32.029 19.793 43.421 11.556 11.063 26.136 19.432 42.062 21.984 13.714 1.741 28.063-0.044 40.594-6.036 4.831-2.541 9.968-5.608 12.203-10.866 1.884-4.655 4.524-9.179 4.951-14.272-2.958 1.785-4.426 5.608-7.996 6.418-2.114 0.91-4.02-0.788-5.762-1.719-2.202 2.212-4.36 5.017-7.7 5.367-2.607 0.252-5.784 0.044-7.307-2.41-5.224 4.875-14.404 4.864-18.785-1.161-3.188 1.15-6.583 2.651-10.012 1.588-3.242-0.613-5.619-3.089-7.218-5.827-3.045 0.208-6.298 1.052-9.201-0.263-2.092-1.205-3.275-3.428-4.754-5.236-2.454 0.723-5.148 1.37-7.547 0.176-2.782-1.983-3.483-5.554-4.918-8.446-4.294-0.646-8.698-1.544-12.378-3.987-6.725-4.907-11.852-11.6-16.025-18.731m29.082 7.832c1.862 2.991 5.258 4.535 8.127 6.386 0.603-2.815 2.104-5.586 1.928-8.478-1.577-2.87-4.009-5.137-6.725-6.89-2.377 2.246-4.743 5.587-3.33 8.982m98.407-2.267c-0.35 4.469 0.187 8.96 0.066 13.44 2.235-1.073 5.006-1.928 5.915-4.535 0.526-4.173 0.833-8.708-0.876-12.651-2.695-1.698-4.798 1.347-5.105 3.746m-43.245-2.782c-2.738 1.467-4.852 3.954-6.473 6.572-1.358 3.286-1.183 7.076-0.526 10.526 1.117 4.294 6.408 4.776 10.055 4.13 2.837-0.088 5.948-2.048 6.102-5.105 0.186-4.534 2.059-10.022-1.457-13.779-1.764-2.311-4.907-3.845-7.701-2.344m17.285-0.154c-3.012 1.676-5.181 5.006-4.765 8.544 0.219 3.834-0.843 8.084 0.647 11.666 4.359 3.472 13.845 1.588 14.064-5.028 0.449-4.743 1.183-10.493-2.399-14.262-1.785-2.311-5.148-1.774-7.547-0.92m12.63 5.247c0.471 4.371 0.624 8.763 0.493 13.155 3.527 0.986 8.664 0.822 9.913-3.384 0.427-3.987 0.58-8.073-0.241-12.005-1.008-2.005-3.155-3.582-5.4-3.768-2.553 0.668-5.324 3.143-4.765 6.002m-72.185 7.514c2.673 3.133 6.726 4.448 10.549 5.532 2.738-3.374 2.048-8.029 1.884-12.06-0.23-3.68-4.864-4.612-7.756-3.757-4.063 1.479-5.356 6.397-4.677 10.285m20.593-10.022c-4.929 3.023-4.381 9.694-3.867 14.678 3.254 5.663 15.752 4.392 14.963-3.341-0.022-3.133 0.997-6.759-1.084-9.453-2.158-3.264-6.759-2.991-10.012-1.884m-30.133 11.556c-0.69 3.483-1.797 7.788 0.854 10.734 1.512 2.136 5.334 2.498 6.627-0.054 0.153-2.213-0.055-4.415-0.131-6.605-2.301-1.611-4.513-3.538-7.35-4.075m12.388 5.247c-0.449 2.508-0.865 5.049-0.668 7.612 0.274 3.374 4.557 6.562 7.635 4.185 1.895-2.377 0.766-5.696 1.04-8.478-2.497-1.501-5.203-2.596-8.007-3.319m74.803 9.869c4.151-0.274 4.907-5.51 5.816-8.763-4.129 0.986-4.787 5.312-5.816 8.763m-61.746-5.619c-0.679 3.154-1.117 6.583-0.099 9.716 1.227 3.428 5.258 4.852 8.621 4.37 2.366-1.216 4.436-3.396 4.162-6.254 0.121-2.575 0.614-7.044-3.165-7-3.133-0.252-6.518-1.72-9.519-0.832m53.804 0.591c-2.234 3.1-2.629 7.076-3.067 10.768 6.791 1.106 8.478-6.835 9.3-11.874-2.136-0.219-4.338 0.12-6.233 1.106m-16.584 1.818c-2.103 3.922-2.201 8.72-1.27 13.013 7.645 1.884 12.399-6.835 12.279-13.352-3.604-0.383-7.372 0.164-11.009 0.339m-20.724-0.219c0.603 4.305-2.125 10.067 2.3 12.97 2.432 2.103 6.167 2.628 8.829 0.613 4.655-2.979 4.414-9.234 5.389-14.032-5.498 0.46-11.019 0.165-16.518 0.449m220.28 25.873c-1.753 5.028-5.663 8.807-9.278 12.542-10.921 11.753-17.657 26.672-23.331 41.503-4.13 10.198-1.041 22.357 6.309 30.243 4.524 2.18 10.187 0.953 14.766-0.602 8.116-5.773 14.097-14.81 15.696-24.712 0.986-9.234 2.399-18.533 1.118-27.822-3.571 0.975-6.846 2.749-10.275 4.075 3.308-3.834 7.733-6.518 10.888-10.472-3.637-1.106-6.999-4.009-7.624-7.886 3.1 3.811 8.588 5.301 13.243 3.822 2.322-1.621 3.867-4.074 5.609-6.254-2.279-0.405-4.765-0.416-6.726-1.742-2.486-2.07-4.097-4.929-5.389-7.832 1.96 1.621 3.68 3.593 5.937 4.82 3.888 1.106 8.423 1.829 11.928-0.712 1.753-6.255 3.713-12.882 2.465-19.41-3.483-6.693-11.162-9.957-18.501-9.497-2.355 6.616-4.436 13.331-6.835 19.936m-573.87 5.564c-8.138 3.045-16.561 5.192-24.766 8.029-1.489 4.973-2.399 10.165-2.366 15.368 0.132 5.269 4.305 11.206 10.143 10.461 9.738-1.621 16.913-9.65 26.464-11.819 6.901-1.643 15.434-2.684 19.29-9.42-1.895-0.11-3.155 1.643-4.688 2.486-4.097 3.232-9.311 4.426-14.273 5.609 0.219-0.46 0.657-1.391 0.876-1.851 5.357-0.964 10.779-3.002 15.072-6.365 2.969-2.628 2.115-6.539 0.636-9.693 2.705 2.114 3.505 5.433 4.491 8.554 1.774-1.993 4.305-3.362 5.729-5.619 0.065-1.928-2.345-2.749-3.549-3.932-9.563-7.208-22.324-4.239-33.059-1.808m51.504 3.352c-5.005 3.264-9.573 7.164-14.743 10.176-3.374 1.961-7.262 4.666-7.219 9.048 1.863-1.117 3.878-2.279 4.448-4.557 0.427 3.494 1.84 7.909 6.046 8.193 5.072 0.121 10.45-1.336 14.557-4.37 0.548 0.712 1.118 1.446 1.698 2.158 2.739-2.706 3.221-7.219 6.233-9.464 0.274 3.516 0.219 7.043 0.087 10.57 1.665-0.296 3.341-0.537 5.028-0.701-2.191 3.637-5.192 6.791-8.719 9.157-1.402 1.052-3.505 1.961-3.341 4.064-0.745 8.445 4.491 15.795 9.607 21.973 2.924 3.462 8.938 3.33 11.359-0.646 5.246-7.679 4.83-18.096 1.522-26.453-3.067-7.547-3.198-16.551-8.938-22.806-2.18-2.289-3.998-4.962-6.496-6.911-3.57-1.074-7.963-1.939-11.129 0.569m119.79 17.756c-3.933 4.776-7.788 9.88-9.464 15.927-2.815-0.756-5.641-1.49-8.533-1.841-1.534 1.895-1.534 4.601-2.552 6.781-2.542 0.931-5.171 2.015-7.044 4.031-0.525 1.785-0.766 3.647-1.117 5.487-4.765-0.295-8.905-2.858-13.177-4.71-2.103 2.717-3.221 6.737-7 7.493 3.111 3.603 6.748 6.791 9.399 10.789-0.362-3.363-0.69-6.715-0.8-10.077 3.275 1.062 4.469 4.48 6.134 7.141 4.973 8.15 9.672 16.551 12.553 25.709 3.757 8.883 5.356 18.457 8.708 27.471 0.909 3.024 1.676 6.102 2.662 9.114-2.498-23.014-10.691-45.096-21.097-65.656 3.199 0.668 6.572 1.117 9.442 2.815 11.304 6.912 21.962 15.269 29.641 26.212-4.94-8.884-10.658-17.416-17.636-24.832-4.304-4.272-9.409-7.69-13.473-12.202-0.011-0.57-0.011-1.709-0.011-2.279 1.238-0.372 2.476-0.767 3.714-1.172 13.089-1.358 25.489 4.469 36.651 10.625 10.121 5.444 18.194 13.725 26.606 21.393-10.592-15.062-24.109-28.162-40.079-37.407-2.706-1.534-5.937-2.081-8.358-4.086 0.482-7.185 7.021-11.753 11.644-16.529 3.286-3.625 7.656-5.882 12.147-7.645-0.328-0.187-0.975-0.548-1.303-0.734-6.627 0.306-13.342 3.001-17.657 8.182m-140.97 1.271c1.106 2.87 3.199 5.531 6.364 6.21 6.058 2.64 12.411-0.383 17.888-3.001-0.428-0.591-0.844-1.172-1.249-1.752-3.221 2.333-7.197 3.439-11.085 3.965-4.152 0.033-9.399-2.563-8.971-7.449-0.734 0.504-2.213 1.523-2.947 2.027m381.87-0.165c4.809 4.119 10.132 7.986 13.637 13.342 1.337 1.731-1.215 2.607-2.201 3.505-7.723 5.05-13.846 12.553-16.584 21.436 4.053-9.354 13.287-15.598 22.849-18.259 4.601-1.775 9.267 1.807 11.83 5.378-3.319 3.494-6.846 6.802-9.858 10.592-8.566 8.73-13.243 20.33-16.847 31.798 3.648-7.777 7.493-15.685 13.736-21.764 6.901-7.076 14.886-14.361 24.931-16.135-0.285 2.935-1.052 5.794-1.775 8.653 3.155-3.702 6.375-7.437 10.548-10.033-0.898-1.38-1.818-2.728-2.738-4.064-4.129 1.391-8.807 0.449-12.651 2.574-0.395-5.74-6.715-8.423-9.234-13.21-3.045-0.088-6.08 0.142-9.103 0.274-0.865-3.012-3.154-5.269-5.225-7.493-3.012-3.253-6.616-6.495-11.315-6.594m168.16 2.235c-0.23 2.399 0.887 4.589 1.544 6.846 2.136 7.383 1.972 15.138 1.72 22.751 0.065 11.085-7.12 20.976-15.62 27.439-5.992 4.753-14.076 4.228-21.086 2.541-1.906-3.21-4.162-6.2-6.211-9.3-2.705-4.239-2.837-9.42-4.655-13.977-3.012 8.051-0.022 16.913 5.291 23.255 1.106 1.752 3.209 1.599 5.027 1.468-0.525 0.186-1.555 0.58-2.07 0.777 1.194 2.312 0.789 5.006 1.512 7.46 1.851 5.345 6.013 9.781 11.216 12.016 7.35 3.264 15.609 3.385 23.518 3.439-0.449-3.297-3.056-5.509-4.425-8.379-1.654-3.089-1.665-6.693-2.082-10.077-0.504-0.384-1.511-1.151-2.015-1.534 0.997-2.99 2.081-5.948 3.001-8.949-0.186 2.99 0.175 6.013 1.84 8.588-0.131 2.672-0.536 5.389-0.098 8.072 0.975 3.867 4.513 6.463 8.138 7.712-0.033-4.152-0.898-8.697 1.337-12.455 1.719-1.971 4.118-3.198 5.849-5.17 0.624-2.891-0.088-6.002 1.062-8.806 0.767-2.104 1.589-4.207 2.114-6.386-4.282-2.027-8.806-0.033-13.056 0.92 3.341-5.817 10.811-7 16.934-7.098-0.011-3.965 0.351-7.92 0.92-11.83-4.469-2.958-9.365-6.978-9.365-12.838 0.164-4.031 0.843-8.905 4.732-11.063-1.337 3.571-2.432 7.262-1.621 11.118 2.541 2.267 5.542 3.899 8.587 5.411 0-0.975 0.011-2.914 0.011-3.889-1.719-0.12-3.406-0.295-5.038-0.766 1.643-0.044 3.308-0.055 4.973-0.022 1.193-2.761 2.672-5.389 4.578-7.723 4.316-1.894 9.092-2.508 13.396-4.348l-0.076-0.482c-12.947-3.407-26.453-5.367-39.882-4.721m40.769 6.977-0.055-1.741c-5.466 1.676-11.939 4.885-12.903 11.172 0.339 4.119 2.957 8.194 6.901 9.716 7.711 3.33 17.142 5.455 24.897 1.14 4.645-3.473 3.703-10.439 1.249-14.974-3.56-5.477-10.888-5.28-16.474-7.142-2.027-1.511-3.308 0.011-3.615 1.829m-614.09 5.893c-7.142 1.216-14.536 1.435-21.349 4.108-2.114 0.701-2.771 3.144-3.176 5.083-0.691 4.326-1.578 9.025 0.405 13.166 1.577 3.406 4.644 7.153 8.861 6.397 11.042-0.701 21.075-5.937 31.656-8.73l0.318-0.417c-1.851-1.785-4.611-0.065-6.704 0.373-8.883 2.574-18.128 5.816-27.493 4.491-4.688-0.811-4.502-6.627-3.067-10.077 0.942 2.826 0.788 6.473 3.625 8.27 0.055-0.68 0.176-2.038 0.23-2.717l0.198 1.26c4.37 1.194 8.741 2.574 13.308 1.227 6.879-1.534 13.714-3.418 20.703-4.338 0.175 0.285 0.525 0.843 0.701 1.117 3.264-0.526 5.98-2.705 9.255-3.286 3.068-0.548 6.069-1.84 8.205-4.173 3.133-2.87 3.231-8.96-0.625-11.25-4.009-2.311-8.423-4.206-13.056-4.655-7.504 0.34-14.547 3.407-21.995 4.151m88.166 26.99c2.508 11.425 4.14 23.058 5.159 34.712 0.668 22.762-1.358 45.502-4.152 68.066-1.774 11.162-3.165 22.499-1.621 33.77 1.38-0.493 1.435-2.015 1.72-3.209 2.235-11.326 4.064-22.773 7.372-33.858 1.424-5.006 2.881-10.187 2.256-15.444-1.566-13.484-0.537-27.078-1.522-40.584-0-5.115-0.044-10.219-0.263-15.324 0.044-6.725-1.873-13.21-2.98-19.782-1.873-9.716-6.046-18.807-8.072-28.458 6.221 4.031 12.257 8.457 17.668 13.55 7.963 7.766 10.789 18.851 14.141 29.082 1.303 4.129 1.161 8.533 2.267 12.706 0.942-15.116-3.341-30.254-10.252-43.595-8.522-5.62-15.675-13.583-25.544-17.044-1.139-0.614-2.279-1.227-3.396-1.851 1.534 9.288 4.502 18.259 7.219 27.263m282.14-16.868c-7.569 4.096-15.686 7.328-22.51 12.673-0.033 0.296-0.11 0.898-0.142 1.194 13.21-7.054 29.136-10.472 39.257-22.236-5.575 2.706-10.942 5.849-16.605 8.369m-148.95-7.296c6.046 4.426 13.396 6.452 20.341 9.015 10.581 4.086 21.655 6.682 32.729 9.081 10.823 2.87 21.393 6.725 32.051 10.001-0.175-0.34-0.406-0.614-0.701-0.822-6.715-3.79-13.605-7.295-20.725-10.263-11.096-3.681-22.915-4.382-34.153-7.559-9.902-2.99-19.815-5.936-29.542-9.453m278.22 7.274c-6.364 3.143-12.52 6.999-17.285 12.344-5.061 5.324-7.427 12.422-10.855 18.775-4.568 9.957-8.259 20.429-9.629 31.338-0.175 3.768-0.788 7.493-1.303 11.239 0.789-1.72 1.402-3.494 1.939-5.291 3.078-11.424 8.138-22.203 13.758-32.576 4.523-8.642 9.836-16.934 16.145-24.394 5.422-5.016 11.907-8.828 18.523-12.082 3.33-1.873 7.985-1.686 10.143-5.301-7.558 0.011-14.678 2.87-21.436 5.948m21.502-6.233c0.295 5.017-2.804 9.322-3.911 14.086-8.259 30.298-6.78 61.954-9.376 92.975-1.106 26.3-2.903 52.578-5.247 78.801-0.723 9.485-0.307 19.015-0.591 28.534-0.34 10.625 1.259 21.173 1.445 31.798 1.074 9.278 1.435 18.72 3.648 27.833 2.465 4.897 7.032 8.796 11.907 11.162-0.219-0.405-0.669-1.227-0.888-1.632-1.128-4.995-4.392-9.267-4.918-14.426-4.107-21.633-5.893-43.694-4.841-65.689 1.007-8.752 0.46-17.58 1.599-26.31 0.986-11.392 2.541-22.718 3.647-34.099 1.392-11.578 3.013-23.156 3.133-34.844 0.581-13.911-1.358-27.734-1.95-41.602 0.066-10.997 0.373-22.049 2.104-32.915 1.906-11.513 5.86-22.521 9.617-33.519-1.807-0.076-3.593-0.12-5.378-0.153m-62.546 14.371c-3.943 3.297-7.612 7.022-10.395 11.359-3.395 5.105-7.218 9.968-9.946 15.489 9.026-10.812 20.057-19.903 32.292-26.848 1.621 2.038 0.613 4.546 0.055 6.77 2.902-1.895 5.794-3.867 8.248-6.353-2.761-1.731-5.028-4.119-7.734-5.883-4.37 1.271-8.982 2.465-12.52 5.466m-418.46 2.87c-0.23 1.183-0.427 2.388-0.438 3.615 1.807 2.388 4.513 5.258 2.87 8.489-1.38 4.644-6.682 5.937-10.658 7.525 3.319-2.015 7.689-3.461 8.905-7.602 1.38-2.881-0.164-5.794-2.092-7.941 0.055-1.38 0.153-2.75 0.285-4.108-2.027 0.066-3.965 0.46-5.838 1.205-11.009 4.173-22.423 7.164-33.957 9.431-4.545 0.8-9.113 1.753-13.363 3.604-4.59 2.486-5.105 8.489-4.644 13.144 1.237 3.845 5.082 6.31 8.982 6.803 4.874-1.742 9.431-4.382 14.513-5.598 12.104-3.209 24.974-4.754 36.07-10.91 5.894-3.79 5.313-11.578 3.276-17.383-0.975-0.066-2.925-0.208-3.911-0.274m28.173 6.682c-3.779 2.574-8.588 1.807-12.805 1.106-0.022 1.873-0.066 3.779-0.142 5.674-1.172 1.304-2.344 2.607-3.495 3.933 0.8 1.544 1.611 3.088 2.476 4.611 0.307 3.198-1.183 7.273 1.785 9.606 2.531 3.056 7.35 5.291 10.866 2.498 4.174-3.779 6.135-9.344 8.117-14.459 0.285-6.693-1.106-13.385 0.088-20.078-2.443 2.224-3.867 5.499-6.89 7.109m547.38-3.922c-4.798 1.107-9.596-0.482-14.317-1.15-0.734 2.005-1.818 3.955-1.972 6.123-0.438 3.078 2.115 5.543 4.316 7.296 6.529 4.02 14.339 5.553 21.929 5.717 3.615 0.526 6.956-2.848 6.43-6.462 0.789-5.159-2.267-10.111-6.441-12.849-3.362-0.679-6.692 0.657-9.945 1.325m-292.98 1.227c-6.692 1.501-11.687 8.895-9.19 15.576 1.808 7.372 11.02 11.644 17.756 8.04 5.17-2.256 7.098-8.062 7.942-13.199 1.073-3.856-1.687-7.569-4.908-9.376-3.417-2.257-7.81-2.158-11.6-1.041m-244.29 16.913c-2.344 4.666-4.611 9.387-7.295 13.878-1.851 3.133-5.082 5.061-8.708 5.323 1.172 4.721 7.317 2.596 9.891 0.263 5.214-5.652 9.825-12.761 10.231-20.658 0.328-4.228-1.961-7.931-3.045-11.863 0.449 4.349-0.11 8.807-1.074 13.057m264.21-6.332c3.231 0.636 6.616 0.855 9.606 2.366 6.397 3.199 13.572 5.225 18.567 10.636 1.544-2.88 3.187-5.75 4.064-8.927-7.241-2.004-14.481-3.998-21.875-5.29-3.45-0.636-7.251-0.559-10.362 1.215m-53.169 6.332c-6.43 3.001-12.06 7.459-17.701 11.698 3.023 1.621 4.535 4.754 6.057 7.668 6.003-6.879 12.904-13.068 20.549-18.074 2.728-1.993 6.43-2.541 8.632-5.203-6.058-0.044-11.885 1.961-17.537 3.911m55.557-2.191c7.306 6.254 16.146 11.173 21.195 19.684 3.484 5.882 8.194 11.446 9.344 18.38 0.328 5.915-2.837 12.246-8.533 14.546-4.513-6.659-7.054-14.349-10.373-21.6-3.911-8.763-6.594-18.424-13.101-25.73 6.309 14.163 9.661 29.476 16.42 43.464 2.212 5.334 5.969 9.781 9.781 14.042 5.685-6.911 9.99-14.897 12.98-23.32-4.677-9.212-10.679-17.668-15.094-27.001-1.829-2.607-4.797-4.02-7.437-5.619-4.908-2.596-9.738-5.521-15.182-6.846m251.17-0.263c-2.804 2.016-3.943 5.663-3.111 8.971 2.246 5.367 8.15 7.219 12.882 9.738 5.849 2.092 12.421 2.804 18.5 1.249 3.725-1.085 4.787-5.477 4.59-8.884-0.066-1.358-0.712-3.1-2.18-3.384-5.29-1.151-10.701-1.633-16.102-1.687-5.192-1.172-9.387-4.864-14.579-6.003m-290.93 5.028c-8.785 6.013-18.27 11.753-24.218 20.856-6.047 9.518-13.506 18.084-18.775 28.096 3.702 9.924 9.815 18.774 16.661 26.792 0.69 0.964 1.884 1.227 2.946 1.643 6.266-11.03 11.063-22.849 14.547-35.051 3.636-12.707 8.872-24.854 13.451-37.232-3.199 5.488-6.397 10.987-8.829 16.869-5.499 13.243-11.512 26.267-16.759 39.608-2.651-0.175-5.302-0.296-7.941-0.537-1.972-3.242-4.502-6.09-6.452-9.332-0.953-1.369 0.142-2.892 0.767-4.097 4.819-8.544 9.639-17.131 15.247-25.193 6.474-9.07 15.237-16.025 23.649-23.178-1.457 0.033-3.1-0.263-4.294 0.756m149.19 17.931c-8.599 17.69-11.425 37.582-11.315 57.09 2.278-17.438 6.528-34.591 11.841-51.339 2.694-8.249 6.364-16.124 9.551-24.186-3.921 5.816-6.988 12.158-10.077 18.435m-417.58-15.302c-1.742 0.35-3.45 0.799-5.083 1.478-8.828 3.955-18.741 4.36-27.701 7.953-3.275 1.479-6.912 2.333-9.848 4.469-2.826 4.458-0.153 10.614 4.809 12.093 8.533 3.034 16.332-3.21 23.945-6.134 5.816-3.1 12.388-4.732 17.832-8.5 3.505-2.454 5.532-8.051 2.311-11.48-1.763-1.511-4.25 0.011-6.265 0.121m490.24 0.295c0.658 11.852 7.931 23.868 19.553 27.724 8.029 3.155 16.748 1.851 25.138 1.906l-0.657-1.676c-9.048-1.325-18.939-0.591-26.924-5.827-4.59-3.034-6.868-8.183-8.927-13.057-2.322-3.352-5.554-5.97-8.183-9.07m-396.23 2.936c1.03 8.894 3.681 17.504 5.389 26.278 2.585 12.947 5.773 25.861 6.66 39.082 0.351 7.197 1.534 14.35 1.315 21.59 2.398-14.875 2.847-30.188-0.187-45.008-3.121-14.35-8.697-27.998-13.177-41.942m181.08 5.597c-6.178 18.37-6.989 37.922-9.76 56.97-1.588 17.033-3.472 34.077-3.363 51.209 1.775-2.158 2.925-5.357 5.937-6.036 1.939-0.153 3.56 1.172 5.28 1.895-1.643-12.684-0.997-25.5-1.238-38.25 0.307-21.951 1.161-43.924 3.144-65.788m30.068 93.939c2.114-0.646 4.217-1.402 6.429-1.665 1.096 0.909 2.06 1.971 3.056 3.012-0.208-31.525-0.361-63.443-7.853-94.256 0.011 30.977-0.252 61.965-1.632 92.909m245.72-83.741c7.678 5.86 17.197 9.957 26.957 9.552 4.688-0.307 4.02-6.386 3.582-9.694-7.821-1.49-16.332-2.038-22.959-6.923-1.961-1.314-4.656-3.253-6.978-1.731-1.654 2.64-1.511 5.915-0.602 8.796m-537.1-2.256c-1.249 3.538-3.933 6.988-3.024 10.931 0.931 4.743 2.147 9.432 3.429 14.098-3.177-3.571-5.784-7.931-10.264-10.023 0.285 7.963 2.991 15.576 5.192 23.156 3.418 12.75 7.383 25.369 9.771 38.371-1.314-3.418-2.53-6.868-3.396-10.428-3.176-10.548-7.58-20.691-10.657-31.284-2.345-6.736-4.995-13.407-8.555-19.607 1.292 4.031 2.65 8.051 3.603 12.192 9.618 37.187 20.462 74.024 30.528 111.08 2.958 10.362 6.682 20.494 9.179 30.988 4.294 14.699 8.961 29.29 13.397 43.935 6.879 22.137 12.892 44.548 20.154 66.565 2.826 8.511 4.59 17.372 8.019 25.675-3.1-12.487-4.294-25.336-6.847-37.943-1.599-8.862-4.633-17.362-7.415-25.895-5.378-14.228-10.45-28.578-15.27-43.015-2.968-9.661-6.385-19.311-7.108-29.476 2.53 1.961 2.815 5.433 3.932 8.226 3.483 11.754 7.777 23.277 10.603 35.227 2.322 8.248 3.461 16.902 6.999 24.766 1.917 4.678 3.517 9.475 5.346 14.185 3.045 10.023 7.602 19.509 10.187 29.685 2.826 6.594 4.469 13.736 8.171 19.925-7.262-25.008-12.246-50.771-22.192-74.934 1.501 1.851 2.727 3.91 3.571 6.145 2.684 7.426 6.211 14.645 7.153 22.575 3.647 13.615 7.755 27.121 12.432 40.419 0.69 2.07 1.643 4.042 2.914 5.849 0.734-7.273-2.574-14.294-2.092-21.469 2.826 5.378 3.121 12.016 6.955 16.825-0.548-6.112-2.585-11.983-3.604-18.019-5.093-14.754-9.935-29.629-14.469-44.581-2.498-9.924-6.518-19.443-8.095-29.597 2.508 3.998 3.1 8.862 4.71 13.254 3.275 9.365 5.904 18.939 9.146 28.315 3.199 10.746 8.029 20.922 11.042 31.722 1.478 3.921 2.793 8.259 5.925 11.216-2.804-12.443-6.572-24.656-11.019-36.618-7.799-23.068-14.24-46.553-21.721-69.72-6.463-21.578-12.98-43.146-19.651-64.659-5.389-16.025-9.497-32.434-14.535-48.557-6.408-23.124-11.995-46.488-18.665-69.534 1.533 13.604 4.83 26.935 6.167 40.561-3.133-7.744-3.199-16.376-5.663-24.35-1.687-5.323-2.268-10.953-4.283-16.178m531.84 18.38c2.837 4.14 6.999 7.153 11.315 9.628 0.066-0.186 0.208-0.569 0.285-0.756-2.355-3.11-6.463-4.721-8.182-8.5 0.733-2.015 1.369-4.063 2.136-6.068-0.198 1.884-0.559 3.779-0.559 5.696 1.665 3.68 5.433 5.751 8.653 7.919 4.382 1.917 10.33 2.158 14.24-0.799-0.197 0.767-0.602 2.289-0.811 3.056 3.056-2.18 5.839-5.915 4.743-9.869-5.476-1.622-12.049-0.022-16.901-3.725-3.648-2.694-7.525-5.509-12.323-5.181-1.917 2.399-3.757 5.422-2.596 8.599m-566.06-1.074c-2.409 13.408-3.625 27.001-4.742 40.573-0.209 6.594-1.326 13.177-0.691 19.782 1.808 22.115 5.39 44.088 10.231 65.733 0.471 3.001 1.698 5.838 3.264 8.434 10.395 16.847 24.35 31.021 38.371 44.844 5.115-2.541 7.952-7.656 10.077-12.728-0.405-2.957-1.128-5.86-1.96-8.719-0.219 0.11-0.68 0.329-0.899 0.438-2.409 6.014-3.439 12.531-6.386 18.359-3.658-0.844-5.378-4.327-7.558-6.978-6.758-8.259-13.779-16.343-19.727-25.226-14.021-23.353-19.114-50.847-20.527-77.727-2.18-14.908 0.306-29.893 0.405-44.833 1.106-7.69 0.8-15.5 2.103-23.167-0.493 0.295-1.468 0.909-1.961 1.215m580.84 11.042-0.821 0.263c3.932 1.96 8.303 1.511 12.476 0.81-0.701-0.547-1.402-1.095-2.092-1.632-3.078 1.293-6.364 0.876-9.563 0.559m-19.782 15.444c-1.84 18.249-2.881 36.597-5.564 54.747-3.023 12.848-2.837 26.803-9.738 38.447-4.02 7.076-7.372 14.492-10.757 21.874-10.197 20.418-18.478 41.778-28.698 62.14 7.657-10.876 13.221-23.013 20.067-34.383 12.52-22.74 25.073-45.633 33.967-70.092 0.964-7.46-0.011-15.062 0.57-22.554 0.613-6.134 0.438-12.301 0.591-18.457 0.318-14.7 1.14-29.378 0.975-44.077-1.281 3.987-0.986 8.237-1.413 12.355m-355.02 61.242c-3.867 12.367-9.158 24.208-14.229 36.103-5.357 10.779-10.932 21.513-17.745 31.448-6.868 12.575-14.547 24.701-21.228 37.385 2.431-2.914 4.162-6.298 6.156-9.497 11.961-18.467 24.415-36.672 34.701-56.159 13.714-23.09 18.588-50.146 21.666-76.467-2.946 12.421-5.28 25.04-9.321 37.187m162.74-28.567c4.677 28.94 9.146 57.956 15.707 86.545 2.892 10.088 7.263 19.684 10.494 29.662 6.988 23.343 16.31 45.94 26.913 67.858 6.101 11.983 11.052 24.701 19.432 35.359 7.799 11.008 16.102 21.644 24.273 32.379-4.118-7.087-9.267-13.539-13.035-20.845-7.35-11.074-11.293-23.846-16.452-35.983-6.704-15.839-14.24-31.316-20.834-47.199-7.416-16.518-13.769-33.475-20.658-50.212-2.607-6.243-4.064-12.881-6.332-19.234-4.534-12.466-6.287-25.676-9.551-38.47-3.253-13.297-5.685-26.858-9.957-39.86m-43.88 26.344c-0.417 16.134-0.482 32.28-0.22 48.426 2.126-1.118 4.316-2.158 6.704-2.596-0.701-9.048-1.194-18.107-2.344-27.1-1.019-9.223-0.668-18.741-3.22-27.723-1.545 2.716-0.701 6.013-0.92 8.993m-179.58 28.808c-4.589 5.663-9.212 11.304-13.549 17.164-8.204 11.063-18.424 20.593-29.849 28.271-1.172 1.074-3.242 1.611-3.45 3.418 2.64 8.752 4.962 17.603 7.722 26.322 4.798 16.529 9.081 33.222 14.864 49.455 2.498-16.529 6.802-32.74 9.606-49.236 4.831-25.139 11.666-49.927 14.656-75.394m1.173 45.687c-5.543 19.498-9.048 39.499-13.693 59.216-2.015 8.971-2.946 18.249-6.287 26.88-3.319 6.901 2.771 13.55 3.111 20.483 4.469-11.687 7.032-23.988 8.182-36.41 3.166-23.364 5.499-46.815 8.687-70.169m117.43 90.894c-0.745 14.743-1.972 29.531-5.609 43.88-1.938 7.569-3.275 15.719-8.193 22.05-4.82 6.156-11.041 11.895-18.972 13.429-11.611 2.903-23.473 0.285-34.854-2.289 9.069 3.308 18.709 5.476 28.403 5.575 9.113-0.832 19.157-1.555 26.376-7.898 8.182-6.857 11.184-17.646 13.144-27.712 3.484-20.024 2.991-40.43 2.881-60.683-0.011-11.546-1.15-23.036-1.347-34.57-0.263 16.08-0.175 32.193-1.829 48.218m-113.41 3.658c-9.169 11.228-18.644 22.225-27.45 33.748-7.383 9.749-15.719 18.72-22.992 28.546-5.455 7.251-11.896 13.659-17.603 20.702-3.253 4.962-2.552 11.217-2.891 16.858 5.192 1.478 10.482 2.815 15.872 3.352 7.032-0.066 13.768-2.739 20.078-5.642 16.693-10.241 35.566-18.665 55.524-18.358 8.259-0.164 16.025 2.979 23.802 5.324 18.117 6.714 35.15 16.244 53.782 21.6 15.127 5.126 31.448 8.664 47.386 5.433 9.628-2.191 18.533-6.682 27.176-11.348 10.318-5.148 18.205-13.834 25.807-22.269 7.853-10.395 15.017-21.447 20.22-33.419-8.391 13.232-18.205 25.5-28.961 36.87-10.001 10.581-22.565 18.566-35.972 24.098-15.467 5.838-32.357 2.618-47.933-1.03-19.509-4.765-37.56-13.714-55.995-21.381-7.887-3.484-16.19-7.164-25.008-6.529-11.413-0.405-22.553 2.892-32.948 7.328-7.755 2.432-14.569 7.011-22.203 9.771-9.377 3.637-19.903 5.466-29.761 2.716-3.056-0.646-2.651-4.501-2.268-6.824 1.348-5.181 4.973-9.321 8.106-13.516 6.572-8.402 12.914-16.99 19.508-25.369 8.183-10.757 17.318-20.768 24.789-32.061 8.982-11.578 15.477-24.778 22.411-37.615-4.557 6.068-7.832 12.991-12.476 19.015m243.63 63.028c-10.582 5.761-20.889 12.005-31.525 17.668-5.137 2.607-10.68 4.644-15.072 8.489 17.482-5.05 32.773-15.379 49.587-22.072 9.442-3.713 18.796-8.105 29.016-9.135 9.924-1.994 19.892 0.515 29.641 2.311 4.918 0.953 9.606 2.793 14.196 4.776-6.529-6.934-16.135-9.902-25.26-11.545-17.372-3.177-35.095 1.709-50.583 9.508m11.358 14.261c9.651 3.242 18.885 7.854 27.549 13.199-11.545-2.377-22.137-9.518-34.285-8.861-9.245 1.095-16.912 6.955-24.591 11.731-4.283 3.122-9.803 5.17-12.159 10.275 10.111 8.708 23.244 12.925 36.334 14.579 25.817 3.867 52.501 5.97 78.253 0.57 6.079-1.03 11.457-4.283 15.882-8.479-2.76-7.612-8.083-13.911-13.626-19.661-8.062-7.975-18.687-12.827-29.608-15.467-14.371-3.943-29.673-2.147-43.749 2.114m-294.17 39.159c-1.15 2.684-3.79 6.2-0.975 8.752 7.778 8.117 19.399 10.012 30.057 11.272 20.845 2.059 42.04 0.142 62.283-5.159 4.633-1.03 8.774-3.549 12.279-6.693 3.625-3.264 7.415-6.671 9.387-11.228-0.438-2.004-2.092-3.417-3.439-4.819-4.864-4.634-10.494-8.818-16.88-10.998-10.34-0.712-18.95 6.211-28.469 9.048 5.74-4.568 12.192-8.106 18.26-12.191-2.585-2.224-6.123-2.772-9.168-4.097-26.344-10.187-59.752 1.019-73.335 26.113m239.58-9.967c6.113 9.759 17.68 14.349 28.513 16.594 16.266 3.166 32.521 7.011 49.149 7.712 15.598 1.249 31.327 1.084 46.86-0.942 5.476-0.581 10.822-2.476 15.554-5.269 2.212-2.881 1.621-6.704 1.993-10.088-3.1 3.012-6.758 5.488-10.921 6.769-13.462 4.108-27.69 3.867-41.612 4.075-17.614-0.285-35.326-1.358-52.589-5.061-12.684-2.355-24.196-8.664-35.095-15.324-0.46 0.384-1.391 1.15-1.852 1.534m-145.9 27.723c-20.56 6.014-42.292 7.734-63.619 6.343-11.72-0.986-24.394-3.133-33.014-11.863-0 4.096 0.109 9.256 4.195 11.545 11.008 6.452 24.164 6.857 36.563 7.525 15.817 0.372 31.645-1.303 47.134-4.568 8.872-1.676 17.953-4.129 25.226-9.716 4.677-3.297 9.366-8.116 9.398-14.195-8.883 4.578-16.047 12.224-25.883 14.929z"/><path d="m463.55 74.31c1.336-0.547 2.76-0.81 4.195-1.084-0.471 0.296-1.391 0.887-1.851 1.172-24.678 5.849-49.302 12.41-73.619 19.76-10.669 2.892-21.086 6.781-31.788 9.519 25.96-10.746 53.125-18.282 80.564-24.142 7.482-1.807 15.127-2.979 22.499-5.225z"/><path d="m483.22 101.76c2.629-0.339 5.247-0.778 7.908-0.876-1.61 1.15-3.494 1.785-5.323 2.442-0.865-0.514-1.731-1.04-2.585-1.566z"/><path d="m479.08 103.72c0.154-0.241 0.46-0.723 0.603-0.964 0.679-0.394 4.458-0.121 2.837 1.161-0.723 0.066-2.158 0.186-2.881 0.241l-0.559-0.438z"/><path d="m135.48 111.53c3.878 5.29 5.017 12.224 5.225 18.643-1.709-6.211-3.549-12.411-5.225-18.643z"/><path d="m106.4 126c2.575-3.33 6.54-6.671 11.042-5.653-3.79 1.687-7.438 3.604-11.042 5.653z"/><path d="m239.83 140.24c13.078-5.411 24.437-14.097 37.385-19.793-6.748 5.028-14.185 9.015-21.393 13.342-5.893 3.538-12.52 5.553-18.742 8.401 0.351-1.227 1.753-1.446 2.75-1.95z"/><path d="m234.77 153.55c14.612-11.03 32.27-16.88 48.941-24.054-4.611 3.001-9.738 5.06-14.612 7.569-11.501 5.367-22.499 11.863-34.329 16.485z"/><path d="m133.4 131.4c2.991 6.254 4.984 13.035 5.718 19.946-1.95-2.18-2.147-5.214-3.111-7.853-1.336-3.922-2.278-7.975-2.607-12.093z"/><path d="m100.49 195.54c6.299-4.261 11.797-9.584 18.249-13.626 1.479 10.756 8.675 19.848 10.319 30.582-1.129-3.308-2.673-6.451-4.491-9.431-3.473-5.75-5.883-12.038-8.906-18.007-0.723 0.569-2.147 1.697-2.87 2.256 5.521 11.206 10.56 22.652 16.803 33.485 4.984 8.577 9.267 17.548 12.926 26.738-9.848-16.715-19.071-33.814-28.053-51.033-1.237-2.585-2.935-5.028-3.341-7.919-2.3 2.716-4.633 5.63-7.919 7.207 4.929 9.475 7.81 19.815 11.633 29.75 5.717 11.819 9.989 24.942 19.837 34.132 1.007 1.49 2.782 1.654 4.436 1.741 0.12-5.575-3.56-10.132-5.203-15.247 3.648 4.184 5.926 9.343 8.544 14.196 10.373-5.762 21.458-10.702 33.277-12.487 1.566 0.065 2.979 0.745 4.283 1.599-14.558 2.245-28.359 8.949-39.565 18.369-1.281-0.328-2.519-0.777-3.713-1.347-2.015 1.709-3.702 3.899-6.265 4.841-8.336-13.648-13.539-28.873-20.385-43.266-4.163-9.267-8.325-18.534-12.301-27.877-1.435-2.29 1.325-3.44 2.705-4.656z"/><path d="m180.32 229.42c-5.236-14.623-10.735-29.235-14.317-44.373 6.255 15.368 12.969 30.604 17.668 46.553 1.49 4.786 5.181 8.324 7.788 12.487-2.07-5.378-3.494-10.998-4.556-16.661 2.037 4.853 4.819 9.388 6.451 14.415 0.855 2.574 2.279 4.886 3.615 7.241-5.51-0.844-11.085-1.161-16.529 0.306-1.544-8.051-3.352-16.047-5.915-23.835 3.648 6.485 5.214 13.889 8.829 20.385 1.5 0.898 3.384 0.35 5.049 0.559-2.848-5.609-6.024-11.107-8.083-17.077z"/><path d="m140.81 204.35c2.87 4.403 3.746 9.661 5.214 14.612 2.563 8.61 3.855 17.581 6.78 26.081-0.197-0.121-0.581-0.373-0.778-0.493-1.106-6.737-4.973-12.531-6.506-19.136-1.917-6.934-4.305-13.835-4.71-21.064z"/><path d="m553.37 244.4c7.109 2.29 15.642 2.334 20.867 8.468 4.107 3.998 3.888 10.176 2.727 15.357-0.219-6.091-3.834-11.644-8.412-15.467-4.721-3.33-9.76-6.309-15.182-8.358z"/><path d="m637.46 259.2c4.086-1.49 8.423 0.033 12.509 0.821-4.096 0.537-8.368 0.318-12.235 1.983-3.691 1.479-6.057 5.137-9.88 6.353 1.621-4.305 5.137-7.876 9.606-9.157z"/><path d="m532.95 265.58c6.715-2.081 14.372-1.293 20.341 2.508 5.116 3.012 8.456 8.139 11.392 13.145 2.377 3.987 3.67 8.576 3.746 13.221 0.252 8.445 0.395 16.967-0.865 25.346-1.139 8.457-4.765 16.387-9.081 23.671-10.263 18.632-35.621 27.658-55.075 18.578-7.58-3.374-14.108-9.705-16.463-17.8-4.962-14.218-0.559-29.619 5.488-42.774 4.83-11.173 13.955-19.673 23.441-26.935 5.389-3.483 10.909-7.021 17.076-8.96z"/><path d="m644.67 274.37c6.298-1.501 13.089-0.154 18.446 3.461 7.645 4.48 12.509 12.608 14.283 21.141 1.917 12.728-2.957 25.423-0.701 38.14 0.34 2.213 1.457 4.349 1.282 6.638-3.232 5.619-6.332 11.753-12.104 15.204-7.251 4.907-16.54 2.245-23.978-0.789-10.942-4.579-16.66-16.31-18.566-27.406-1.84-13.856-1.052-28.556 5.258-41.251 3.198-6.792 8.642-13.046 16.08-15.138z"/><path d="m469.68 293.21c0-1.479 0.208-2.936 0.624-4.349-0.032 1.589-0.109 3.177-0.186 4.776l-1.424-0.175c0.756 4.359-0.723 8.642-0.832 12.991-1.117 11.381 1.303 23.09-1.862 34.23-1.556 0.679-3.111 1.325-4.667 1.95 1.074-3.604 2.881-7.087 2.914-10.921 0.329-10.625-1.314-21.305 0.373-31.864 0.492-2.552 1.993-4.71 3.242-6.923 0.46 0.066 1.369 0.219 1.818 0.285z"/><path d="m192.08 311.88c4.217 7.963 6.824 16.77 8.456 25.61-2.333-1.753-2.596-4.897-3.582-7.438-1.676-6.035-3.987-11.939-4.874-18.172z"/><path d="m592.51 330.26c1.282-1.391 3.078-3.461 5.149-2.278 3.154 0.854 3.8 4.469 4.852 7.098-3.078-0.537-4.053-4.206-6.441-5.915-1.183 0.383-2.366 0.745-3.56 1.095z"/><path d="m206.78 341.25c1.117 1.719 2.026 3.56 2.782 5.476 3.636 11.173 7.481 22.346 9.278 34.012-5.784-12.455-8.095-26.333-12.06-39.488z"/><path d="m594.42 346.78c4.316-2.322 9.585 0.132 12.422 3.67 5.279 6.725 9.31 14.404 12.465 22.334 1.599 3.965 1.862 10.264-2.925 12.093-5.455 1.457-11.972-1.774-13.648-7.284-2.114-6.353-3.308-12.991-4.655-19.541-0.603 0.668-1.249 1.38-1.205 2.344-0.8 6.868-0.154 14.163-3.188 20.56-2.42 5.301-8.456 8.467-14.174 8.018-2.782-0.362-4.491-3.056-4.48-5.707-0.033-7.799 3.714-14.831 6.89-21.721 3.034-5.696 6.583-11.688 12.498-14.766z"/><path d="m480.63 357.4c1.139-1.566 3.22-0.975 4.787-0.514 4.436 1.193 7.886 4.666 10.055 8.598-4.699-3.111-9.442-6.309-14.842-8.084z"/><path d="m678.9 365.1c1.029-1.369 1.676-3.111 3.242-3.976-0.197 2.267-0.252 4.874-2.026 6.561-2.334 2.103-5.488 2.815-8.511 3.154 2.563-1.719 5.422-3.198 7.295-5.739z"/><path d="m628.06 363.67c3.494 3.1 7.766 5.915 9.617 10.351-3.943-2.421-8.938-5.367-9.617-10.351z"/><path d="m554.25 370.98c1.446-1.687 2.618-3.582 3.955-5.356-0.132 6.506-5.861 13.232-12.685 12.125 2.399-2.892 6.244-3.976 8.73-6.769z"/><path d="m448.71 370.87c1.895 6.43 4.173 13.21 9.913 17.285 11.03 7.909 25.401 6.956 38.141 5.039 5.925-1.271 12.005-1.556 17.974-2.585 4.031-0.603 8.183-1.654 12.258-0.636-9.585 2.991-19.564 4.261-29.422 5.926-10.494 1.49-21.502 3.374-31.787-0.208-10.625-2.749-18.337-13.988-17.077-24.821z"/><path d="m680.51 381.29c1.983-0.701 2.234-2.902 3.034-4.556-0.723 3.987-3.045 7.689-7.032 9.036-11.6 5.959-24.909-2.015-36.717 2.739 6.2-5.061 14.601-3.396 21.962-3.374 6.452 0.438 12.958-1.041 18.753-3.845z"/><path d="m198.04 491.68c-0.176-2.004 0.525-3.91 1.84-5.4-0.154 3.757-0.384 7.777 1.511 11.184 2.498 2.869 6.814 2.563 10.275 2.486-3.516 1.807-7.47 1.095-11.107 0.077-0.011 4.458 5.553 4.042 8.653 3.45 6.901-3.472 13.922-7.174 21.612-8.511l0.558-1.971c0.033 1.117 0.055 2.256 0.099 3.395-2.202-0.767-4.206 0.526-6.167 1.282-4.83 2.015-9.42 4.6-14.305 6.484-3.056 0.679-6.331 0.395-9.344-0.339-2.629-3.418-3.352-7.931-3.625-12.137z"/><path d="m259.02 512.42c3.001 1.413 2.979 5.477 5.827 7.065-2.092-0.131-2.147 2.355-3.242 3.582-1.72 1.687-4.064 2.498-6.2 3.538 2.355-1.774 5.148-3.428 5.86-6.517 1.052-2.826-0.876-5.389-2.245-7.668z"/><path d="m835 522.17c-2.278-1.227-2.541-3.856-0.898-5.696-0.854 4.579 4.217 5.795 7.383 7.295 6.879 2.52 14.174-0.055 21.009-1.435-3.582 3.374-8.774 3.516-13.375 4.097-5.104 0.668-9.715-2.147-14.119-4.261z"/><path d="m832.27 545.6c-1.928-1.731-1.216-4.557-1.545-6.835 0.844 2.716 1.534 6.002 4.338 7.415 3.976 2.169 8.522 2.903 12.859 4.064-5.476 0.022-11.38-0.975-15.652-4.644z"/><path d="m546.27 552.89c0.23-0.372 0.668-1.117 0.898-1.49 2.289 1.194 4.524 2.892 7.219 2.991 2.935 0.175 4.666-2.684 7.306-3.451-0.712 2.169-1.446 4.71-3.801 5.62-4.064 2.355-9.453 0.306-11.622-3.67z"/><path d="m825.17 556.39c0.131 5.433 5.006 9.147 9.628 11.009 4.721 1.325 9.705 0.58 14.535 0.339-4.6 3.023-10.625 2.596-15.444 0.351-3.33-1.567-6.912-3.188-9.048-6.321-1.511-1.566 0.066-3.636 0.329-5.378z"/><path d="m214.52 560.26c1.281 0.526 2.453 1.249 3.516 2.147 3.056 0.153 6.112-0.077 9.179-0.154-3.165 1.633-6.791 1.545-10.242 1.884-0.843-1.27-1.686-2.574-2.453-3.877z"/><path d="m268.98 560.21c2.257 1.775 3.221 5.466 0.953 7.635-3.91 4.107-9.858 4.524-14.765 6.824 3.746-2.837 8.588-3.527 12.41-6.189 2.826-1.851 1.293-5.532 1.402-8.27z"/><path d="m231.07 582c7.755 0.58 14.875-2.837 21.71-6.014l0.23 0.658c-6.977 2.804-13.747 7.853-21.688 6.484-2.027-0.832-4.82-1.972-4.272-4.699 1.763 0.668 4.239 1.041 4.02 3.571z"/><path d="m819.32 577.65c5.279 2.454 10.603 5.159 16.485 5.795 1.939 0.569 4.578 0.076 5.816 2.037-7.908-0.843-16.124-2.443-22.301-7.832z"/><path d="m294.22 632.89c4.491 11.391 8.072 23.09 11.118 34.953-3.856-6.89-5.51-14.678-8.161-22.039-1.588-4.152-2.508-8.511-2.957-12.914z"/><path d="m289.58 665.77c3.648 8.851 6.134 18.118 8.489 27.384 0.767 2.607 0.756 5.335 0.625 8.029-2.783-8.456-5.181-17.021-7.569-25.598-0.866-3.21-1.665-6.474-1.545-9.815z"/><path d="m311.58 698.47c3.56 11.929 6.298 24.098 8.161 36.399-2.684-7.58-4.809-15.346-6.814-23.123-0.854-4.36-1.971-8.807-1.347-13.276z"/><path d="m308.17 728.32c-2.257-8.369-4.524-16.737-6.321-25.216 4.338 9.793 6.091 20.495 8.621 30.846-0.964-1.797-1.808-3.659-2.3-5.63z"/></g><g fill="#fefefe" fill-rule="nonzero"><path d="m451.52 40.639c46.148-11.622 93.621-18.326 141.24-18.972 49.828-0.668 99.985 7.449 146.48 25.61 42.796 16.682 82.218 41.514 116.88 71.571 23.561 21.097 44.965 44.789 62.195 71.352 3.932 5.641 7.284 11.622 10.362 17.756-12.958-11.48-26.738-21.973-39.685-33.453-13.583-11.917-28.074-22.794-43.442-32.291-15.357-10.209-31.426-19.344-48.087-27.231-17.274-7.865-34.438-16.058-52.337-22.411-22.498-8.61-45.676-15.247-69.051-20.976-24.044-5.773-48.744-8.413-73.423-9.366-21.206 0.285-42.675-1.226-63.64 2.695 4.348 0.033 8.686-0.405 13.013-0.745 41.481-0.613 83.368 1.117 123.82 10.998 44.986 11.654 88.812 27.778 130.6 48.097 9.968 5.302 20.177 10.242 29.476 16.682 11.973 7.602 24.087 15.062 35.063 24.088-13.024-8.051-26.519-15.336-40.299-21.995-17.701-8.281-35.5-16.464-54.012-22.806-24.876-8.85-50.277-16.617-76.391-20.79-17.055-3.209-34.372-4.787-51.668-5.772-50.956-1.238-102.07 1.522-152.44 9.485-1.632 0.636-2.749-0.953-4.075-1.555 0.537 0.515 1.632 1.533 2.18 2.048-5.159 0.844-10.428 1.26-15.445 2.75-1.862 0.953-3.943 0.613-5.882 0.175 1.687-0.197 3.385-0.208 5.094-0.033-0.011-1.161-0.011-2.322 0.022-3.483l-1.074 1.358c-27.428 4.951-54.429 11.961-81.385 18.994-14.865 4.184-29.871 7.93-44.538 12.815-11.359 4.283-22.849 8.216-34.033 12.97-19.432 8.248-39.334 15.422-58.372 24.591-15.401 7.043-30.791 14.163-45.874 21.819 4.94-4.578 10.012-9.113 15.664-12.805 3.538-2.212 7.131-4.534 11.37-5.06l-0.033-0.515c-3.637 0.602-6.89 2.344-10.023 4.195-2.201 0.997-4.414 1.972-6.572 3.045-1.566 1.446-3.165 2.881-5.049 3.911 1.632-2.87 4.797-4.305 6.714-6.934-8.971 2.388-15.883 9.409-24.876 11.841l0.165 0.832c-0.734-0.032-2.202-0.098-2.936-0.142 11.764-9.343 25.018-16.901 38.732-23.003-1.906 0.044-3.845 0.198-5.575 1.074-10.636 4.535-20.418 10.767-30.539 16.277-3.023 1.698-6.156 4.469-9.869 3.659 2.355-5.291 8.27-7.241 12.29-10.943 3.965-3.483 9.267-5.126 12.827-9.114-9.256 3.9-17.844 9.267-27.045 13.2 2.684-3.955 1.238-9.881 5.455-12.751 3.943-3.68 8.883-6.331 12.147-10.701-7.733 2.826-13.253 9.957-21.523 11.709 0.996-1.709 1.675-3.691 3.231-4.995 7.032-5.816 14.36-11.282 22.115-16.102 9.837-6.9 21.097-11.523 30.671-18.785-19.312 8.883-37.517 19.968-56.05 30.342-0.548-2.268-2.596-4.798-1.632-7.055 5.049-2.979 10.417-5.422 15.192-8.883 33.157-19.64 67.771-36.651 102.74-52.797 48.831-21.841 99.185-40.605 151.15-53.475m12.027 33.671c-7.372 2.246-15.017 3.418-22.499 5.225-27.439 5.86-54.604 13.396-80.564 24.142 10.702-2.738 21.119-6.627 31.788-9.519 24.317-7.35 48.941-13.911 73.619-19.76 0.46-0.285 1.38-0.876 1.851-1.172-1.435 0.274-2.859 0.537-4.195 1.084m19.673 27.45c0.854 0.526 1.72 1.052 2.585 1.566 1.829-0.657 3.713-1.292 5.323-2.442-2.661 0.098-5.279 0.537-7.908 0.876m-4.141 1.961 0.559 0.438c0.723-0.055 2.158-0.175 2.881-0.241 1.621-1.282-2.158-1.555-2.837-1.161-0.143 0.241-0.449 0.723-0.603 0.964m-239.25 36.519c-0.997 0.504-2.399 0.723-2.75 1.95 6.222-2.848 12.849-4.863 18.742-8.401 7.208-4.327 14.645-8.314 21.393-13.342-12.948 5.696-24.307 14.382-37.385 19.793m-5.061 13.309c11.83-4.622 22.828-11.118 34.329-16.485 4.874-2.509 10.001-4.568 14.612-7.569-16.671 7.174-34.329 13.024-48.941 24.054z"/><path d="m108.54 114.87c10.702-8.709 27.133-8.829 38.404-1.249 3.866 8.675 5.816 18.314 4.995 27.822-1.632-8.697-4.305-17.175-7.23-25.522-0.241 1.862-0.361 3.757 0.176 5.587 1.993 8.762 2.311 17.876 5.203 26.442-2.969 1.906-6.354 2.924-9.508 4.425-3.944 2.202-7.887 4.469-12.148 6.003-1.446 0.021-1.906-1.72-2.651-2.662-2.497-5.258-5.871-10.034-9.409-14.634 2.344 6.649 5.083 13.254 6.353 20.209-2.65-2.344-3.516-6.002-5.696-8.73-4.699-6.572-8.302-14.251-14.754-19.333 4.097 5.532 6.736 11.994 10.943 17.471 1.818 2.968 4.841 5.51 5.06 9.19-0.602-0.843-1.183-1.709-1.741-2.585-3.955-4.502-7.548-9.3-11.359-13.922-3.254-4.053-5.269-9.157-9.432-12.411 0.493 6.124 3.517 11.589 5.444 17.329 2.476 7.01 7.569 12.86 9.541 20.078-7.865-7.722-13.582-17.285-19.443-26.53-1.018-1.873-4.534-3.724-2.333-5.969 6.233-7.241 11.753-15.346 19.585-21.009m26.935-3.341c1.676 6.232 3.516 12.432 5.225 18.643-0.208-6.419-1.347-13.353-5.225-18.643m-29.082 14.47c3.604-2.049 7.252-3.966 11.042-5.653-4.502-1.018-8.467 2.323-11.042 5.653m27.001 5.4c0.329 4.118 1.271 8.171 2.607 12.093 0.964 2.639 1.161 5.673 3.111 7.853-0.734-6.911-2.727-13.692-5.718-19.946z"/><path d="m456.91 109.26c3.713-0.887 7.449-1.895 11.315-1.796-66.302 15.379-130.46 38.951-192.9 65.82-20.265 9.147-40.595 18.173-60.476 28.118-6.517 2.443-11.994 7.372-18.927 8.676 0.657-0.898 1.456-1.621 2.409-2.18 19.016-10.165 38.24-20.012 58.044-28.6 7.613-2.684 14.524-6.967 22.148-9.617 6.846-3.111 13.867-5.795 20.834-8.643 24.218-10.471 49.456-18.446 74.123-27.8 27.724-8.292 55.119-17.822 83.434-23.978z"/><path d="m153.42 153.16c5.718-2.761 11.502-5.433 17.559-7.394 1.742 18.555 6.901 36.563 12.17 54.374 3.231 10.866 5.772 21.962 9.978 32.521 1.884 7.153 5.214 13.824 7.317 20.9-4.337 0.076-8.675-0.088-13.002 0.197-16.244 2.3-31.908 8.818-44.833 18.972-4.425 2.782-7.591 6.966-11.096 10.756-4.305-6.233-7.01-13.341-10.636-19.936-5.258-9.759-9.519-20.001-13.341-30.407-4.338-9.398-7.098-19.771-13.988-27.767-1.742-1.873-3.505-3.736-4.754-5.981 4.075-5.083 8.511-9.869 13.363-14.207 7.526-7.744 16.88-13.341 26.169-18.687 7.963-5.159 16.364-9.628 25.094-13.341m-52.928 42.39c-1.38 1.216-4.14 2.366-2.705 4.656 3.976 9.343 8.138 18.61 12.301 27.877 6.846 14.393 12.049 29.618 20.385 43.266 2.563-0.942 4.25-3.132 6.265-4.841 1.194 0.57 2.432 1.019 3.713 1.347 11.206-9.42 25.007-16.124 39.565-18.369-1.304-0.854-2.717-1.534-4.283-1.599-11.819 1.785-22.904 6.725-33.277 12.487-2.618-4.853-4.896-10.012-8.544-14.196 1.643 5.115 5.323 9.672 5.203 15.247-1.654-0.087-3.429-0.251-4.436-1.741-9.848-9.19-14.12-22.313-19.837-34.132-3.823-9.935-6.704-20.275-11.633-29.75 3.286-1.577 5.619-4.491 7.919-7.207 0.406 2.891 2.104 5.334 3.341 7.919 8.982 17.219 18.205 34.318 28.053 51.033-3.659-9.19-7.942-18.161-12.926-26.738-6.243-10.833-11.282-22.279-16.803-33.485 0.723-0.559 2.147-1.687 2.87-2.256 3.023 5.969 5.433 12.257 8.906 18.007 1.818 2.98 3.362 6.123 4.491 9.431-1.644-10.734-8.84-19.826-10.319-30.582-6.452 4.042-11.95 9.365-18.249 13.626m79.831 33.88c2.059 5.97 5.235 11.468 8.083 17.077-1.665-0.209-3.549 0.339-5.049-0.559-3.615-6.496-5.181-13.9-8.829-20.385 2.563 7.788 4.371 15.784 5.915 23.835 5.444-1.467 11.019-1.15 16.529-0.306-1.336-2.355-2.76-4.667-3.615-7.241-1.632-5.027-4.414-9.562-6.451-14.415 1.062 5.663 2.486 11.283 4.556 16.661-2.607-4.163-6.298-7.701-7.788-12.487-4.699-15.949-11.413-31.185-17.668-46.553 3.582 15.138 9.081 29.75 14.317 44.373m-39.51-25.073c0.405 7.229 2.793 14.13 4.71 21.064 1.533 6.605 5.4 12.399 6.506 19.136 0.197 0.12 0.581 0.372 0.778 0.493-2.925-8.5-4.217-17.471-6.78-26.081-1.468-4.951-2.344-10.209-5.214-14.612z"/><path d="m487.12 166.02c6.058-3.133 11.392-7.624 17.866-9.913 6.649-0.723 13.243 0.887 19.881 1.128 10 1.775 20.187 2.542 30.013 5.214 16.058 3.177 31.973 7.098 47.747 11.469 9.31 2.333 18.927 3.768 27.92 7.109 6.583 5.049 12.06 11.435 18.819 16.299 7.766 5.663 14.491 12.531 21.294 19.267 2.398 3.746 3.33 8.237 5.181 12.268 6.199 14.536 13.714 28.491 19.059 43.399 7.317 21.786 13.155 44.187 15.598 67.08 3.001 24.109 6.244 48.185 8.785 72.349 0.022 2.07 0.438 4.403-0.909 6.177-7.219 10.899-15.324 21.152-23.08 31.656-4.896 6.836-10.438 13.243-14.48 20.648-2.366 5.126-8.709 5.455-13.243 7.635-7.942 3.341-16.157 5.816-24.35 8.423-8.917 3.954-18.775 5.367-27.362 10.088-6.452 3.374-13.232 6.124-19.465 9.903-11.25 7.963-20.242 18.621-28.852 29.279 4.59-13.232 14.338-24.558 26.168-31.919 9.103-4.349 18.063-8.993 27.132-13.408 10.757-4.041 21.426-8.324 31.952-12.936 6.167-2.574 13.156-4.392 17.625-9.727 12.892-16.091 25.894-32.149 36.859-49.653 1.61-2.541 3.351-5.005 5.257-7.338 0.121-6.288-1.183-12.488-1.292-18.775-2.465-19.432-2.607-39.072-5.313-58.471-0.854-4.14-1.139-8.357-1.325-12.563-0.92-3.21-0.811-6.551-1.03-9.837-1.391-3.56-1.544-7.437-2.201-11.173-2.991-10.438-5.937-20.877-8.884-31.327-5.794-14.963-15.532-28.063-21.348-43.037-1.271-3.111-1.753-6.802-4.437-9.102-7.043-6.518-14.152-13.035-22.093-18.457-7.624-5.313-14.919-12.246-24.482-13.594-14.601-2.497-29.64-5.75-44.351-2.256-8.423 1.511-16.277 5.006-24.284 7.876-15.302 5.487-29.904 12.728-44.209 20.406-9.015 5.302-18.742 9.979-25.675 18.063-9.892 11.326-19.772 23.211-24.821 37.604-6.31 13.254-9.475 27.647-14.317 41.437-11.654 33.486-17.558 68.953-17.613 104.4 0.405 12.893 2.267 25.698 4.71 38.36 0.526 2.673 2.979 4.261 4.732 6.123 15.915 15.259 37.001 22.97 56.663 32.04 10.143 3.68 19.027 9.858 27.844 15.937 3.856 2.815 6.079 7.175 8.818 10.965 4.798 6.846 9.321 14.141 11.271 22.356-5.904-7.875-11.315-16.124-17.515-23.769-5.378-6.978-13.648-10.592-20.68-15.565-9.541-6.649-20.889-9.651-31.328-14.514-16.485-6.78-32.05-15.642-46.914-25.412-1.139-9.267-1.424-18.589-1.468-27.921-0.953-8.369-0.559-16.781-0.876-25.172-0.154-10.603-0.526-21.326 1.533-31.787 2.312-16.705 6.266-33.157 11.107-49.303 4.557-16.003 12.268-30.922 16.442-47.056 4.294-11.918 7.514-24.679 15.707-34.669 7.569-8.85 15.105-17.931 24.756-24.602 21.994-14.196 45.479-26.157 70.037-35.227 7.92-3.143 15.96-6.177 24.197-8.379-0.143-0.383-0.406-1.128-0.537-1.501-9.026-0.306-17.833-2.585-26.738-3.888-14.568-2.87-29.224-5.225-43.957-7.022-13.33 4.535-24.777 13.145-36.705 20.407-15.62 9.946-31.722 19.147-47.003 29.619-10.986 7.996-22.148 15.751-32.992 23.933-2.585 2.147-5.597 4.207-6.89 7.438-7.919 22.192-7.963 46.027-10.198 69.205-0.328 18.906-1.621 37.768-1.665 56.685-1.161 11.009-0.602 22.302-3.921 33.004-2.519 9.77-6.167 19.267-7.919 29.235-0.712 7.974 1.259 16.156 4.797 23.254 6.32 7.569 16.058 10.976 24.263 16.048-3.287-1.359-6.474-2.925-9.749-4.272-5.444-1.567-10.516-4.36-14.853-7.964-4.94-7.065-6.66-15.729-9.727-23.66-1.347-3.866-3.779-7.963-2.016-12.114 5.51-15.171 8.632-31.065 11.359-46.937 3.188-20.297 5.784-40.747 6.058-61.318 1.117-14.59 0.723-29.246 1.435-43.848 0.416-9.967 1.829-19.848 2.848-29.761 0.054-2.026 1.226-3.801 2.65-5.159 13.933-12.257 30.835-20.275 46.006-30.802 19.771-12.585 38.688-26.453 58.678-38.677z"/><path d="m459.03 216.66c13.627-8.719 28.523-15.149 42.719-22.838-7.229 4.315-14.075 9.212-21.085 13.845-15.182 8.719-30.758 16.77-45.48 26.256 7.788-5.959 15.598-11.929 23.846-17.263z"/><path d="m553.34 206.38c8.719-2.147 17.132-5.728 26.146-6.55 18.381-0.12 37.593 2.793 53.257 13.046 3.845 2.256 7.273 5.104 10.669 7.974 8.642 6.759 14.207 16.606 18.271 26.628 2.267 4.941 3.801 10.33 7.251 14.645 3.374 4.579 7.711 8.391 10.614 13.32 4.666 6.868 6.178 15.313 6.43 23.474 0.12 6.517 0.471 13.122-0.778 19.574-1.095 6.879-2.421 13.802-1.993 20.801 0.284 6.66 4.129 12.345 5.706 18.687 1.643 6.178 2.443 12.98 0.515 19.18-4.053 8.85-13.714 13.67-23.002 14.809-9.892 0.602-19.728-4.721-29.499-1.216-0.076-5.783-1.741-11.6-5.192-16.277 0.121 3.779 2.071 7.175 2.52 10.888 0.098 5.992-1.917 11.731-2.542 17.646-0.284 3.319 0.34 6.638 0.691 9.946-2.06 1.205-3.845 2.793-5.335 4.656-2.202-1.238-4.327-3.199-6.999-3.013-2.531-0.022-4.371 1.895-6.299 3.221-4.436-5.094-13.177-4.25-16.649 1.489-2.903-2.19-5.948-5.115-9.891-4.633-4.283 0.624-7.098 4.272-10.275 6.846-4.075-6.156-14.557-6.068-19.147-0.559-3.713-5.246-10.559-3.483-15.324-0.832-0.602-1.676-2.278-3.221-1.873-5.083 3.166-8.533-3.089-19.76-12.531-20.319-5.192-0.788-10.22 1.096-15.313 1.676-15.248 2.246-30.791 6.967-46.214 3.374-10.679-2.191-20.001-10.603-22.564-21.283-0.997-6.397-2.136-13.341 0.854-19.399 2.487-6.189 7.887-10.34 12.717-14.623 2.739-4.031 2.344-9.157 2.476-13.802 0.252-10.329-3.878-20.516-1.687-30.823 0.767-4.798 2.717-9.278 4.195-13.878 3.122-11.118 6.912-22.192 12.893-32.138 2.902-4.962 5.783-10.1 9.957-14.131 4.042-3.384 8.828-5.739 13.188-8.686 9.256-6.112 19.716-9.979 29.651-14.787 8.172-3.746 16.54-7.098 25.106-9.848m0.033 38.02c5.422 2.049 10.461 5.028 15.182 8.358 4.578 3.823 8.193 9.376 8.412 15.467 1.161-5.181 1.38-11.359-2.727-15.357-5.225-6.134-13.758-6.178-20.867-8.468m84.091 14.799c-4.469 1.281-7.985 4.852-9.606 9.157 3.823-1.216 6.189-4.874 9.88-6.353 3.867-1.665 8.139-1.446 12.235-1.983-4.086-0.788-8.423-2.311-12.509-0.821m-104.51 6.386c-6.167 1.939-11.687 5.477-17.076 8.96-9.486 7.262-18.611 15.762-23.441 26.935-6.047 13.155-10.45 28.556-5.488 42.774 2.355 8.095 8.883 14.426 16.463 17.8 19.454 9.08 44.812 0.054 55.075-18.578 4.316-7.284 7.942-15.214 9.081-23.671 1.26-8.379 1.117-16.901 0.865-25.346-0.076-4.645-1.369-9.234-3.746-13.221-2.936-5.006-6.276-10.133-11.392-13.145-5.969-3.801-13.626-4.589-20.341-2.508m111.72 8.785c-7.438 2.092-12.882 8.346-16.08 15.138-6.31 12.695-7.098 27.395-5.258 41.251 1.906 11.096 7.624 22.827 18.566 27.406 7.438 3.034 16.727 5.696 23.978 0.789 5.772-3.451 8.872-9.585 12.104-15.204 0.175-2.289-0.942-4.425-1.282-6.638-2.256-12.717 2.618-25.412 0.701-38.14-1.774-8.533-6.638-16.661-14.283-21.141-5.357-3.615-12.148-4.962-18.446-3.461m-174.98 18.84c-0.449-0.066-1.358-0.219-1.818-0.285-1.249 2.213-2.75 4.371-3.242 6.923-1.687 10.559-0.044 21.239-0.373 31.864-0.033 3.834-1.84 7.317-2.914 10.921 1.556-0.625 3.111-1.271 4.667-1.95 3.165-11.14 0.745-22.849 1.862-34.23 0.109-4.349 1.588-8.632 0.832-12.991l1.424 0.175c0.077-1.599 0.154-3.187 0.186-4.776-0.416 1.413-0.624 2.87-0.624 4.349m122.82 37.056c1.194-0.35 2.377-0.712 3.56-1.095 2.388 1.709 3.363 5.378 6.441 5.915-1.052-2.629-1.698-6.244-4.852-7.098-2.071-1.183-3.867 0.887-5.149 2.278m1.917 16.518c-5.915 3.078-9.464 9.07-12.498 14.766-3.176 6.89-6.923 13.922-6.89 21.721-0.011 2.651 1.698 5.345 4.48 5.707 5.718 0.449 11.754-2.717 14.174-8.018 3.034-6.397 2.388-13.692 3.188-20.56-0.044-0.964 0.602-1.676 1.205-2.344 1.347 6.55 2.541 13.188 4.655 19.541 1.676 5.51 8.193 8.741 13.648 7.284 4.787-1.829 4.524-8.128 2.925-12.093-3.155-7.93-7.186-15.609-12.465-22.334-2.837-3.538-8.106-5.992-12.422-3.67m-113.8 10.614c5.4 1.775 10.143 4.973 14.842 8.084-2.169-3.932-5.619-7.405-10.055-8.598-1.567-0.461-3.648-1.052-4.787 0.514m198.27 7.701c-1.873 2.541-4.732 4.02-7.295 5.739 3.023-0.339 6.177-1.051 8.511-3.154 1.774-1.687 1.829-4.294 2.026-6.561-1.566 0.865-2.213 2.607-3.242 3.976m-50.836-1.424c0.679 4.984 5.674 7.93 9.617 10.351-1.851-4.436-6.123-7.251-9.617-10.351m-73.817 7.306c-2.486 2.793-6.331 3.877-8.73 6.769 6.824 1.107 12.553-5.619 12.685-12.125-1.337 1.774-2.509 3.669-3.955 5.356m-105.54-0.11c-1.26 10.833 6.452 22.072 17.077 24.821 10.285 3.582 21.293 1.698 31.787 0.208 9.858-1.665 19.837-2.935 29.422-5.926-4.075-1.018-8.227 0.033-12.258 0.636-5.969 1.029-12.049 1.314-17.974 2.585-12.74 1.917-27.111 2.87-38.141-5.039-5.74-4.075-8.018-10.855-9.913-17.285m231.8 10.417c-5.795 2.804-12.301 4.283-18.753 3.845-7.361-0.022-15.762-1.687-21.962 3.374 11.808-4.754 25.117 3.22 36.717-2.739 3.987-1.347 6.309-5.049 7.032-9.036-0.8 1.654-1.051 3.855-3.034 4.556z"/><path d="m185.84 269.41c2.531 5.049 6.463 9.288 8.489 14.612 3.998 9.781 5.97 20.209 9.059 30.287 4.381 14.207 8.248 28.556 12.323 42.85 5.082 14.667 8.39 29.86 13.155 44.626 4.458 15.773 9.004 31.524 13.9 47.166 1.621 6.068 4.13 11.95 4.721 18.271-0.755-0.559-1.478-1.161-2.158-1.786-4.458-8.982-5.356-19.136-8.467-28.589-2.563-9.53-6.167-18.753-8.39-28.37 0.975 10.516 4.962 20.429 7.054 30.725 1.676 8.905 3.801 17.712 5.543 26.607-1.545-0.307-3.363 0.054-4.732-0.811-4.02-9.793-4.634-20.637-8.062-30.572 1.226 10.844 3.165 21.59 5.433 32.259-0.909 0.098-2.75 0.296-3.67 0.405-3.593-7.065-5.247-14.864-7.854-22.301-2.322-9.147-6.166-17.822-8.313-27.023-4.842-20.889-12.816-40.835-19.783-61.067-1.303-3.352-1.906-7.163-4.37-9.913 6.912 24.46 16.047 48.251 23.2 72.645 4.009 16.178 10.088 31.831 12.246 48.437-0.712 0.219-2.147 0.657-2.87 0.876-1.052-5.959-2.377-11.852-4.064-17.657-4.578-17.986-9.639-35.862-15.203-53.563-2.575-11.568-7.12-22.554-10.297-33.935-4.349-12.586-8.292-25.314-13.626-37.527-2.147-4.644-4.163-9.344-5.992-14.119-3.264-7.755-7.788-15.04-10.066-23.189 3.45 2.727 4.743 7.273 6.813 11.03 7.854 15.149 14.382 31.076 24.12 45.184-1.479-6.287-5.072-11.797-7.613-17.668-5.63-10.253-9.398-21.338-13.714-32.149-1.742-5.138-5.367-10.472-3.91-16.047 1.555 0.142 1.96 1.818 2.749 2.87 2.486 4.348 4.82 8.85 8.292 12.53 3.056 3.188 4.929 7.219 7.317 10.877-2.048-6.221-2.749-12.87-5.729-18.763-1.446-3.987-4.217-7.569-4.589-11.874 4.994 9.815 9.803 19.728 14.349 29.717-2.016-4.808-2.498-10.055-4.338-14.908-1.873-5.433-3.319-11.019-4.425-16.627 1.829 0.81 0.909 3.187 1.961 4.6 3.592 7.033 7.339 14.35 7.974 22.368 0.12 0.81 0.526 1.478 1.205 2.004 0.098-1.796 0.35-3.779-0.909-5.258-1.063-9.299-3.341-18.5-6.759-27.23m6.233 42.478c0.887 6.233 3.198 12.137 4.874 18.172 0.986 2.541 1.249 5.685 3.582 7.438-1.632-8.84-4.239-17.647-8.456-25.61m14.7 29.367c3.965 13.155 6.276 27.033 12.06 39.488-1.797-11.666-5.642-22.839-9.278-34.012-0.756-1.916-1.665-3.757-2.782-5.476z"/><path d="m526.85 405.28c6.583-2.092 12.487 4.71 13.177 10.723-2.946-1.719-5.805-3.582-8.828-5.137-0.438 0.482-1.315 1.457-1.753 1.939 1.501-2.87-1.709-4.984-2.596-7.525z"/><path d="m501.16 414.78c4.173 7.131 9.3 13.824 16.025 18.731 3.68 2.443 8.084 3.341 12.378 3.987 1.435 2.892 2.136 6.463 4.918 8.446 2.399 1.194 5.093 0.547 7.547-0.176 1.479 1.808 2.662 4.031 4.754 5.236 2.903 1.315 6.156 0.471 9.201 0.263 1.599 2.738 3.976 5.214 7.218 5.827 3.429 1.063 6.824-0.438 10.012-1.588 4.381 6.025 13.561 6.036 18.785 1.161 1.523 2.454 4.7 2.662 7.307 2.41 3.34-0.35 5.498-3.155 7.7-5.367 1.742 0.931 3.648 2.629 5.762 1.719 3.57-0.81 5.038-4.633 7.996-6.418-0.427 5.093-3.067 9.617-4.951 14.272-2.235 5.258-7.372 8.325-12.203 10.866-12.531 5.992-26.88 7.777-40.594 6.036-15.926-2.552-30.506-10.921-42.062-21.984-11.666-11.392-18.72-27.165-19.793-43.421z"/><path d="m530.25 422.61c-1.413-3.395 0.953-6.736 3.33-8.982 2.716 1.753 5.148 4.02 6.725 6.89 0.176 2.892-1.325 5.663-1.928 8.478-2.869-1.851-6.265-3.395-8.127-6.386z"/><path d="m628.65 420.35c0.307-2.399 2.41-5.444 5.105-3.746 1.709 3.943 1.402 8.478 0.876 12.651-0.909 2.607-3.68 3.462-5.915 4.535 0.121-4.48-0.416-8.971-0.066-13.44z"/><path d="m585.41 417.56c2.794-1.501 5.937 0.033 7.701 2.344 3.516 3.757 1.643 9.245 1.457 13.779-0.154 3.057-3.265 5.017-6.102 5.105-3.647 0.646-8.938 0.164-10.055-4.13-0.657-3.45-0.832-7.24 0.526-10.526 1.621-2.618 3.735-5.105 6.473-6.572z"/><path d="m602.69 417.41c2.399-0.854 5.762-1.391 7.547 0.92 3.582 3.769 2.848 9.519 2.399 14.262-0.219 6.616-9.705 8.5-14.064 5.028-1.49-3.582-0.428-7.832-0.647-11.666-0.416-3.538 1.753-6.868 4.765-8.544z"/><path d="m615.32 422.66c-0.559-2.859 2.212-5.334 4.765-6.002 2.245 0.186 4.392 1.763 5.4 3.768 0.821 3.932 0.668 8.018 0.241 12.005-1.249 4.206-6.386 4.37-9.913 3.384 0.131-4.392-0.022-8.784-0.493-13.155z"/><path d="m543.14 430.17c-0.679-3.888 0.614-8.806 4.677-10.285 2.892-0.855 7.526 0.077 7.756 3.757 0.164 4.031 0.854 8.686-1.884 12.06-3.823-1.084-7.876-2.399-10.549-5.532z"/><path d="m563.73 420.15c3.253-1.107 7.854-1.38 10.012 1.884 2.081 2.694 1.062 6.32 1.084 9.453 0.789 7.733-11.709 9.004-14.963 3.341-0.514-4.984-1.062-11.655 3.867-14.678z"/><path d="m533.6 431.71c2.837 0.537 5.049 2.464 7.35 4.075 0.076 2.19 0.284 4.392 0.131 6.605-1.293 2.552-5.115 2.19-6.627 0.054-2.651-2.946-1.544-7.251-0.854-10.734z"/><path d="m545.99 436.95c2.804 0.723 5.51 1.818 8.007 3.319-0.274 2.782 0.855 6.101-1.04 8.478-3.078 2.377-7.361-0.811-7.635-4.185-0.197-2.563 0.219-5.104 0.668-7.612z"/><path d="m620.79 446.82c1.029-3.451 1.687-7.777 5.816-8.763-0.909 3.253-1.665 8.489-5.816 8.763z"/><path d="m559.04 441.2c3.001-0.888 6.386 0.58 9.519 0.832 3.779-0.044 3.286 4.425 3.165 7 0.274 2.858-1.796 5.038-4.162 6.254-3.363 0.482-7.394-0.942-8.621-4.37-1.018-3.133-0.58-6.562 0.099-9.716z"/><path d="m612.85 441.79c1.895-0.986 4.097-1.325 6.233-1.106-0.822 5.039-2.509 12.98-9.3 11.874 0.438-3.692 0.833-7.668 3.067-10.768z"/><path d="m596.26 443.61c3.637-0.175 7.405-0.722 11.009-0.339 0.12 6.517-4.634 15.236-12.279 13.352-0.931-4.293-0.833-9.091 1.27-13.013z"/><path d="m575.54 443.39c5.499-0.284 11.02 0.011 16.518-0.449-0.975 4.798-0.734 11.053-5.389 14.032-2.662 2.015-6.397 1.49-8.829-0.613-4.425-2.903-1.697-8.665-2.3-12.97z"/><path d="m795.82 469.27c2.399-6.605 4.48-13.32 6.835-19.936 7.339-0.46 15.018 2.804 18.501 9.497 1.248 6.528-0.712 13.155-2.465 19.41-3.505 2.541-8.04 1.818-11.928 0.712-2.257-1.227-3.977-3.199-5.937-4.82 1.292 2.903 2.903 5.762 5.389 7.832 1.961 1.326 4.447 1.337 6.726 1.742-1.742 2.18-3.287 4.633-5.609 6.254-4.655 1.479-10.143-0.011-13.243-3.822 0.625 3.877 3.987 6.78 7.624 7.886-3.155 3.954-7.58 6.638-10.888 10.472 3.429-1.326 6.704-3.1 10.275-4.075 1.281 9.289-0.132 18.588-1.118 27.822-1.599 9.902-7.58 18.939-15.696 24.712-4.579 1.555-10.242 2.782-14.766 0.602-7.35-7.886-10.439-20.045-6.309-30.243 5.674-14.831 12.41-29.75 23.331-41.503 3.615-3.735 7.525-7.514 9.278-12.542z"/><path d="m221.94 474.83c10.735-2.431 23.496-5.4 33.059 1.808 1.204 1.183 3.614 2.004 3.549 3.932-1.424 2.257-3.955 3.626-5.729 5.619-0.986-3.121-1.786-6.44-4.491-8.554 1.479 3.154 2.333 7.065-0.636 9.693-4.293 3.363-9.715 5.401-15.072 6.365-0.219 0.46-0.657 1.391-0.876 1.851 4.962-1.183 10.176-2.377 14.273-5.609 1.533-0.843 2.793-2.596 4.688-2.486-3.856 6.736-12.389 7.777-19.29 9.42-9.551 2.169-16.726 10.198-26.464 11.819-5.838 0.745-10.011-5.192-10.143-10.461-0.033-5.203 0.877-10.395 2.366-15.368 8.205-2.837 16.628-4.984 24.766-8.029m-23.9 16.847c0.273 4.206 0.996 8.719 3.625 12.137 3.013 0.734 6.288 1.018 9.344 0.339 4.885-1.884 9.475-4.469 14.305-6.484 1.961-0.756 3.965-2.049 6.167-1.282-0.044-1.139-0.066-2.278-0.099-3.395l-0.558 1.971c-7.69 1.337-14.711 5.039-21.612 8.511-3.1 0.592-8.664 1.008-8.653-3.45 3.637 1.018 7.591 1.73 11.107-0.077-3.461 0.077-7.777 0.383-10.275-2.486-1.895-3.407-1.665-7.427-1.511-11.184-1.315 1.49-2.016 3.396-1.84 5.4z"/><path d="m273.45 478.18c3.166-2.508 7.559-1.643 11.129-0.569 2.498 1.949 4.316 4.622 6.496 6.911 5.74 6.255 5.871 15.259 8.938 22.806 3.308 8.357 3.724 18.774-1.522 26.453-2.421 3.976-8.435 4.108-11.359 0.646-5.116-6.178-10.352-13.528-9.607-21.973-0.164-2.103 1.939-3.012 3.341-4.064 3.527-2.366 6.528-5.52 8.719-9.157-1.687 0.164-3.363 0.405-5.028 0.701 0.132-3.527 0.187-7.054-0.087-10.57-3.012 2.245-3.494 6.758-6.233 9.464-0.58-0.712-1.15-1.446-1.698-2.158-4.107 3.034-9.485 4.491-14.557 4.37-4.206-0.284-5.619-4.699-6.046-8.193-0.57 2.278-2.585 3.44-4.448 4.557-0.043-4.382 3.845-7.087 7.219-9.048 5.17-3.012 9.738-6.912 14.743-10.176z"/><path d="m393.24 495.94c4.315-5.181 11.03-7.876 17.657-8.182 0.328 0.186 0.975 0.547 1.303 0.734-4.491 1.763-8.861 4.02-12.147 7.645-4.623 4.776-11.162 9.344-11.644 16.529 2.421 2.005 5.652 2.552 8.358 4.086 15.97 9.245 29.487 22.345 40.079 37.407-8.412-7.668-16.485-15.949-26.606-21.393-11.162-6.156-23.562-11.983-36.651-10.625-1.238 0.405-2.476 0.8-3.714 1.172 0 0.57 0 1.709 0.011 2.279 4.064 4.512 9.169 7.93 13.473 12.202 6.978 7.416 12.696 15.948 17.636 24.832-7.679-10.943-18.337-19.3-29.641-26.212-2.87-1.698-6.243-2.147-9.442-2.815 10.406 20.56 18.599 42.642 21.097 65.656-0.986-3.012-1.753-6.09-2.662-9.114-3.352-9.014-4.951-18.588-8.708-27.471-2.881-9.158-7.58-17.559-12.553-25.709-1.665-2.661-2.859-6.079-6.134-7.141 0.11 3.362 0.438 6.714 0.8 10.077-2.651-3.998-6.288-7.186-9.399-10.789 3.779-0.756 4.897-4.776 7-7.493 4.272 1.852 8.412 4.415 13.177 4.71 0.351-1.84 0.592-3.702 1.117-5.487 1.873-2.016 4.502-3.1 7.044-4.031 1.018-2.18 1.018-4.886 2.552-6.781 2.892 0.351 5.718 1.085 8.533 1.841 1.676-6.047 5.531-11.151 9.464-15.927z"/><path d="m252.26 497.21c0.734-0.504 2.213-1.523 2.947-2.027-0.428 4.886 4.819 7.482 8.971 7.449 3.888-0.526 7.864-1.632 11.085-3.965 0.405 0.58 0.821 1.161 1.249 1.752-5.477 2.618-11.83 5.641-17.888 3.001-3.165-0.679-5.258-3.34-6.364-6.21z"/><path d="m634.13 497.04c4.699 0.099 8.303 3.341 11.315 6.594 2.071 2.224 4.36 4.481 5.225 7.493 3.023-0.132 6.058-0.362 9.103-0.274 2.519 4.787 8.839 7.47 9.234 13.21 3.844-2.125 8.522-1.183 12.651-2.574 0.92 1.336 1.84 2.684 2.738 4.064-4.173 2.596-7.393 6.331-10.548 10.033 0.723-2.859 1.49-5.718 1.775-8.653-10.045 1.774-18.03 9.059-24.931 16.135-6.243 6.079-10.088 13.987-13.736 21.764 3.604-11.468 8.281-23.068 16.847-31.798 3.012-3.79 6.539-7.098 9.858-10.592-2.563-3.571-7.229-7.153-11.83-5.378-9.562 2.661-18.796 8.905-22.849 18.259 2.738-8.883 8.861-16.386 16.584-21.436 0.986-0.898 3.538-1.774 2.201-3.505-3.505-5.356-8.828-9.223-13.637-13.342z"/><path d="m802.29 499.28c13.429-0.646 26.935 1.314 39.882 4.721l0.076 0.482c-4.304 1.84-9.08 2.454-13.396 4.348-1.906 2.334-3.385 4.962-4.578 7.723-1.665-0.033-3.33-0.022-4.973 0.022 1.632 0.471 3.319 0.646 5.038 0.766 0 0.975-0.011 2.914-0.011 3.889-3.045-1.512-6.046-3.144-8.587-5.411-0.811-3.856 0.284-7.547 1.621-11.118-3.889 2.158-4.568 7.032-4.732 11.063-0 5.86 4.896 9.88 9.365 12.838-0.569 3.91-0.931 7.865-0.92 11.83-6.123 0.098-13.593 1.281-16.934 7.098 4.25-0.953 8.774-2.947 13.056-0.92-0.525 2.179-1.347 4.282-2.114 6.386-1.15 2.804-0.438 5.915-1.062 8.806-1.731 1.972-4.13 3.199-5.849 5.17-2.235 3.758-1.37 8.303-1.337 12.455-3.625-1.249-7.163-3.845-8.138-7.712-0.438-2.683-0.033-5.4 0.098-8.072-1.665-2.575-2.026-5.598-1.84-8.588-0.92 3.001-2.004 5.959-3.001 8.949 0.504 0.383 1.511 1.15 2.015 1.534 0.417 3.384 0.428 6.988 2.082 10.077 1.369 2.87 3.976 5.082 4.425 8.379-7.909-0.054-16.168-0.175-23.518-3.439-5.203-2.235-9.365-6.671-11.216-12.016-0.723-2.454-0.318-5.148-1.512-7.46 0.515-0.197 1.545-0.591 2.07-0.777-1.818 0.131-3.921 0.284-5.027-1.468-5.313-6.342-8.303-15.204-5.291-23.255 1.818 4.557 1.95 9.738 4.655 13.977 2.049 3.1 4.305 6.09 6.211 9.3 7.01 1.687 15.094 2.212 21.086-2.541 8.5-6.463 15.685-16.354 15.62-27.439 0.252-7.613 0.416-15.368-1.72-22.751-0.657-2.257-1.774-4.447-1.544-6.846z"/><path d="m843.06 506.26c0.307-1.818 1.588-3.34 3.615-1.829 5.586 1.862 12.914 1.665 16.474 7.142 2.454 4.535 3.396 11.501-1.249 14.974-7.755 4.315-17.186 2.19-24.897-1.14-3.944-1.522-6.562-5.597-6.901-9.716 0.964-6.287 7.437-9.496 12.903-11.172l0.055 1.741m-8.062 15.916c4.404 2.114 9.015 4.929 14.119 4.261 4.601-0.581 9.793-0.723 13.375-4.097-6.835 1.38-14.13 3.955-21.009 1.435-3.166-1.5-8.237-2.716-7.383-7.295-1.643 1.84-1.38 4.469 0.898 5.696z"/><path d="m228.97 512.15c7.448-0.744 14.491-3.811 21.995-4.151 4.633 0.449 9.047 2.344 13.056 4.655 3.856 2.29 3.758 8.38 0.625 11.25-2.136 2.333-5.137 3.625-8.205 4.173-3.275 0.581-5.991 2.76-9.255 3.286-0.176-0.274-0.526-0.832-0.701-1.117-6.989 0.92-13.824 2.804-20.703 4.338-4.567 1.347-8.938-0.033-13.308-1.227l-0.198-1.26c-0.054 0.679-0.175 2.037-0.23 2.717-2.837-1.797-2.683-5.444-3.625-8.27-1.435 3.45-1.621 9.266 3.067 10.077 9.365 1.325 18.61-1.917 27.493-4.491 2.093-0.438 4.853-2.158 6.704-0.373l-0.318 0.417c-10.581 2.793-20.614 8.029-31.656 8.73-4.217 0.756-7.284-2.991-8.861-6.397-1.983-4.141-1.096-8.84-0.405-13.166 0.405-1.939 1.062-4.382 3.176-5.083 6.813-2.673 14.207-2.892 21.349-4.108m30.057 0.274c1.369 2.279 3.297 4.842 2.245 7.668-0.712 3.089-3.505 4.743-5.86 6.517 2.136-1.04 4.48-1.851 6.2-3.538 1.095-1.227 1.15-3.713 3.242-3.582-2.848-1.588-2.826-5.652-5.827-7.065z"/><path d="m317.13 539.14c-2.717-9.004-5.685-17.975-7.219-27.263 1.117 0.624 2.257 1.237 3.396 1.851 9.869 3.461 17.022 11.424 25.544 17.044 6.911 13.341 11.194 28.479 10.252 43.595-1.106-4.173-0.964-8.577-2.267-12.706-3.352-10.231-6.178-21.316-14.141-29.082-5.411-5.093-11.447-9.519-17.668-13.55 2.026 9.651 6.199 18.742 8.072 28.458 1.107 6.572 3.024 13.057 2.98 19.782 0.219 5.105 0.263 10.209 0.263 15.324 0.985 13.506-0.044 27.1 1.522 40.584 0.625 5.257-0.832 10.438-2.256 15.444-3.308 11.085-5.137 22.532-7.372 33.858-0.285 1.194-0.34 2.716-1.72 3.209-1.544-11.271-0.153-22.608 1.621-33.77 2.794-22.564 4.82-45.304 4.152-68.066-1.019-11.654-2.651-23.287-5.159-34.712z"/><path d="m599.28 522.27c5.663-2.52 11.03-5.663 16.605-8.369-10.121 11.764-26.047 15.182-39.257 22.236 0.032-0.296 0.109-0.898 0.142-1.194 6.824-5.345 14.941-8.577 22.51-12.673z"/><path d="m450.33 514.98c9.727 3.517 19.64 6.463 29.542 9.453 11.238 3.177 23.057 3.878 34.153 7.559 7.12 2.968 14.01 6.473 20.725 10.263 0.295 0.208 0.526 0.482 0.701 0.822-10.658-3.276-21.228-7.131-32.051-10.001-11.074-2.399-22.148-4.995-32.729-9.081-6.945-2.563-14.295-4.589-20.341-9.015z"/><path d="m728.55 522.25c6.758-3.078 13.878-5.937 21.436-5.948-2.158 3.615-6.813 3.428-10.143 5.301-6.616 3.254-13.101 7.066-18.523 12.082-6.309 7.46-11.622 15.752-16.145 24.394-5.62 10.373-10.68 21.152-13.758 32.576-0.537 1.797-1.15 3.571-1.939 5.291 0.515-3.746 1.128-7.471 1.303-11.239 1.37-10.909 5.061-21.381 9.629-31.338 3.428-6.353 5.794-13.451 10.855-18.775 4.765-5.345 10.921-9.201 17.285-12.344z"/><path d="m750.05 516.02c1.785 0.033 3.571 0.077 5.378 0.153-3.757 10.998-7.711 22.006-9.617 33.519-1.731 10.866-2.038 21.918-2.104 32.915 0.592 13.868 2.531 27.691 1.95 41.602-0.12 11.688-1.741 23.266-3.133 34.844-1.106 11.381-2.661 22.707-3.647 34.099-1.139 8.73-0.592 17.558-1.599 26.31-1.052 21.995 0.734 44.056 4.841 65.689 0.526 5.159 3.79 9.431 4.918 14.426 0.219 0.405 0.669 1.227 0.888 1.632-4.875-2.366-9.442-6.265-11.907-11.162-2.213-9.113-2.574-18.555-3.648-27.833-0.186-10.625-1.785-21.173-1.445-31.798 0.284-9.519-0.132-19.049 0.591-28.534 2.344-26.223 4.141-52.501 5.247-78.801 2.596-31.021 1.117-62.677 9.376-92.975 1.107-4.764 4.206-9.069 3.911-14.086z"/><path d="m687.51 530.39c3.538-3.001 8.15-4.195 12.52-5.466 2.706 1.764 4.973 4.152 7.734 5.883-2.454 2.486-5.346 4.458-8.248 6.353 0.558-2.224 1.566-4.732-0.055-6.77-12.235 6.945-23.266 16.036-32.292 26.848 2.728-5.521 6.551-10.384 9.946-15.489 2.783-4.337 6.452-8.062 10.395-11.359z"/><path d="m269.05 533.26c0.986 0.066 2.936 0.208 3.911 0.274 2.037 5.805 2.618 13.593-3.276 17.383-11.096 6.156-23.966 7.701-36.07 10.91-5.082 1.216-9.639 3.856-14.513 5.598-3.9-0.493-7.745-2.958-8.982-6.803-0.461-4.655 0.054-10.658 4.644-13.144 4.25-1.851 8.818-2.804 13.363-3.604 11.534-2.267 22.948-5.258 33.957-9.431 1.873-0.745 3.811-1.139 5.838-1.205-0.132 1.358-0.23 2.728-0.285 4.108 1.928 2.147 3.472 5.06 2.092 7.941-1.216 4.141-5.586 5.587-8.905 7.602 3.976-1.588 9.278-2.881 10.658-7.525 1.643-3.231-1.063-6.101-2.87-8.489 0.011-1.227 0.208-2.432 0.438-3.615m-54.527 27.001c0.767 1.303 1.61 2.607 2.453 3.877 3.451-0.339 7.077-0.251 10.242-1.884-3.067 0.077-6.123 0.307-9.179 0.154-1.063-0.898-2.235-1.621-3.516-2.147z"/><path d="m297.22 539.94c3.023-1.61 4.447-4.885 6.89-7.109-1.194 6.693 0.197 13.385-0.088 20.078-1.982 5.115-3.943 10.68-8.117 14.459-3.516 2.793-8.335 0.558-10.866-2.498-2.968-2.333-1.478-6.408-1.785-9.606-0.865-1.523-1.676-3.067-2.476-4.611 1.151-1.326 2.323-2.629 3.495-3.933 0.076-1.895 0.12-3.801 0.142-5.674 4.217 0.701 9.026 1.468 12.805-1.106z"/><path d="m844.6 536.02c3.253-0.668 6.583-2.004 9.945-1.325 4.174 2.738 7.23 7.69 6.441 12.849 0.526 3.614-2.815 6.988-6.43 6.462-7.59-0.164-15.4-1.697-21.929-5.717-2.201-1.753-4.754-4.218-4.316-7.296 0.154-2.168 1.238-4.118 1.972-6.123 4.721 0.668 9.519 2.257 14.317 1.15m-12.323 9.585c4.272 3.669 10.176 4.666 15.652 4.644-4.337-1.161-8.883-1.895-12.859-4.064-2.804-1.413-3.494-4.699-4.338-7.415 0.329 2.278-0.383 5.104 1.545 6.835z"/><path d="m551.62 537.24c3.79-1.117 8.183-1.216 11.6 1.041 3.221 1.807 5.981 5.52 4.908 9.376-0.844 5.137-2.772 10.943-7.942 13.199-6.736 3.604-15.948-0.668-17.756-8.04-2.497-6.681 2.498-14.075 9.19-15.576m-5.345 15.642c2.169 3.976 7.558 6.025 11.622 3.67 2.355-0.91 3.089-3.451 3.801-5.62-2.64 0.767-4.371 3.626-7.306 3.451-2.695-0.099-4.93-1.797-7.219-2.991-0.23 0.373-0.668 1.118-0.898 1.49z"/><path d="m307.33 554.16c0.964-4.25 1.523-8.708 1.074-13.057 1.084 3.932 3.373 7.635 3.045 11.863-0.406 7.897-5.017 15.006-10.231 20.658-2.574 2.333-8.719 4.458-9.891-0.263 3.626-0.262 6.857-2.19 8.708-5.323 2.684-4.491 4.951-9.212 7.295-13.878z"/><path d="m571.54 547.82c3.111-1.774 6.912-1.851 10.362-1.215 7.394 1.292 14.634 3.286 21.875 5.29-0.877 3.177-2.52 6.047-4.064 8.927-4.995-5.411-12.17-7.437-18.567-10.636-2.99-1.511-6.375-1.73-9.606-2.366z"/><path d="m518.37 554.16c5.652-1.95 11.479-3.955 17.537-3.911-2.202 2.662-5.904 3.21-8.632 5.203-7.645 5.006-14.546 11.195-20.549 18.074-1.522-2.914-3.034-6.047-6.057-7.668 5.641-4.239 11.271-8.697 17.701-11.698z"/><path d="m573.93 551.97c5.444 1.325 10.274 4.25 15.182 6.846 2.64 1.599 5.608 3.012 7.437 5.619 4.415 9.333 10.417 17.789 15.094 27.001-2.99 8.423-7.295 16.409-12.98 23.32-3.812-4.261-7.569-8.708-9.781-14.042-6.759-13.988-10.111-29.301-16.42-43.464 6.507 7.306 9.19 16.967 13.101 25.73 3.319 7.251 5.86 14.941 10.373 21.6 5.696-2.3 8.861-8.631 8.533-14.546-1.15-6.934-5.86-12.498-9.344-18.38-5.049-8.511-13.889-13.43-21.195-19.684z"/><path d="m825.1 551.7c5.192 1.139 9.387 4.831 14.579 6.003 5.401 0.054 10.812 0.536 16.102 1.687 1.468 0.284 2.114 2.026 2.18 3.384 0.197 3.407-0.865 7.799-4.59 8.884-6.079 1.555-12.651 0.843-18.5-1.249-4.732-2.519-10.636-4.371-12.882-9.738-0.832-3.308 0.307-6.955 3.111-8.971m0.077 4.688c-0.263 1.742-1.84 3.812-0.329 5.378 2.136 3.133 5.718 4.754 9.048 6.321 4.819 2.245 10.844 2.672 15.444-0.351-4.83 0.241-9.814 0.986-14.535-0.339-4.622-1.862-9.497-5.576-9.628-11.009z"/><path d="m534.17 556.73c1.194-1.019 2.837-0.723 4.294-0.756-8.412 7.153-17.175 14.108-23.649 23.178-5.608 8.062-10.428 16.649-15.247 25.193-0.625 1.205-1.72 2.728-0.767 4.097 1.95 3.242 4.48 6.09 6.452 9.332 2.639 0.241 5.29 0.362 7.941 0.537 5.247-13.341 11.26-26.365 16.759-39.608 2.432-5.882 5.63-11.381 8.829-16.869-4.579 12.378-9.815 24.525-13.451 37.232-3.484 12.202-8.281 24.021-14.547 35.051-1.062-0.416-2.256-0.679-2.946-1.643-6.846-8.018-12.959-16.868-16.661-26.792 5.269-10.012 12.728-18.578 18.775-28.096 5.948-9.103 15.433-14.843 24.218-20.856z"/><path d="m683.36 574.66c3.089-6.277 6.156-12.619 10.077-18.435-3.187 8.062-6.857 15.937-9.551 24.186-5.313 16.748-9.563 33.901-11.841 51.339-0.11-19.508 2.716-39.4 11.315-57.09z"/><path d="m265.78 559.36c2.015-0.11 4.502-1.632 6.265-0.121 3.221 3.429 1.194 9.026-2.311 11.48-5.444 3.768-12.016 5.4-17.832 8.5-7.613 2.924-15.412 9.168-23.945 6.134-4.962-1.479-7.635-7.635-4.809-12.093 2.936-2.136 6.573-2.99 9.848-4.469 8.96-3.593 18.873-3.998 27.701-7.953 1.633-0.679 3.341-1.128 5.083-1.478m3.198 0.854c-0.109 2.738 1.424 6.419-1.402 8.27-3.822 2.662-8.664 3.352-12.41 6.189 4.907-2.3 10.855-2.717 14.765-6.824 2.268-2.169 1.304-5.86-0.953-7.635m-37.91 21.787c0.219-2.53-2.257-2.903-4.02-3.571-0.548 2.727 2.245 3.867 4.272 4.699 7.941 1.369 14.711-3.68 21.688-6.484l-0.23-0.658c-6.835 3.177-13.955 6.594-21.71 6.014z"/><path d="m756.02 559.66c2.629 3.1 5.861 5.718 8.183 9.07 2.059 4.874 4.337 10.023 8.927 13.057 7.985 5.236 17.876 4.502 26.924 5.827l0.657 1.676c-8.39-0.055-17.109 1.249-25.138-1.906-11.622-3.856-18.895-15.872-19.553-27.724z"/><path d="m359.8 562.59c4.48 13.944 10.056 27.592 13.177 41.942 3.034 14.82 2.585 30.133 0.187 45.008 0.219-7.24-0.964-14.393-1.315-21.59-0.887-13.221-4.075-26.135-6.66-39.082-1.708-8.774-4.359-17.384-5.389-26.278z"/><path d="m540.87 568.19c-1.983 21.864-2.837 43.837-3.144 65.788 0.241 12.75-0.405 25.566 1.238 38.25-1.72-0.723-3.341-2.048-5.28-1.895-3.012 0.679-4.162 3.878-5.937 6.036-0.109-17.132 1.775-34.176 3.363-51.209 2.771-19.048 3.582-38.6 9.76-56.97z"/><path d="m570.94 662.13c1.38-30.944 1.643-61.932 1.632-92.909 7.492 30.813 7.645 62.731 7.853 94.256-0.996-1.041-1.96-2.103-3.056-3.012-2.212 0.263-4.315 1.019-6.429 1.665z"/><path d="m816.66 578.39c-0.909-2.881-1.052-6.156 0.602-8.796 2.322-1.522 5.017 0.417 6.978 1.731 6.627 4.885 15.138 5.433 22.959 6.923 0.438 3.308 1.106 9.387-3.582 9.694-9.76 0.405-19.279-3.692-26.957-9.552m2.662-0.734c6.177 5.389 14.393 6.989 22.301 7.832-1.238-1.961-3.877-1.468-5.816-2.037-5.882-0.636-11.206-3.341-16.485-5.795z"/><path d="m279.56 576.13c2.015 5.225 2.596 10.855 4.283 16.178 2.464 7.974 2.53 16.606 5.663 24.35-1.337-13.626-4.634-26.957-6.167-40.561 6.67 23.046 12.257 46.41 18.665 69.534 5.038 16.123 9.146 32.532 14.535 48.557 6.671 21.513 13.188 43.081 19.651 64.659 7.481 23.167 13.922 46.652 21.721 69.72 4.447 11.962 8.215 24.175 11.019 36.618-3.132-2.957-4.447-7.295-5.925-11.216-3.013-10.8-7.843-20.976-11.042-31.722-3.242-9.376-5.871-18.95-9.146-28.315-1.61-4.392-2.202-9.256-4.71-13.254 1.577 10.154 5.597 19.673 8.095 29.597 4.534 14.952 9.376 29.827 14.469 44.581 1.019 6.036 3.056 11.907 3.604 18.019-3.834-4.809-4.129-11.447-6.955-16.825-0.482 7.175 2.826 14.196 2.092 21.469-1.271-1.807-2.224-3.779-2.914-5.849-4.677-13.298-8.785-26.804-12.432-40.419-0.942-7.93-4.469-15.149-7.153-22.575-0.844-2.235-2.07-4.294-3.571-6.145 9.946 24.163 14.93 49.926 22.192 74.934-3.702-6.189-5.345-13.331-8.171-19.925-2.585-10.176-7.142-19.662-10.187-29.685-1.829-4.71-3.429-9.507-5.346-14.185-3.538-7.864-4.677-16.518-6.999-24.766-2.826-11.95-7.12-23.473-10.603-35.227-1.117-2.793-1.402-6.265-3.932-8.226 0.723 10.165 4.14 19.815 7.108 29.476 4.82 14.437 9.892 28.787 15.27 43.015 2.782 8.533 5.816 17.033 7.415 25.895 2.553 12.607 3.747 25.456 6.847 37.943-3.429-8.303-5.193-17.164-8.019-25.675-7.262-22.017-13.275-44.428-20.154-66.565-4.436-14.645-9.103-29.236-13.397-43.935-2.497-10.494-6.221-20.626-9.179-30.988-10.066-37.057-20.91-73.894-30.528-111.08-0.953-4.141-2.311-8.161-3.603-12.192 3.56 6.2 6.21 12.871 8.555 19.607 3.077 10.593 7.481 20.736 10.657 31.284 0.866 3.56 2.082 7.01 3.396 10.428-2.388-13.002-6.353-25.621-9.771-38.371-2.201-7.58-4.907-15.193-5.192-23.156 4.48 2.092 7.087 6.452 10.264 10.023-1.282-4.666-2.498-9.355-3.429-14.098-0.909-3.943 1.775-7.393 3.024-10.931m14.656 56.762c0.449 4.403 1.369 8.762 2.957 12.914 2.651 7.361 4.305 15.149 8.161 22.039-3.046-11.863-6.627-23.562-11.118-34.953m-4.634 32.882c-0.12 3.341 0.679 6.605 1.545 9.815 2.388 8.577 4.786 17.142 7.569 25.598 0.131-2.694 0.142-5.422-0.625-8.029-2.355-9.266-4.841-18.533-8.489-27.384m21.995 32.697c-0.624 4.469 0.493 8.916 1.347 13.276 2.005 7.777 4.13 15.543 6.814 23.123-1.863-12.301-4.601-24.47-8.161-36.399m-3.406 29.849c0.492 1.971 1.336 3.833 2.3 5.63-2.53-10.351-4.283-21.053-8.621-30.846 1.797 8.479 4.064 16.847 6.321 25.216z"/><path d="m811.4 594.51c-1.161-3.177 0.679-6.2 2.596-8.599 4.798-0.328 8.675 2.487 12.323 5.181 4.852 3.703 11.425 2.103 16.901 3.725 1.096 3.954-1.687 7.689-4.743 9.869 0.209-0.767 0.614-2.289 0.811-3.056-3.91 2.957-9.858 2.716-14.24 0.799-3.22-2.168-6.988-4.239-8.653-7.919-0-1.917 0.361-3.812 0.559-5.696-0.767 2.005-1.403 4.053-2.136 6.068 1.719 3.779 5.827 5.39 8.182 8.5-0.077 0.187-0.219 0.57-0.285 0.756-4.316-2.475-8.478-5.488-11.315-9.628z"/><path d="m245.34 593.44c0.493-0.306 1.468-0.92 1.961-1.215-1.303 7.667-0.997 15.477-2.103 23.167-0.099 14.94-2.585 29.925-0.405 44.833 1.413 26.88 6.506 54.374 20.527 77.727 5.948 8.883 12.969 16.967 19.727 25.226 2.18 2.651 3.9 6.134 7.558 6.978 2.947-5.828 3.977-12.345 6.386-18.359 0.219-0.109 0.68-0.328 0.899-0.438 0.832 2.859 1.555 5.762 1.96 8.719-2.125 5.072-4.962 10.187-10.077 12.728-14.021-13.823-27.976-27.997-38.371-44.844-1.566-2.596-2.793-5.433-3.264-8.434-4.841-21.645-8.423-43.618-10.231-65.733-0.635-6.605 0.482-13.188 0.691-19.782 1.117-13.572 2.333-27.165 4.742-40.573z"/><path d="m826.18 604.48c3.199 0.317 6.485 0.734 9.563-0.559 0.69 0.537 1.391 1.085 2.092 1.632-4.173 0.701-8.544 1.15-12.476-0.81l0.821-0.263z"/><path d="m806.4 619.92c0.427-4.118 0.132-8.368 1.413-12.355 0.165 14.699-0.657 29.377-0.975 44.077-0.153 6.156 0.022 12.323-0.591 18.457-0.581 7.492 0.394 15.094-0.57 22.554-8.894 24.459-21.447 47.352-33.967 70.092-6.846 11.37-12.41 23.507-20.067 34.383 10.22-20.362 18.501-41.722 28.698-62.14 3.385-7.382 6.737-14.798 10.757-21.874 6.901-11.644 6.715-25.599 9.738-38.447 2.683-18.15 3.724-36.498 5.564-54.747z"/><path d="m451.38 681.16c4.041-12.147 6.375-24.766 9.321-37.187-3.078 26.321-7.952 53.377-21.666 76.467-10.286 19.487-22.74 37.692-34.701 56.159-1.994 3.199-3.725 6.583-6.156 9.497 6.681-12.684 14.36-24.81 21.228-37.385 6.813-9.935 12.388-20.669 17.745-31.448 5.071-11.895 10.362-23.736 14.229-36.103z"/><path d="m614.12 652.6c4.272 13.002 6.704 26.563 9.957 39.86 3.264 12.794 5.017 26.004 9.551 38.47 2.268 6.353 3.725 12.991 6.332 19.234 6.889 16.737 13.242 33.694 20.658 50.212 6.594 15.883 14.13 31.36 20.834 47.199 5.159 12.137 9.102 24.909 16.452 35.983 3.768 7.306 8.917 13.758 13.035 20.845-8.171-10.735-16.474-21.371-24.273-32.379-8.38-10.658-13.331-23.376-19.432-35.359-10.603-21.918-19.925-44.515-26.913-67.858-3.231-9.978-7.602-19.574-10.494-29.662-6.561-28.589-11.03-57.605-15.707-86.545z"/><path d="m570.24 678.94c0.219-2.98-0.625-6.277 0.92-8.993 2.552 8.982 2.201 18.5 3.22 27.723 1.15 8.993 1.643 18.052 2.344 27.1-2.388 0.438-4.578 1.478-6.704 2.596-0.262-16.146-0.197-32.292 0.22-48.426z"/><path d="m391.84 753.44c-3.188 23.354-5.521 46.805-8.687 70.169-1.15 12.422-3.713 24.723-8.182 36.41-0.34-6.933-6.43-13.582-3.111-20.483 3.341-8.631 4.272-17.909 6.287-26.88 4.645-19.717 8.15-39.718 13.693-59.216z"/><path d="m509.27 844.33c1.654-16.025 1.566-32.138 1.829-48.218 0.197 11.534 1.336 23.024 1.347 34.57 0.11 20.253 0.603 40.659-2.881 60.683-1.96 10.066-4.962 20.855-13.144 27.712-7.219 6.343-17.263 7.066-26.376 7.898-9.694-0.099-19.334-2.267-28.403-5.575 11.381 2.574 23.243 5.192 34.854 2.289 7.931-1.534 14.152-7.273 18.972-13.429 4.918-6.331 6.255-14.481 8.193-22.05 3.637-14.349 4.864-29.137 5.609-43.88z"/><path d="m395.86 847.99c4.644-6.024 7.919-12.947 12.476-19.015-6.934 12.837-13.429 26.037-22.411 37.615-7.471 11.293-16.606 21.304-24.789 32.061-6.594 8.379-12.936 16.967-19.508 25.369-3.133 4.195-6.758 8.335-8.106 13.516-0.383 2.323-0.788 6.178 2.268 6.824 9.858 2.75 20.384 0.921 29.761-2.716 7.634-2.76 14.448-7.339 22.203-9.771 10.395-4.436 21.535-7.733 32.948-7.328 8.818-0.635 17.121 3.045 25.008 6.529 18.435 7.667 36.486 16.616 55.995 21.381 15.576 3.648 32.466 6.868 47.933 1.03 13.407-5.532 25.971-13.517 35.972-24.098 10.756-11.37 20.57-23.638 28.961-36.87-5.203 11.972-12.367 23.024-20.22 33.419-7.602 8.435-15.489 17.121-25.807 22.269-8.643 4.666-17.548 9.157-27.176 11.348-15.938 3.231-32.259-0.307-47.386-5.433-18.632-5.356-35.665-14.886-53.782-21.6-7.777-2.345-15.543-5.488-23.802-5.324-19.958-0.307-38.831 8.117-55.524 18.358-6.31 2.903-13.046 5.576-20.078 5.642-5.39-0.537-10.68-1.874-15.872-3.352 0.339-5.641-0.362-11.896 2.891-16.858 5.707-7.043 12.148-13.451 17.603-20.702 7.273-9.826 15.609-18.797 22.992-28.546 8.806-11.523 18.281-22.52 27.45-33.748z"/><path d="m639.49 911.02c15.488-7.799 33.211-12.685 50.583-9.508 9.125 1.643 18.731 4.611 25.26 11.545-4.59-1.983-9.278-3.823-14.196-4.776-9.749-1.796-19.717-4.305-29.641-2.311-10.22 1.03-19.574 5.422-29.016 9.135-16.814 6.693-32.105 17.022-49.587 22.072 4.392-3.845 9.935-5.882 15.072-8.489 10.636-5.663 20.943-11.907 31.525-17.668z"/><path d="m650.85 925.28c14.076-4.261 29.378-6.057 43.749-2.114 10.921 2.64 21.546 7.492 29.608 15.467 5.543 5.75 10.866 12.049 13.626 19.661-4.425 4.196-9.803 7.449-15.882 8.479-25.752 5.4-52.436 3.297-78.253-0.57-13.09-1.654-26.223-5.871-36.334-14.579 2.356-5.105 7.876-7.153 12.159-10.275 7.679-4.776 15.346-10.636 24.591-11.731 12.148-0.657 22.74 6.484 34.285 8.861-8.664-5.345-17.898-9.957-27.549-13.199z"/><path d="m322 925.41c1.764-0.395 3.341-1.26 4.907-2.147-1.906 2.355-4.228 4.403-6.944 5.783 0.646-1.238 1.336-2.442 2.037-3.636z"/><path d="m356.68 964.44c13.583-25.094 46.991-36.3 73.335-26.113 3.045 1.325 6.583 1.873 9.168 4.097-6.068 4.085-12.52 7.623-18.26 12.191 9.519-2.837 18.129-9.76 28.469-9.048 6.386 2.18 12.016 6.364 16.88 10.998 1.347 1.402 3.001 2.815 3.439 4.819-1.972 4.557-5.762 7.964-9.387 11.228-3.505 3.144-7.646 5.663-12.279 6.693-20.243 5.301-41.438 7.218-62.283 5.159-10.658-1.26-22.279-3.155-30.057-11.272-2.815-2.552-0.175-6.068 0.975-8.752z"/><path d="m596.25 954.47c0.461-0.384 1.392-1.15 1.852-1.534 10.899 6.66 22.411 12.969 35.095 15.324 17.263 3.703 34.975 4.776 52.589 5.061 13.922-0.208 28.15 0.033 41.612-4.075 4.163-1.281 7.821-3.757 10.921-6.769-0.372 3.384 0.219 7.207-1.993 10.088-4.732 2.793-10.078 4.688-15.554 5.269-15.533 2.026-31.262 2.191-46.86 0.942-16.628-0.701-32.883-4.546-49.149-7.712-10.833-2.245-22.4-6.835-28.513-16.594z"/><path d="m450.35 982.19c9.836-2.705 17-10.351 25.883-14.929-0.032 6.079-4.721 10.898-9.398 14.195-7.273 5.587-16.354 8.04-25.226 9.716-15.489 3.265-31.317 4.94-47.134 4.568-12.399-0.668-25.555-1.073-36.563-7.525-4.086-2.289-4.195-7.449-4.195-11.545 8.62 8.73 21.294 10.877 33.014 11.863 21.327 1.391 43.059-0.329 63.619-6.343z"/></g></svg>