<?xml version='1.0' encoding='utf-8'?>
<svg xmlns="http://www.w3.org/2000/svg" width="1012px" height="1013px" version="1.1" viewBox="-146 207 1012 1013"> <g stroke-linejoin="miter"> <path d="m513.3 492.26c-1.86 0.79786-6.0131 4.0593-9.4166 7.405-2.4835 2.455-4.0284 4.3209-5.1878 6.2576-2.5349 4.208-2.4034 4.1682-13.681 4.1233l-5.9842-0.04041-3.6305-0.93493c-1.9978-0.50928-5.1467-1.3342-7.0119-1.813-3.6931-0.9668-5.5537-1.2351-7.4801-1.0638-0.61011 0.07006-2.7543 0.50585-4.7527 0.99267-3.4952 0.84313-6.3468 1.2396-8.5544 1.1891-5.5643-0.11914-14.199 5.927-17.814 12.492-0.29882 0.5431-0.8441 1.7815-1.2214 2.7438-1.0022 2.5489-2.0841 4.2236-3.9469 6.1042-3.8557 3.8714-5.2212 8.0846-7.951 24.532-0.98022 5.8917-1.2836 7.4474-1.3988 7.2638-0.06409-0.10193-0.42505-1.198-0.80542-2.4383-0.38037-1.2402-1.1512-3.6007-1.7048-5.2301l-1.0273-2.9957 1.1032-0.62146c0.70263-0.39844 1.1092-0.72474 1.0808-0.90614-0.05688-0.36254-0.23048-0.3673-1.4911 0.026-0.62403 0.2069-1.1459 0.3495-1.1549 0.31263-0.00905-0.03698-0.32582-0.79103-0.68263-1.6764-0.74427-1.8651-0.79651-1.7897 1.3044-2.113 2.3064-0.3812 1.4429-1.1904-1.0655-0.99487-0.60632 0.05347-1.2051 0.07373-1.3048 0.05103-0.09949-0.02286-0.52125-0.85306-0.92163-1.8532-0.42078-0.98754-1.1788-2.7159-1.6968-3.813-0.51416-1.1135-0.91321-2.0434-0.8761-2.0526 0.02416-0.0294 1.0713 0.05286 2.301 0.17676 2.5834 0.24124 3.0018 0.09229 1.7351-0.63416-1.0239-0.56615-1.8873-0.76354-3.4246-0.7656l-1.2397-0.0038-0.35242-0.6747c-1.2278-2.2728-2.0687-4.0204-1.9654-4.0141 2.564 0.09714 3.5277-0.06702 3.2166-0.54016-0.10255-0.1632-2.9957-0.80726-3.5945-0.787-0.40467 0.01234-0.4635-0.0359-0.4607-0.5071 0.0044-0.401-0.08532-0.5437-0.38415-0.61203-0.24915-0.05701-0.50244-0.32457-0.69226-0.71753-0.28088-0.60584-0.27319-0.63914 0.10254-1.0598 0.2102-0.2314 0.7024-0.6258 1.0734-0.8729 0.72547-0.49805 0.83754-0.68225 0.51917-0.8948-0.30176-0.2087-1.1477 0.052-1.988 0.5938l-0.7013 0.46885-1.259-1.9829c-0.69166-1.1018-1.2439-2.0492-1.2286-2.1157 0.01513-0.0663 0.42077-0.2357 0.89294-0.3899 0.71448-0.22105 0.92517-0.2253 1.14-0.019 0.3545 0.3607 0.75684 0.43516 0.81762 0.16953 0.06312-0.35253-0.25328-0.87903-0.7595-1.1871-0.4104-0.26843-0.6377-0.2682-1.7034-0.0399l-1.2341 0.27696-0.77613-1.1909c-0.42639-0.65674-0.80542-1.2153-0.85132-1.2431-0.02588-0.0408 0.17505-0.53664 0.48145-1.1131 0.41723-0.83084 0.49072-1.0759 0.3513-1.2301-0.10106-0.09314-0.21874-0.18984-0.26854-0.20117-0.11621-0.02661-1.0885 0.93923-1.134 1.1384-0.01904 0.083-0.08776 0.15466-0.15417 0.1395-0.16615-0.03794-3.734-4.8378-3.7549-5.0524-0.01429-0.09055 0.08483-0.29492 0.22633-0.45495 0.1898-0.21875 0.19078-0.37574 0.03038-0.7444l-0.22815-0.4541-0.50243 0.28712-0.50636 0.30358-1.4269-1.7068c-0.76684-0.92662-1.8199-2.1285-2.3062-2.6764l-0.87914-0.96997 0.71558-0.37816c0.71166-0.36122 0.91674-0.64662 0.67236-0.8771-0.05505-0.06505-0.60022-0.0498-1.1975 0.04078l-1.0836 0.15392-0.75487-0.74913c-0.96595-0.97217-0.953-0.95179-0.46962-1.1559 0.22974-0.08716 0.45642-0.31494 0.49817-0.49743 0.08728-0.38195 0.0708-0.38575-0.96825-0.27393l-0.8285 0.10768-1.2102-1.2029c-0.6703-0.66003-1.2396-1.227-1.2651-1.2678-0.11914-0.16723 0.91614-0.87378 1.512-1.0347 0.65344-0.18262 0.8916-0.46022 0.62158-0.73145-0.25708-0.2511-1.5347-0.08899-2.4149 0.32141l-0.87636 0.39368-1.5618-1.423c-0.85438-0.77208-2.095-1.842-2.7421-2.3744-0.6472-0.53248-1.1855-1.0051-1.2151-1.0293-0.02552-0.04077 0.42664-0.5663 1.005-1.1854 0.95044-1.0233 1.0344-1.1614 0.85497-1.4471-0.16637-0.26513-0.29784-0.22533-1.2644 0.40991-0.59546 0.38806-1.2264 0.85546-1.4048 1.0242l-0.33655 0.32496-1.8094-1.4097c-1.5741-1.2163-1.7852-1.4392-1.5787-1.6541 0.31078-0.36584 0.05504-0.54674-0.8185-0.62402-0.6206-0.03699-1.009-0.24817-2.4666-1.2103-0.95117-0.65443-2.0864-1.4209-2.5468-1.7008l-0.82068-0.53725 0.57312-0.06115c1.3109-0.15454-0.02356-0.96643-1.4521-0.9087-0.54896 0.03174-0.90296-0.10156-2.0648-0.7517-0.77331-0.43885-1.4342-0.83448-1.4764-0.87928-0.21631-0.27649 3.3668-1.8861 3.9148-1.7609 0.14953 0.03418 0.39197-0.03246 0.55897-0.15186 0.65905-0.51306-0.7449-0.869-2.2968-0.5774-0.43653 0.07484-1.3907 0.5033-2.1417 0.96058l-1.3557 0.80835-2.6786-1.2766c-1.4646-0.70166-2.8536-1.3513-3.0786-1.4377-0.3412-0.11292-0.38477-0.22778-0.26563-0.67224 0.08118-0.27844 0.3739-0.71839 0.63391-0.9386 0.46642-0.43494 0.52588-0.77088 0.1272-0.86194-0.29883-0.06836-1.644 0.8473-1.989 1.3626-0.24047 0.36438-0.33484 0.39515-0.7107 0.20435-0.23387-0.1233-1.2498-0.4955-2.236-0.84327-1.003-0.3518-1.8692-0.68957-1.9205-0.77099-0.16284-0.28199 1.1265-1.7172 2.074-2.2692 0.66945-0.40625 0.93335-0.64294 0.87158-0.83179-0.07433-0.20935-0.24047-0.24731-0.92846-0.14245-1.0466 0.14527-2.0245 0.8302-2.8203 1.9413l-0.61499 0.85536-1.4944-0.34168c-0.83032-0.18982-1.782-0.45984-2.1028-0.58558l-0.59156-0.2401 0.16651-0.958c0.2146-1.244-0.14307-1.3607-0.78185-0.24867-0.25953 0.44727-0.50404 0.82825-0.5447 0.85401-0.17992 0.09863-4.2122-0.68347-4.1818-0.81641 0.01513-0.06653 0.39465-0.50378 0.83178-0.96301 0.68409-0.69982 0.79615-0.88392 0.63867-1.1122-0.1372-0.24084-0.32983-0.16272-1.1942 0.40844-0.55848 0.37892-1.247 0.86817-1.5109 1.105-0.46777 0.36473-0.61206 0.38415-1.8801 0.19897-0.76245-0.10437-1.8812-0.25549-2.4777-0.32178l-1.0931-0.11023 0.9192-0.73353c0.49572-0.41063 1.0173-0.78087 1.1653-0.81676 0.29981-0.08862 0.4939-0.7085 0.24488-0.76538-0.64759-0.14806-2.7192 0.81116-3.5168 1.6247-0.50195 0.5143-0.6742 0.57973-1.5258 0.5597-0.52099-0.01428-1.7736-0.03844-2.786-0.04296-1.0088-0.02074-1.8438-0.03711-1.8694-0.07788-0.13196-0.18738 2.2339-2.7394 2.7659-3.0021 1.0154-0.46678 0.55078-0.95738-0.64624-0.68945-0.88431 0.19971-1.6796 0.92651-2.6494 2.4171l-0.8247 1.3141-1.163 0.11853c-1.588 0.14349-1.8333 0.07014-2.1781-0.63776-0.37573-0.80236-0.72925-0.7085-0.77723 0.1891-0.04088 0.63732-0.06505 0.66674-0.6306 0.69457-0.31788 0.01477-1.3773 0.13928-2.3666 0.2627-0.97266 0.12707-1.8229 0.17736-1.8779 0.1123-0.05494-0.06507-0.0868-0.61401-0.07008-1.2218 0.05748-1.2449 0.49975-2.2621 0.948-2.1596 0.33228 0.07593 0.61218-0.38427 0.37158-0.63147-0.35437-0.36059-0.76282-0.33165-1.3992 0.08191-1.0557 0.71974-1.2754 1.2985-1.1038 2.8405 0.07678 0.73413 0.13037 1.3403 0.0896 1.366-0.02039 0.01282-0.76965 0.15602-1.6758 0.29834-0.89357 0.1626-2.2182 0.45386-2.9531 0.6875-0.7146 0.2212-1.3882 0.41663-1.4827 0.44751-0.27942 0.07593 0.55676-2.5112 0.97192-3.028 0.3833-0.45398 0.4845-0.97253 0.20228-1.037-0.21595-0.04945-1.4282 0.89635-1.7377 1.3325-0.15282 0.2096-0.40527 1.0081-0.57617 1.7555l-0.29845 1.382-1.1776 0.41211c-0.64807 0.23621-1.1904 0.39185-1.2327 0.34741-0.02184-0.05761-0.05065-0.46594-0.06823-0.92443-0.01747-0.45825-0.09631-0.87805-0.18835-0.93421-0.29272-0.17164-0.72632 0.65516-0.80384 1.5287l-0.07873 0.80334-0.90575 0.36939c-0.47975 0.18738-0.92384 0.29554-0.9751 0.21399-0.055-0.06507-0.05403-0.83385-0.03016-1.702 0.06701-1.5922-0.02832-2.0159-0.36896-1.9014-0.34076 0.11415-0.99225 2.429-0.96868 3.3954 0.026 0.87976 0.01842 0.91284-0.49305 1.1628-1.3992 0.6936-3.7004 1.7399-3.7222 1.6826-0.00897-0.037-0.10432-0.4607-0.21772-0.95838-0.2423-1.1562-0.69592-1.3125-0.79467-0.26916-0.15533 2.1312 0.01647 1.8386-1.7984 2.8214l-1.6351 0.88428-0.40076-0.61585c-0.22156-0.33032-0.5523-0.9475-0.73444-1.3736-0.35522-0.81519-0.86146-1.1229-0.98296-0.59168-0.07972 0.34876 0.28448 1.8125 0.69482 2.6925l0.29364 0.62634-0.93476 0.57251c-0.86962 0.51757-0.94366 0.53552-1.058 0.19494-0.06164-0.18897-0.34399-0.86487-0.63379-1.5078-0.28985-0.64294-0.55548-1.3152-0.61328-1.5208-0.12988-0.50145-0.65245-0.58593-0.75879-0.12096-0.10626 0.46496 0.22766 2.0615 0.67444 3.317l0.33252 0.91479-0.70508 0.48523c-0.39136 0.25989-0.77002 0.54028-0.85547 0.60815-0.08532 0.06775-0.43077-0.25573-0.74194-0.72888-0.32776-0.47668-0.67078-0.8872-0.75385-0.90613-0.39848-0.09118-0.42315 0.32264-0.09538 1.4109l0.33287 1.1422-1.0861 0.8523-1.1026 0.84875-0.60583-0.94227c-0.38428-0.61205-0.69642-0.9282-0.87769-0.89964-0.43273 0.05834-0.43079 0.35584 0.03637 1.5984l0.4275 1.1112-1.3319 1.1633-1.3447 1.1428-0.41083-0.49585c-1.3298-1.5973-1.9001-2.0071-2.2645-1.6362-0.1134 0.11388 0.17505 0.68678 0.77943 1.5588 0.5404 0.7699 0.926 1.4521 0.87383 1.5277-0.30939 0.43603-1.9331 1.882-2.0826 1.8478-0.09961-0.02283-0.46301-0.42029-0.80738-0.901-0.50573-0.69225-0.66564-0.83375-0.90295-0.71315-0.33539 0.16786-0.21062 0.61574 0.47248 1.9077 0.22296 0.40051 0.39996 0.77307 0.3886 0.82275-0.01525 0.06642-1.3657 1.54-1.4919 1.6336-0.03699 0.00891-0.5968-0.29383-1.2577-0.6897-1.1504-0.69971-1.6449-0.83033-1.7208-0.49829-0.03802 0.16614 1.3952 1.7693 1.8516 2.0659 0.24292 0.1604 0.18311 0.26904-0.59131 1.2103-0.45984 0.55884-0.91332 1.0142-0.97972 0.99902-0.08314-0.01904-0.27382-0.25463-0.42378-0.5161-0.31642-0.52674-0.75189-0.609-0.85828-0.1438-0.03412 0.1494 0.05744 0.58972 0.21771 0.95837 0.1399 0.38147 0.20063 0.72743 0.13562 0.78235-0.07775 0.03454-0.17687 0.23901-0.25573 0.43078-0.06598 0.21204-0.41468 0.7439-0.7649 1.2054l-0.66479 0.84399-0.71069-0.40722c-0.61866-0.35096-0.76806-0.38514-1.0129-0.23157-0.24488 0.15393-0.18457 0.27245 0.37328 0.88928 0.3506 0.3772 0.59028 0.78137 0.5342 0.87354-0.05977 0.10863-0.46083 0.71593-0.886 1.3525-0.42883 0.65332-0.8441 1.1699-0.94372 1.1471-0.08288-0.01892-0.31446-0.22913-0.49238-0.44446-0.34307-0.41052-0.77862-0.49267-0.85833-0.14404-0.00623 0.1035 0.1593 0.52588 0.37475 0.95947l0.39991 0.77283-0.71131 1.2004c-0.41614 0.6737-0.78155 1.2018-0.8313 1.1903-0.06646-0.01515-0.17175-0.31885-0.26184-0.68897-0.16369-0.73633-0.68457-1.9738-0.85058-2.0117-0.04981-0.01136-0.21448 0.02088-0.36634 0.07349-0.22961 0.08728-0.19311 0.46265 0.1958 2.1242 0.58631 2.6328 0.39698 3.0787-1.201 2.7307-0.54798-0.12524-2.7286-0.0647-2.759 0.06824-0.06683 0.36916 0.28846 0.57276 1.7217 0.95286l1.5661 0.4104-1.0059 1.9542c-0.54431 1.0813-1.2029 2.4334-1.4597 3.0212-0.2771 0.6006-0.54047 1.0647-0.60688 1.0496-0.0664-0.01525-0.19073-0.23595-0.28711-0.50255-0.09625-0.26674-0.32019-0.51015-0.50274-0.5519-0.49823-0.1139-0.62549 0.7482-0.29346 2.0471l0.26135 1.0733-0.90588 2.2043c-0.52103 1.2088-1.2756 3.1334-1.6984 4.2946-0.41901 1.1449-0.80011 2.1236-0.85749 2.1454-0.04461 0.04225-0.30695-0.26244-0.57977-0.6742-0.25995-0.39146-0.74243-0.9563-1.0456-1.2351-0.52185-0.46886-0.60108-0.5045-0.88672-0.3252-0.28943 0.19606-0.21118 0.3887 0.88513 2.0897l1.1951 1.8808-0.30603 0.8037c-0.15613 0.4535-0.39539 0.88805-0.52161 0.9817-0.12622 0.09336-0.19592 0.3219-0.1637 0.4867 0.07349 0.3662-0.55438 3.0359-1.0039 4.3136l-0.29321 0.82407-0.73151-1.2332c-0.62518-1.0864-0.76849-1.2242-1.0466-1.078-0.27802 0.146-0.28796 0.2661-0.01148 1.2731 0.17359 0.6161 0.53931 1.5386 0.82251 2.0576l0.50617 0.91955-0.72809 3.6427-0.74097 3.6224-0.95019-0.8114c-0.84546-0.735-1.4038-0.96754-1.4798-0.6354-0.03412 0.1494 1.0953 1.8579 1.7045 2.5565l0.48242 0.56457-0.40064 2.6692c-0.2141 1.4713-0.40777 2.9298-0.40588 3.2272l-0.04229 0.56686-0.99634-0.22776c-0.76392-0.1747-1.0281-0.1652-1.1567 0.0151-0.23303 0.3311-0.1908 0.37575 0.92883 0.98134 1.0902 0.58116 1.1121 0.63866 0.86329 2.6437l-0.15479 1.1353-0.56396 0.0981c-0.78254 0.13576-0.79816 0.5863-0.01636 0.8351l0.58642 0.1865-0.12396 1.8413c-0.05804 1.0177-0.1402 3.288-0.15838 5.0487-0.0348 1.757-0.05488 3.2201-0.0625 3.2532-0.00757 0.0332-0.73389-0.53466-1.6329-1.2645-0.88238-0.7261-1.6063-1.3808-1.595-1.4306 0.01141-0.0498 0.13995-0.2301 0.28137-0.39004 0.16181-0.1726 0.46839-0.749 0.70996-1.2704 0.41938-0.9176 0.43421-1.2114 0.02283-1.323-0.13281-0.03039-1.3224 1.4276-1.5806 1.9452-0.11053 0.25427-0.23913 0.43467-0.25573 0.43091-0.03333-0.00754-1.0281-0.77684-2.2122-1.7116l-2.1587-1.7167 0.14813-0.6477c0.1936-0.8468 0.26923-2.6294 0.11035-2.9276-0.0603-0.1188-0.23157-0.2102-0.37579-0.19094-0.19794 0.02464-0.33124 0.37854-0.5705 1.4248-0.17462 0.76379-0.35211 1.3873-0.38531 1.3797-0.03321-0.00766-1.3056-1.0151-2.8428-2.2402-1.537-1.2252-3.0192-2.3854-3.3043-2.5903-0.46541-0.33349-0.48726-0.39111-0.19405-0.60351 0.18373-0.11535 0.30324-0.33265 0.29665-0.4563-0.03516-0.30515-0.74012-0.4314-1.0576-0.18945-0.37866 0.2805-0.68653 0.17504-1.0452-0.39625-0.17932-0.28575-0.37243-0.43455-0.49475-0.35791-0.10205 0.06421-0.40991-0.04114-0.77435-0.28174-1.0561-0.7308-2.9628-1.6385-4.3975-2.089-1.2891-0.3995-1.3939-0.47594-1.3972-0.8436-0.00751-0.5784-0.60541-0.7151-0.73065-0.1671-0.11011 0.48154-0.31702 0.4692-3.3108-0.04055-5.2991-0.8971-10.255-0.77245-14.233 0.34509-5.4526 1.5315-16.193 3.9508-16.356 3.6691-0.03845-0.0613 0.05933-0.3359 0.2439-0.60815 0.24438-0.38095 0.27856-0.53039 0.15051-0.73449-0.23059-0.36719-0.93567 0.11804-1.5773 1.0898l-0.50147 0.74133-5.2903 0.97461c-6.4593 1.1964-6.9827 1.2691-6.7738 0.96726 0.0802-0.12143 0.01465-0.29355-0.13614-0.3981-0.1969-0.1323-0.48401-0.0233-1.1112 0.42736-0.74969 0.52759-1.2716 0.67044-4.4994 1.2602-2.0051 0.36293-4.2896 0.8014-5.0758 0.9536l-1.4485 0.298 0.33978-1.1805c0.20172-0.65271 0.513-1.4027 0.69757-1.6752 0.45459-0.61244 0.31373-0.8369-0.36242-0.5547-0.77808 0.3463-1.4134 1.2146-1.8003 2.5239l-0.3526 1.1601-5.3496 1.3105c-2.944 0.7245-5.4401 1.3246-5.5474 1.3352-0.14416 0.0193-0.06207-0.4161 0.23071-1.4676 0.36792-1.2263 0.39917-1.5163 0.20227-1.6486-0.48578-0.3208-1.3271 0.9894-1.7144 2.6834l-0.23682 0.95935-1.5159 0.4396c-2.1654 0.6058-6.0223 1.9603-7.8325 2.7696-0.85211 0.36437-2.4335 1.2434-3.4983 1.926-2.3614 1.5394-3.5519 1.9311-6.3526 2.1819-1.6084 0.1565-9.9175 0.19616-10.499 0.06326-0.13281-0.0303 0.48316-1.6544 0.72516-1.9485 0.14142-0.1599 0.12958-0.3374-0.00238-0.5249-0.17407-0.2318-0.28125-0.2216-0.60632 0.0538-0.32502 0.27504-1.0188 1.3222-1.488 2.2283-0.03943 0.0958-0.54614 0.17223-1.1003 0.15026-0.55414-0.02186-1.199-0.02942-1.4096-0.02526-0.40094-0.00416-0.40991-0.0414-0.18542-0.7937 0.21301-0.70265 0.20264-0.80995-0.079714-0.8745-0.24903-0.0569-0.46826 0.13755-0.86023 0.78184l-0.54853 0.87073-2.1616-0.02257c-1.1862-0.00905-2.1963-0.10024-2.2641-0.1858-0.17169-0.31886-0.20062-1.339-0.040224-1.5817 0.13623-0.2135-0.05737-0.5897-0.35242-0.6748-0.23248-0.0532-0.755 1.0856-0.79578 1.7227l-0.04846 0.6704-2.0288 0.0079c-2.1692 0.01077-2.9829-0.17527-4.251-0.972-0.50244-0.3246-0.69787-0.38674-0.91858-0.2625-0.25378 0.1167-0.2268 0.2277 0.15082 0.7161l0.4455 0.5735-0.93848-0.02236c-0.52087-0.01428-1.5206 0.00183-2.2228 0.01586l-1.2511 0.0459-0.36432-0.8519c-0.417-1.0039-1.01-1.3144-0.99817-0.5254 0.005614 0.2809 0.045899 0.6395 0.078184 0.80406 0.12097 0.46448 0.03839 0.67298-0.26056 0.60464-0.68078-0.15566-12.591 0.19627-20.05 0.57-5.6261 0.3037-8.3271 0.57726-10.42 1.0946-2.1631 0.5189-3.3554 0.6133-3.9893 0.3285-0.78851-0.37233-1.6534-1.2517-3.0334-3.0874-1.8345-2.4466-3.123-3.8419-4.9135-5.3347-5.0184-4.188-10.724-6.9778-17.499-8.527-2.4576-0.5619-11.402-2.1002-11.582-2.0016-0.040771 0.02563 0.62097 1.4874 1.4416 3.2477 3.1503 6.6265 9.3981 15.831 13.906 20.496 6.0644 6.2618 13.078 9.8226 22.387 11.374 11.916 1.9907 27.581 1.5713 58.011-1.5182 2.2186-0.2266 7.5852-0.69436 11.929-1.0467 7.6198-0.6167 7.9006-0.62219 8.1516-0.2677 0.25104 0.35436 0.28424 0.36196 0.81714-0.05784 0.61058-0.45455 0.62718-0.45076 6.9502-0.82235 3.6652-0.21035 9.3193-0.55995 9.6613-0.60415 0.14422-0.01926-0.02136 0.1698-0.38855 0.4004-0.47302 0.3112-0.63867 0.5006-0.56421 0.70974 0.08728 0.22986 0.24048 0.24731 1.0917 0.04016 0.53473-0.12244 1.5809-0.4949 2.3221-0.8323 1.1672-0.51914 1.7759-0.65965 4.403-0.91526 6.8038-0.71588 11.41-1.3748 17.141-2.441 1.9922-0.3833 3.631-0.67236 3.6567-0.63159 0.02551 0.04077-0.19043 0.60303-0.47894 1.2535-0.75495 1.6969-0.78156 1.8132-0.48127 1.9519 0.39624 0.17775 1.4662-1.0627 2.0992-2.4558l0.55054-1.1846 1.743-0.44018c3.3218-0.84805 5.5024-1.5202 8.6523-2.687 4.1796-1.5431 6.5543-2.2233 8.7141-2.4983 1.5291-0.19204 2.0463-0.16114 3.6428 0.11646l1.8583 0.3552-0.05267 1.0712c-0.01667 0.6079-0.01435 1.1326 0.0075 1.19 0.17029 0.24855 0.63581-0.02942 0.73072-0.44455 0.05694-0.24905 0.19397-0.61953 0.28942-0.8075l0.18323-0.3424 0.70593 0.58066c0.38233 0.31457 1.0338 1.0576 1.4421 1.6402 0.73255 1.0763 0.73255 1.0763 0.51233 2.0393-0.20123 0.88-0.18707 0.9707 0.1308 0.95596 0.19403-0.00796 0.38526-0.1565 0.42328-0.32266 0.16321-0.71396 0.53571-0.2793 1.9683 2.3198l0.33436 0.60085-0.46735 0.592c-0.24585 0.31057-0.5575 0.8335-0.66291 1.1415-0.25628 0.81506 0.25336 0.879 0.92853 0.14233 0.28284-0.31983 0.60401-0.57837 0.72791-0.58483 0.10717-0.0105 0.6488 0.8298 1.1783 1.8768l0.97668 1.9185-0.52899 0.4032c-0.42327 0.3225-0.50726 0.4607-0.39959 0.6776 0.12048 0.23705 0.24048 0.24694 0.75354 0.06725l0.62378-0.20678 1.1831 2.315c0.6499 1.2843 1.5228 2.9692 1.9687 3.77 0.72528 1.3366 0.7652 1.4679 0.52374 1.9894-0.20068 0.49576-0.20318 0.5827 0.07911 0.64725 0.16607 0.03795 0.39709 0.02099 0.49914-0.04309 0.12244-0.07691 1.157 1.4353 2.7174 4.0111l2.5133 4.1395-0.68567 0.6294c-0.36053 0.3545-0.98498 0.94554-1.3456 1.2999-0.37719 0.3505-0.65106 0.7073-0.62402 0.8185 0.15265 0.40185 0.67847 0.2424 2.0122-0.6233l1.4191-0.9336 1.1898 1.8272c0.66468 0.9906 1.3217 2.0146 1.4957 2.2468l0.31507 0.45616-1.0568 0.87684c-1.1942 1.0199-1.9966 2.0072-1.9473 2.4031 0.03228 0.16453 0.10528 0.30346 0.17547 0.302 0.06653 0.01513 0.88642-0.51367 1.7864-1.1641 0.91681-0.6466 1.7495-1.1551 1.8657-1.1285 0.11621 0.02649 0.26996 0.27133 0.32929 0.54699 0.05542 0.29224 0.2091 0.53699 0.30871 0.55984 0.09961 0.0228 1.143 1.3447 2.3027 2.9205 4.2108 5.733 8.6432 11.185 17.36 21.286 0.49903 0.56846 0.85107 1.0158 0.78467 1.0006-0.06641-0.01515-2.2911-0.9082-4.9617-1.9907-4.1248-1.677-6.4695-2.58-12.157-4.6843-0.82404-0.29324-0.87909-0.35828-0.83026-0.80139 0.06274-0.57972-0.40223-0.68605-0.7804-0.17845-0.14904 0.1931-0.34546 0.28794-0.4873 0.2207-0.58924-0.32704-6.1776-2.2514-8.8924-3.0645l-3.0099-0.8977 0.00195-0.92563c-0.00457-1.0497-0.04449-1.1809-0.44012-1.1316-0.20166 0.0411-0.32886 0.2917-0.46551 0.8894l-0.18988 0.8303-4.5665-1.0442c-2.5074-0.57335-5.8808-1.2572-7.5142-1.526-1.6169-0.2649-3.0232-0.53405-3.1153-0.58983-0.09198-0.05617 0.54761-0.71363 1.4003-1.4623 1.3892-1.185 1.5549-1.3744 1.3884-1.6395-0.16657-0.26526-0.31079-0.24573-1.2762 0.2323-0.60981 0.29734-1.6565 1.0541-2.3383 1.6671-1.1446 1.0312-1.2836 1.1043-1.8149 0.9829-0.81366-0.1862-4.9856-0.5109-7.5201-0.58363-4.9822-0.14317-8.4866 0.66293-8.7941 2.0079-0.07971 0.34876-0.74023 0.79175-1.0723 0.7158-0.0664-0.0151-0.11425-0.34056-0.08062-0.71726 0.03088-0.51709-0.03083-0.70604-0.26325-0.75914-0.39856-0.0912-0.51953 0.056-0.85986 1.009-0.33643 0.93666 0.05414 0.83363-4.7138 1.2811-1.6251 0.15271-3.0892 0.28966-3.2539 0.3219-0.25519 0.04651-0.3064-0.03504-0.23047-0.36719 0.05316-0.23242-0.01379-0.47495-0.13147-0.57175-0.24286-0.1603-0.5105 0.0929-0.86395 0.7983-0.17035 0.3632-0.46503 0.5054-1.4567 0.7155-5.9905 1.2861-12.715 4.4839-15.881 7.552-0.53894 0.52317-1.5472 1.3412-2.2319 1.8136-1.6716 1.1204-4.2765 2.2721-4.6612 2.0445-0.18415-0.11207-0.35638-0.04664-0.53339 0.19263-0.35009 0.4614-0.91662 0.6465-5.1583 1.7734-1.9729 0.5275-4.3807 1.2-5.3378 1.4879-1.9752 0.61416-1.9624 0.63466-0.58966-1.1657 0.57562-0.7597 0.71796-1.0766 0.61554-1.2398-0.34589-0.55075-2.4412 1.2766-3.2972 2.8805-0.28235 0.54714-0.51062 0.70473-1.5288 1.031-2.8975 0.9799-7.3348 2.6564-10.137 3.8327-1.6801 0.69933-3.1025 1.2652-3.1856 1.2462-0.06647-0.01515-0.19739-0.35964-0.27991-0.76296-0.09674-0.49374-0.24664-0.75549-0.47912-0.80859-0.29889-0.06835-0.33448 0.01099-0.42993 0.8103-0.060306 0.49305-0.094971 1.0268-0.0755 1.1712 0.028444 0.18115-0.54285 0.5398-1.7712 1.0975-3.3408 1.5426-6.3442 3.215-10.245 5.678-4.1621 2.6128-5.8342 3.5062-8.5529 4.5446-2.0834 0.78164-7.6086 2.4014-7.7111 2.2383-0.03845-0.06115 0.07214-0.31545 0.24914-0.55469 0.31324-0.45266 0.30994-0.82031 0.010985-0.88866-0.23242-0.0531-0.76147 0.3501-1.8153 1.3673l-0.82708 0.7894-4.431 0.9614c-2.4274 0.5283-5.3192 1.1777-6.4257 1.4314-1.0936 0.27403-2.0278 0.4624-2.0369 0.4254-0.02563-0.0408 0.42896-0.6533 1.0173-1.3925 0.56799-0.72634 1.0416-1.4219 1.0183-1.5494-0.0351-0.3052-0.08869-0.2999-0.64246-0.0945-0.80371 0.30557-2.0564 1.5043-2.5854 2.5192-0.48211 0.88573-0.57129 0.9702-1.4263 1.1941-0.50152 0.12986-2.7908 0.74217-5.0968 1.3507-11.755 3.1134-18.983 5.7591-23.955 8.7811-3.4456 2.0778-2.6974 2.0916-11.765-0.05174-5.2564-1.237-7.5911-1.6485-12.183-2.1218-13.047-1.3234-24.259-0.35733-26.112 2.2421-0.43799 0.61624-0.57324 1.8957-0.31567 2.9856s1.5744 3.2781 2.6926 4.4248c3.0732 3.219 7.976 6.3845 12.058 7.7897 3.0792 1.0537 7.4622 1.6014 20.205 2.5756 8.244 0.62685 12.514 0.29275 22.147-1.7157 1.6539-0.35572 3.0284-0.6355 3.0616-0.62781 0.01666 0.00378-0.10059 0.7456-0.28522 1.6295-0.28814 1.4892-0.28912 1.6465-0.006834 1.7109 0.41516 0.095 0.73077-0.4446 1.285-2.2573l0.44281-1.4015 6.9817-1.7236c7.0187-1.7326 7.3646-1.7932 7.1824-0.99622-0.045536 0.19922 0.04785 0.32556 0.28033 0.37866 0.31549 0.07215 0.36774-0.0033 0.466-0.66235l0.096802-0.72915 3.476-0.9875c1.9192-0.52224 3.5386-0.9557 3.6216-0.9367 0.08301 0.01895 0.297 0.38235 0.47913 0.8084 0.5849 1.3395 1.326 1.0022 0.79852-0.359-0.1452-0.4351-0.25568-0.7924-0.21478-0.818 0.03698-0.00906 1.207-0.3881 2.599-0.82107 1.3883-0.41638 3.819-1.1887 5.3743-1.7242l2.8364-0.94154 0.74048 1.2701c0.3985 0.70276 0.7904 1.2815 0.87342 1.3005 0.43176 0.09866 0.41894-0.53308-0.030275-1.7019l-0.4928-1.2833 2.8169-1.0858c5.2969-2.0737 6.9244-2.9249 11.728-6.1251 1.5658-1.04 1.9548-1.213 3.6904-1.62 1.8428-0.4174 2.9559-0.54726 9.8621-1.1 1.6046-0.13965 3.7657-0.34466 4.792-0.477 1.4794-0.20324 1.8266-0.1937 1.6943 0.0032-0.29657 0.4563-0.30274 0.5597-0.035646 0.6908 0.19165 0.0787 0.5105-0.09304 0.9693-0.4949 0.5965-0.54516 0.92054-0.6631 2.7073-0.9885 4.7797-0.8816 9.6848-2.3112 13.519-3.9506 1.18-0.499 2.1432-0.89036 2.1559-0.86985 0.02942 0.02415-0.19268 0.68982-0.47454 1.464-0.52051 1.4362-0.57325 1.8959-0.25782 1.968 0.41516 0.09495 1.9474-2.4029 2.2246-3.6152 0.1405-0.6144 0.25378-0.72817 1.2028-1.2101 0.55615-0.29224 2.2637-1.2646 3.7659-2.1793 4.3396-2.6248 7.0246-3.898 9.4136-4.4876 0.94177-0.2214 4.1207-0.36826 4.8014-0.2126 0.06641 0.01524 0.0683 0.3126 0.02551 0.6523-0.08056 0.5059-0.02801 0.6576 0.23773 0.7184 0.24903 0.0569 0.38288-0.0697 0.6153-0.6283 0.16138-0.39977 0.36499-0.755 0.44659-0.8064 0.09821-0.04735 0.93799-0.20494 1.8775-0.33946 0.94311-0.15134 2.6598-0.47524 3.816-0.71754 2.2461-0.49987 2.527-0.5056 2.5891-0.08947 0.03601 0.14807 0.19201 0.30603 0.37475 0.34777 0.28235 0.0646 0.33448-0.01085 0.37439-0.4911 0.02185-0.55405 0.02185-0.55405 2.1208-1.1748l2.099-0.6211 0.73169 0.6216c0.41174 0.3389 0.90143 0.64295 1.1007 0.6885 0.73053 0.1671 0.73016-0.67165-0.01184-1.4005l-0.42981-0.41275 1.1724-0.46595c1.6649-0.6327 4.5805-2.1501 5.1285-2.6366 0.54425-0.4696 3.4228-1.9781 4.4245-2.3082 0.37768-0.1233 1.0234-0.2727 1.4523-0.31435 0.75439-0.0896 0.75439-0.0896 0.5675 0.26941-0.11194 0.18408-0.34693 0.82934-0.55005 1.4118-0.29565 0.91104-0.3042 1.1012-0.0907 1.2374 0.1637 0.12475 0.31555 0.07215 0.47583-0.17075 0.12866-0.1803 0.52197-0.7543 0.90021-1.262 0.36151-0.51134 0.69372-1.047 0.72784-1.1964 0.09876-0.43176 1.766 0.07166 3.1888 0.9562l1.222 0.76866-0.16224 0.557c-0.1054 0.30799-0.34503 1.1268-0.57098 1.8091-0.48584 1.5139-0.46326 3.2489 0.02063 3.2722 0.2605 0.0072 0.39001-0.33006 0.98614-2.3256 0.36261-1.2802 0.72175-2.3162 0.78827-2.301 0.21582 0.0494 1.9788 1.8153 3.8124 3.8072 4.0396 4.4185 7.9335 8.1745 12.002 11.551 1.2942 1.0647 2.3788 1.9768 2.4044 2.0174 0.02563 0.0408-0.22541 0.298-0.55041 0.57325-0.88202 0.72435-0.59546 0.99951 0.70739 0.65085 0.89197-0.2329 1.0822-0.2242 1.4428 0.033 0.22626 0.1566 1.8232 1.2731 3.525 2.4659l3.1018 2.1772-0.61694 0.55785c-0.63343 0.5542-0.89533 1.0883-0.57977 1.1604 0.09954 0.0227 0.69036-0.1915 1.3-0.489l1.1174-0.5309 0.92041 0.55996c0.48571 0.32094 2.2165 1.3105 3.8462 2.2074 1.613 0.89319 2.9719 1.6756 2.9936 1.7332 0.04217 0.04456 0.25189 0.80884 0.4848 1.7009 0.62506 2.3097 1.129 2.0929 0.61865-0.26063l-0.24609-1.1396 0.81415 0.41357c0.43451 0.23916 1.1937 0.5874 1.6818 0.82126l0.88818 0.3953-0.26526 0.77807c-0.34271 1.04-0.07275 1.3114 0.40942 0.42553 0.20734-0.37194 0.42371-0.7068 0.48865-0.76183 0.14667-0.10633 2.1337 0.68003 2.3077 0.91213 0.05133 0.0815-0.02228 0.3269-0.18274 0.5698-0.44928 0.666-0.13092 0.87854 0.45648 0.2965 0.27515-0.2866 0.61829-0.48766 0.7677-0.4535 0.14942 0.0342 1.2611 0.4456 2.4481 0.9093 2.8608 1.091 6.8752 2.4108 10.016 3.2688l2.5306 0.70094-0.474 0.46826c-0.45745 0.47205-0.52051 0.8245-0.13867 0.9119 0.11633 0.0266 0.62402-0.20694 1.1468-0.50674l0.95137-0.56861 3.1219 0.71375c1.7141 0.3745 4.9048 1.0167 7.0696 1.4069 4.6364 0.81545 7.7354 1.629 8.8029 2.31 0.93329 0.58034 1.689 1.784 2.1082 3.3128 0.35242 1.2861 0.24042 2.082-0.28535 2.2413-0.44786 0.12475-2.2413-0.2853-3.8358-0.8772-4.4758-1.67-6.6616-2.2747-16.95-4.662-6.9002-1.6128-10.485-2.5198-10.674-2.6852-0.16369-0.125-0.60437-0.8723-0.97485-1.6211-0.61151-1.2231-1.1324-1.849-1.3938-1.699-0.16321 0.10244 0.76746 1.9927 1.3524 2.7206 0.32641 0.40662 0.56976 0.79431 0.55463 0.8606-0.01899 0.08313-0.41236 0.04556-0.86073-0.05701-1.7436-0.39868-5.9334-0.79748-8.0732-0.76233l-2.2063 0.01953-0.6167-0.66503c-0.88806-1.0071-2.8982-1.9209-2.0894-0.9497 0.13562 0.1709 0.67785 0.62694 1.1855 1.0049l0.92706 0.68393-2.2911 0.31482c-5.3609 0.74865-9.5956 2.2267-10.213 3.5531-0.58984 1.2805-2.2638 2.488-5.7382 4.1574-7.1252 3.4206-16.334 11.52-24.621 21.629l-2.1334 2.605-1.0964 0.1337c-0.58978 0.0575-1.3594 0.2135-1.7 0.32776-0.62396 0.20678-1.3888 0.80078-1.2774 1.001 0.04224 0.04467 0.85633-0.15356 1.821-0.47473 0.9773-0.30066 1.7787-0.5194 1.8043-0.47864 0.02564 0.04077-0.36768 0.61487-0.85791 1.3065-1.379 1.9039-3.4473 5.0654-4.2882 6.603-0.49871 0.8822-1.0501 1.6122-1.5535 2.0563-0.82844 0.7192-0.91871 0.9607-0.26526 0.77806 0.37012-0.09006 0.38281-0.06982 0.22009 0.26004-0.08264 0.2082-0.37116 0.85873-0.59467 1.4541-0.44464 1.1041-1.2271 2.4629-2.0561 3.5664l-0.4303 0.58286-0.17175-0.93029c-0.08917-0.5271-0.24573-0.91247-0.34009-0.88147-0.20544 0.05773-0.30896 1.2748-0.18097 2.0902 0.09443 0.5808 0.03852 0.67286-2.5434 3.7869-1.4482 1.7483-3.9805 4.6465-5.6304 6.4359-1.6332 1.7933-3.7111 4.0791-4.6078 5.0972-0.90051 1.0348-1.6816 1.8522-1.748 1.837-0.24915-0.057 0.17865-3.2268 0.711-5.0971 0.30432-1.1012 0.4776-1.9353 0.38318-1.9043-0.07788 0.03455-0.36066 0.35425-0.60505 0.73525-0.39715 0.5907-0.47064 0.83603-0.58184 2.0862-0.05835 0.7904-0.11829 2.1222-0.12549 2.9941l-0.02246 1.5502-4.5405 5.5666c-3.0491 3.7063-4.6362 5.5276-4.7986 5.473-0.49427-0.13064-0.55555-0.09228-0.35828 0.26756 0.18841 0.32265 0.04846 0.55263-1.9815 3.1641-1.1958 1.5613-3.0026 3.9613-4.0404 5.3666-1.034 1.3886-1.9598 2.6098-2.0527 2.7108-0.10583 0.08066-1.0931 0.50144-2.1915 0.9491-1.7096 0.67514-3.0409 1.4541-3.1207 1.8027-0.07214 0.31556 0.59259 0.08313 2.0924-0.7446 2.0559-1.1201 2.8952-1.5048 2.6826-1.1864-1.6436 2.2975-4.71 6.996-5.8844 8.9988l-1.5308 2.5681-1.8505 0.45068c-2.2778 0.5625-3.2524 1.0036-2.5383 1.1668 0.38183 0.0874 1.6682-0.265 3.037-0.8258l1.217-0.5079-0.20978 0.4587c-0.12335 0.2339-0.28229 0.547-0.36249 0.6685-0.0636 0.1252-0.35687 0.9492-0.62457 1.8142-0.50116 1.5804-0.50495 1.597-2.0783 3.2816-2.0181 2.1771-7.1268 7.0199-11.727 11.088-1.9895 1.7467-4.8303 4.3123-6.3316 5.6815-1.5013 1.3692-2.7312 2.4682-2.7568 2.4275-0.025634-0.04087 0.00769-0.64475 0.06372-1.3485 0.12586-1.5437 0.04535-3.4842-0.13733-3.5261-0.28228-0.06446-0.44458 0.4924-0.41711 1.4424 0.015135 0.54514 0.06195 1.6391 0.10705 2.4359l0.05774 1.4285-2.6558 2.5205c-1.4514 1.3806-3.1539 3.0183-3.7655 3.6296-1.1099 1.1093-1.1304 1.1222-1.1976 0.65235-0.11621-0.63805-0.31117-0.47309-0.38245 0.29699-0.04608 0.58362-0.35303 0.93266-3.3575 3.9851-4.0569 4.1398-6.5324 6.7888-9.4496 10.071-4.1006 4.6364-5.5345 6.4754-7.5517 9.7185-1.3922 2.2678-2.4494 3.5289-3.9217 4.6948-1.0862 0.85264-1.3845 1.0115-7.5817 3.7357-5.1318 2.2689-7.8383 3.7119-12.637 6.7387-7.1447 4.4996-11.57 8.1879-15.548 12.975-1.7794 2.1268-3.3168 4.571-4.2445 6.7179-0.802 1.8261-1.2847 4.3192-1.0362 5.3722 0.2215 0.94175 1.1424 1.7289 2.3214 1.9986 2.395 0.53014 9.3434 0.0221 14.483-1.0569 7.7684-1.6486 14.81-4.704 20.699-8.9839 4.211-3.056 6.8999-5.569 10.338-9.6755 3.5792-4.2665 8.6875-8.725 17.25-15.067 2.1214-1.5594 4.1446-3.0712 4.4862-3.3426l0.64246-0.51707 0.006594 0.73537c0.01269 1.2436 0.35339 1.1293 0.66479-0.2323l0.27344-1.1958 2.7368-2.1873c1.5003-1.2122 3.0656-2.4792 3.4723-2.8056l0.71124-0.58877 0.12805 0.8156c0.29626 1.99 1.6274 5.4919 2.0112 5.2652 0.20032-0.11157-0.1958-1.5127-0.78174-2.6951-0.37048-0.74866-0.54547-1.4352-0.61755-2.3428-0.03076-0.70607-0.093325-1.3495-0.11511-1.4069-0.018006-0.07395 0.43176-0.5129 0.99646-0.9952 0.58117-0.4788 1.9169-1.6587 2.9926-2.6183 1.0757-0.9597 1.9767-1.7672 2.0174-1.7928 0.04468-0.04226 0.44416 0.50344 0.87964 1.197 0.80689 1.2855 2.0822 2.4333 2.4494 2.2027 0.10199-0.06409-0.23858-0.56128-0.94738-1.2827-0.9289-0.98093-1.7614-2.3072-1.6703-2.7058 0.01141-0.0497 0.80524-0.8468 1.766-1.7629 8.1442-7.8007 13.628-14.742 17.539-22.217 0.68426-1.3114 1.6589-2.9757 2.1529-3.6841 2.3413-3.3612 7.2219-8.6581 11.108-12.051l1.003-0.87145-0.38818 1.2392c-0.46704 1.4309-0.54541 2.4615-0.21326 2.5374 0.18274 0.04175 0.31458-0.38245 0.72089-2.1592l0.48462-2.1958 4.5418-4.2735 4.5419-4.2733-0.27386 1.5799c-0.27771 1.5965-0.25507 2.1085 0.10217 1.9979 0.11493-0.0437 0.30609-0.8036 0.55487-2.1971l0.36603-2.1355 1.2156-1.1898c4.2306-4.1347 9.8476-10.207 13.539-14.658 4.5548-5.4762 7.2571-9.5762 9.1865-13.888 0.60889-1.3635 1.307-2.8115 1.5756-3.2218 0.4773-0.7121 0.53858-0.7507 2.8149-1.3833 1.2864-0.3524 2.3287-0.7081 2.3146-0.7988-0.05176-0.30884-0.9964-0.2279-2.4052 0.20154-0.81262 0.26846-1.5159 0.43969-1.5415 0.3988-0.06018-0.11854 1.8297-1.8882 2.977-2.7792 0.51233-0.40697 2.1176-1.5426 3.561-2.5056 1.4599-0.95925 3.4755-2.438 4.5004-3.252 1.0452-0.8269 2.1569-1.6387 2.4962-1.8232 0.35589-0.18066 0.55468-0.36246 0.43847-0.38906-0.26575-0.0608 3.3798-3.7003 4.2775-4.2639 0.86066-0.55456 2.8168-1.0858 4.4955-1.2436 1.1591-0.10181 2.3775-0.53965 2.2073-0.78835-0.12812-0.2041-2.0605 0.07045-3.2344 0.4662-0.87018 0.29017-2.389 0.5895-2.6713 0.5249-0.03321-0.00756 0.84942-1.1163 1.9498-2.4897 3.6451-4.4785 5.9232-8.0989 8.4393-13.447 0.74878-1.5936 1.3666-2.92 1.3742-2.9534 0.00757-0.0332 1.7881 1.5796 3.9562 3.5606 2.1515 1.9773 5.1854 4.6805 6.6998 6.0054 1.5347 1.3119 2.7882 2.4023 2.8175 2.4264 0.01288 0.02038-0.0318 0.67434-0.10681 1.4609-0.15289 1.4329-0.0633 2.1871 0.31429 2.6755 0.26757 0.35817 0.26001 0.39137 0.25256-1.4101-0.00415-0.8223 0.03625-1.6868 0.08557-1.9026l0.09118-0.39845 1.0228 0.72315c0.98963 0.7156 3.9092 2.4663 5.2244 3.1342 0.5636 0.28615 0.64429 0.39195 0.55322 0.79055-0.12536 0.54795 0.23181 1.6605 0.5473 1.7326 0.21588 0.04946 0.23108-0.01694 0.13288-0.58129-0.04407-0.34195-0.06531-0.7837-0.02356-0.96631 0.07971-0.34874 0.12952-0.33741 1.1785 0.04226 1.7606 0.62973 9.1563 2.2161 11.28 2.4046 1.0433 0.0987 1.8964 0.1888 1.9092 0.2093 0.01288 0.02053-0.47821 0.2577-1.088 0.5552-1.0191 0.4834-1.9928 1.379-1.8913 1.6992 0.03467 0.0778 0.89295-0.3899 1.926-1.01 1.0163-0.62377 2.0264-1.144 2.2167-1.1356 1.186 0.00915 12.59 1.1838 12.671 1.2897 0.03467 0.07788-0.11432 5.3906-0.37341 11.797-0.23866 6.3933-0.46894 13.208-0.5008 15.105-0.05236 1.9102-0.11566 3.4859-0.15636 3.5116-0.12257 0.07677-1.6392-1.7727-2.7493-3.3371-0.97815-1.377-1.4208-1.8101-1.5005-1.4613-0.07598 0.3321 1.5626 2.489 2.8957 3.8423l1.447 1.4665-0.00965 0.959c-0.01428 0.52087 0.00543 2.727 0.03656 4.8834 0.03124 2.1564 0.02576 3.9375 0.00544 3.9505-0.04084 0.02551-0.5998 0.17724-1.2658 0.33947-1.3898 0.34617-1.2067 0.61524 0.25987 0.39147 0.5271-0.0891 0.99451-0.0697 1.0458 0.012 0.03461 0.07773 0.10663 0.98545 0.1521 2.0092 0.04541 1.0238 0.17565 2.9757 0.3114 4.3698l0.2284 2.5159-0.49207 0.39426c-0.78906 0.62344-0.72021 1.1633 0.07019 0.61024 0.41571-0.28944 0.67993-0.29884 0.61536-0.0166-0.01893 0.083 0.14892 1.03 0.38464 2.0624 0.23193 1.0491 0.40303 2.3639 0.38123 2.918-0.11448 2.7174-1.8174 8.0243-6.8799 21.3-2.8017 7.3623-6.6111 17.832-8.1671 22.421-0.60046 1.7849-1.1399 3.3039-1.1756 3.3833-0.04833 0.0587-0.30878-0.55995-0.58623-1.4097-0.4972-1.4941-0.71107-1.8576-0.82887-1.3429-0.11389 0.4982 0.16785 1.5587 0.6626 2.5281l0.49097 0.98583-1.4005 4.52c-0.7597 2.4823-1.6782 5.5049-2.0051 6.7057l-0.61743 2.1653-0.55927-1.2986c-0.89935-2.18-0.95062-2.2618-1.1048-2.1223-0.25109 0.25735 0.17444 1.6825 0.83435 2.847l0.66357 1.1477-1.1272 4.5475c-0.74231 2.9406-1.1481 4.3332-1.1514 3.9654-0.01843-0.3012-0.07775-0.5769-0.14416-0.59207-0.43164-0.09873-0.58319 1.4043-0.23785 2.3394 0.13092 0.3447 0.04827 1.1644-0.28876 3.0968-0.24353 1.447-0.6698 4.0754-0.93561 5.8494-0.85498 5.9553-0.73114 5.337-1.1628 5.2384-0.19928-0.04566-0.77948-0.33556-1.2524-0.63586-0.78241-0.47584-0.87824-0.5154-0.88544-0.2549-0.02087 0.3971 1.1558 1.365 1.8532 1.5246l0.58118 0.13281-1.2249 4.8223c-0.66125 2.6622-1.3229 5.097-1.4485 5.4176-0.22877 0.54186-0.35114 0.61876-1.8149 0.983-1.5415 0.39895-2.303 0.7489-2.1494 0.9938 0.10247 0.1632 2.0488-0.24805 2.8474-0.60706 0.35199-0.16418 0.67218-0.26564 0.70172-0.24144 0.07679 0.1223-1.9011 5.1044-2.8862 7.2731-1.8393 4.0703-3.9458 8.0095-7.3432 13.698-2.3185 3.8733-4.6836 8.1028-5.6231 10.072l-0.586 1.2638-0.20636-1.0082c-0.22577-1.1524-0.15009-3.5465 0.13214-4.0935 0.24683-0.4678-0.06104-0.57326-0.43689-0.15236-0.50439 0.60106-0.55908 1.9865-0.10852 3.8369l0.4198 1.7558-1.2252 2.7603c-1.5699 3.5028-2.7411 6.4851-3.9849 10.167l-0.98242 2.9207-0.13037-0.72886c-0.16272-0.89345-0.26257-3.5896-0.17798-4.7236 0.05505-0.54651-0.00421-0.82215-0.18689-0.86402-0.46497-0.10633-0.57849 1.8423-0.23608 3.8601 0.17681 0.98401 0.38696 1.9757 0.47424 2.2053 0.10522 0.30374-0.10547 1.5311-0.84399 5.0666-1.4178 6.7351-1.521 9.4026-0.52259 13.213 0.4748 1.821 0.49713 2.1056 0.29163 3.3867l-0.21564 1.401-0.45495-0.2263c-0.25055-0.1273-0.57258-0.32324-0.70685-0.4237-0.14325-0.1377-0.29651-0.1553-0.38574-0.0707-0.1338 0.1266 0.15417 0.47194 0.9483 1.1254 0.42462 0.3591 0.42462 0.3591 0.05353 1.8294-0.20264 0.80995-0.75171 2.6764-1.2301 4.1571-0.47839 1.4807-1.1556 3.7545-1.522 5.0512l-0.6427 2.3519-0.73389-1.1464c-0.78509-1.228-0.92834-1.3655-1.0309-0.91717-0.0379 0.16604 0.32355 0.87774 0.80884 1.5828l0.8772 1.2839-0.28443 1.4727c-0.98913 5.243-1.6755 10.538-2.2992 17.927-0.39179 4.5409-0.41169 4.781-0.80267 5.2682-0.44324 0.56274-0.40809 0.8678 0.04595 0.63965 0.24103-0.13709 0.28852-0.03895 0.25 0.51145-0.27325 5.0922 0.10755 7.7829 1.7516 12.055 1.7699 4.5636 3.2139 7.1129 4.61 8.1137 0.64575 0.462 1.6573 0.6234 2.5251 0.42 1.7266-0.444 5.2045-2.9687 7.8877-5.7626 4.7805-4.9353 7.4626-10.246 9.3687-18.582 1.2302-5.3801 1.7914-9.5155 2.4753-18.62 0.18525-2.4915 0.3534-4.6023 0.37238-4.6853 0.09491-0.4152 3.8108 1.0637 5.2198 2.0846 0.35675 0.27393 0.97204 0.86913 1.3739 1.3277 0.80359 0.91775 1.6476 1.5826 1.8554 1.4378 0.24102-0.1371-0.57544-1.0751-1.8274-2.0954-1.0627-0.85463-3.4657-2.1903-5.8209-3.2004-0.63378-0.2849-0.70159-0.37024-0.68359-0.9079 0.02911-1.4262 0.58643-5.5448 0.95863-7.1722 0.66065-2.8893 1.0027-3.5451 5.0787-9.6026 0.97894-1.4536 2.3749-3.738 3.0962-5.0582 0.73798-1.3165 1.3562-2.4158 1.3805-2.4452 0.03699-0.00903 0.30262 0.6633 0.62098 1.4874 0.53784 1.4685 1.5048 2.8953 1.8823 2.772 0.09448-0.0309-0.13654-0.6255-0.52606-1.2911-0.36902-0.67846-0.93549-1.7166-1.2571-2.2969l-0.56256-1.0547 0.84991-2.1122c2.452-6.0619 3.7662-12.192 5.1693-24.365 1.1646-10.061 1.3298-11.089 2.7675-17.452 1.6896-7.3895 2.5756-9.9652 6.1479-17.641 1.6515-3.5538 1.4578-3.3184 1.9436-2.3862 0.48188 0.949 1.6537 2.0907 1.919 1.9241 0.12243-0.0768-0.23237-0.6647-0.96961-1.5672-0.63623-0.80945-1.1305-1.5516-1.1039-1.6678s1.4621-3.108 3.176-6.6302c3.5145-7.2691 6.094-12.743 8.565-18.276 0.92907-2.0766 1.7861-3.8378 1.9047-3.8979 0.65436-0.33975 2.3102-1.0096 2.4431-0.97916 0.083 0.01893 0.16844-0.04884 0.1875-0.13184 0.07214-0.31554-0.89209-0.37865-1.6015-0.104-0.38524 0.1565-0.70165 0.24134-0.6865 0.17493 0.01525-0.06653 0.95428-2.263 2.0828-4.9056 6.1481-14.356 10.86-26.785 13.384-35.224 0.41723-1.4424 0.98291-3.305 1.2263-4.1404 0.30567-1.031 0.51539-1.4897 0.6482-1.4594 0.11632 0.02661 0.72972 0.3241 1.3688 0.66235 1.2028 0.62476 2.3755 0.9977 2.4287 0.76526 0.06458-0.28246-0.74194-0.72886-2.2151-1.2406-0.8075-0.2893-1.5244-0.59316-1.559-0.6709-0.05127-0.08156 0.38342-1.6773 0.96948-3.5526l1.0389-3.3968 0.56409-0.09814c0.31262-0.06836 1.1884-0.07786 1.9533-0.06043 1.5591 0.05947 2.7296-0.09228 2.7903-0.35779 0.057-0.24914-1.4794-0.4082-2.3728-0.2456-0.36242 0.05686-1.1092 0.1134-1.6709 0.12466l-1.0126-0.0044 0.36927-1.1562c0.21826-0.64905 0.80493-2.2972 1.3102-3.6668 0.50548-1.3698 1.0526-2.922 1.224-3.4422l0.32362-0.95679 1.8457-0.88865c1.199-0.5819 1.811-0.9663 1.7342-1.0886-0.19214-0.30616-1.2104 0.02024-2.2993 0.7323l-0.94226 0.60584 1.1713-4.8172 1.1714-4.8169 0.71925-0.39476c0.4171-0.219 1.7347-0.86134 2.9465-1.4231 1.1952-0.5653 2.2053-1.0858 2.2204-1.1521 0.05322-0.23255-0.53418-0.262-1.121-0.0642-0.30748 0.1219-1.4772 0.7281-2.5803 1.3496l-2.006 1.1313 0.17994-1.3218c0.49976-3.4854 1.5081-8.8114 1.8659-9.9177 0.67772-2.0467 1.4321-2.7478 2.5846-2.3622 0.5697 0.18275 0.57495 0.23645 0.12134 1.3034-0.35596 0.79226-0.0011 0.7686 0.63574-0.0293 0.29419-0.3696 0.61157-0.6117 0.70361-0.55564 0.07178 0.06874 0.64051 0.40844 1.2593 0.75974 1.0327 0.60305 1.0878 0.6681 0.85475 0.9992-0.29274 0.4398-0.01808 0.5377 0.3374 0.1296 0.2865-0.3364 0.58934-0.28466 2.2427 0.3555 1.1244 0.43186 1.1832 0.4803 1.0129 0.8431-0.22876 0.5419 0.27698 0.6226 0.53894 0.0884 0.19068-0.37574 0.26086-0.3771 0.97266-0.1271 0.4203 0.1486 1.7299 0.5354 2.8973 0.85476 1.1843 0.32324 2.394 0.68724 2.7148 0.81284 0.57874 0.2199 0.59534 0.22366 0.30542 0.80373-0.46032 0.94337-0.44836 1.1207 0.0564 0.74683 0.23584-0.19066 0.55948-0.53601 0.7161-0.76221l0.27612-0.4436 1.3185 0.42358c0.71545 0.23367 1.3313 0.44422 1.3568 0.48511 0.01295 0.02036-0.0659 0.21206-0.19823 0.40906-0.91017 1.382-0.62085 1.7975 0.37903 0.5585l0.62915-0.7649 1.4666 0.3878c0.80994 0.20263 1.4958 0.41186 1.505 0.44885 0.02552 0.04089-0.40637 1.1654-0.96154 2.5236-1.5997 3.8629-2.2147 5.9414-3.0606 10.099-0.6637 3.3606-0.76427 4.1064-0.85936 6.9678-0.17884 5.0615 0.16736 8.2857 1.4398 13.19 2.1619 8.4274 7.1728 17.768 13.723 25.574 2.2947 2.7263 5.6138 6.246 8.0864 8.5764 1.196 1.1122 2.7502 2.5684 3.4501 3.2527 2.3971 2.2781 6.4274 5.2091 13.634 9.9148 9.6856 6.3208 18.289 10.193 29.725 13.367 12.225 3.3895 21.623 3.0222 24.894-0.96536 0.53236-0.6471 0.70654-1.0266 0.93823-2.0395 0.24683-1.0792 0.2395-1.4304-0.04017-2.8048-0.18688-0.86416-0.3728-1.8852-0.42968-2.2477-0.20154-1.1819-2.535-4.8084-7.2554-11.217-2.2904-3.1273-3.8608-4.9717-7.5763-8.8965-7.4055-7.8091-19.815-19.716-37.975-36.432l-3.0315-2.7899 2.5208-11.253 2.5334-11.233 0.41529 0.095c0.29882 0.06835 0.44726 0.25964 0.5863 0.7981 0.17126 0.70324 0.53504 1.3281 0.69824 1.2256 0.04468-0.04226 0.0542-0.3894 0.0011-0.7687-0.04932-0.3956-0.06165-0.8003-0.05542-0.9038 0.02272-0.0996 0.69946-0.15455 1.4974-0.1293 0.79798 0.0253 1.8219-0.02024 2.2622-0.1119l0.79895-0.13173 0.54126 0.61303c0.30835 0.3325 0.60767 0.6282 0.68689 0.6637 0.24915 0.057 0.19471-0.39233-0.13464-0.93933-0.17542-0.30227-0.30505-0.57654-0.24756-0.59827 0.03711-0.00903 0.54846-0.25903 1.1212-0.5475l1.0433-0.5128 0.36621 0.5381c0.31116 0.473 0.71778 0.7584 0.76342 0.55895 0.01136-0.04981-0.0864-0.3866-0.1931-0.7605l-0.22864-0.6814 0.59546-0.38795c0.59924-0.4048 1.8253-0.8757 1.8856-0.7572 0.02551 0.0408 0.12841 0.4313 0.25696 0.8627 0.369 1.29 0.7107 1.0185 0.53674-0.43654-0.05322-0.37916-0.0603-0.73023-0.0232-0.73902 0.10572-0.08081 2.8201-0.10669 3.1023-0.04214 0.18286 0.0418 0.45178 0.4701 0.66626 1.0609 0.4286 1.1814 0.71057 1.6303 0.93726 1.4026 0.07264-0.0882-0.0127-0.6319-0.22339-1.2392l-0.36475-1.0795 1.4585 0.1936c1.6449 0.2189 1.7166 0.2877 1.509 1.2712-0.14648 0.71775 0.03515 2.1398 0.31115 2.3078 0.2467 0.1438 0.3213-0.25856 0.30335-1.5557-0.01977-1.5947 0.01195-1.6572 0.74268-1.4902 0.33203 0.0759 0.73717 0.2909 0.8728 0.4618 0.36865 0.45115 0.57557 0.4635 0.53394 0.03465-0.01857-0.30125 0.0426-0.33975 0.45776-0.24475l0.48144 0.1101-0.21264 1.5415c-0.16516 1.028-0.17175 1.5158-0.02759 1.4964 0.30126-0.01845 0.69519-0.97695 0.82568-2.0829l0.11683-0.96911 0.84692 0.19345c0.4816 0.11026 1.0197 0.3556 1.2806 0.59 0.45923 0.4369 0.80128 0.3928 0.57312-0.06116-0.10767-0.21694-0.05934-0.27574 0.22168-0.28138 0.29736-0.00171 0.33203 0.07594 0.2334 0.50769-0.13672 0.59778 0.00218 1.1364 0.22656 0.99549 0.08166-0.05127 0.26477-0.3938 0.40198-0.76441l0.25904-0.67453 1.0458 0.0118c1.4263 0.02907 1.3765 0.0176 1.5438 0.73744 0.1958 0.90112 0.46007 0.8916 0.54503-0.01504l0.06372-0.7368 0.76343-0.0526c0.42505-0.02515 1.3441-0.1471 2.0193-0.27234 1.1819-0.20142 1.2687-0.19896 1.5898 0.15404 0.43885 0.4497 0.67604 0.32923 0.39283-0.1898-0.21386-0.36353-0.18983-0.39295 0.61792-0.71485 0.46289-0.19129 1.0969-0.51805 1.4271-0.73975 0.7384-0.47766 0.84167-0.47143 1.6334 0.2688 0.63586 0.58215 1.681 0.9784 1.7532 0.66284 0.01905-0.08301-0.20117-0.34304-0.48632-0.54797-0.28505-0.20507-0.76331-0.55897-1.0485-0.76392l-0.52418-0.38205 0.8678-0.8151c0.48317-0.431 1.0093-0.9747 1.1863-1.2139 0.1732-0.22254 0.36816-0.38769 0.43456-0.37244 0.06641 0.01514 0.39904 0.31836 0.73682 0.6752 0.81872 0.8513 2.0039 1.6289 2.2692 1.4624 0.20398-0.1281-0.77844-1.1042-1.8934-1.8832-0.88842-0.62244-0.89-0.69275-0.1991-1.8802 0.34743-0.60215 0.6515-1.0916 0.6758-1.1211 0.00378-0.01661 0.66455 0.37914 1.4189 0.901 1.4869 0.98654 1.9034 1.1516 2.645 1.0417 0.70081-0.08435 0.62866-0.3805-0.11853-0.5514-1.3119-0.2999-2.814-1.22-3.5013-2.1111-0.02565-0.04086 0.08727-0.3818 0.23216-0.7856l0.28321-0.7041 1.4423 0.4172c1.5254 0.43606 2.1792 0.48073 1.9486 0.11355-0.07691-0.12245-0.81409-0.41335-1.6497-0.65675l-1.5048-0.44897 0.29308-0.82409c0.15626-0.45364 0.35804-1.1064 0.44154-1.4718 0.13672-0.59777 0.17736-0.62329 0.53662-0.4364 0.21716 0.11951 0.71289 0.32017 1.1129 0.48167 0.57886 0.21975 0.73583 0.2206 0.78528 0.0048 0.06445-0.28224-0.1709-0.47597-1.2558-1.0036l-0.78844-0.37254 0.39051-1.9376 0.39063-1.9376 1.5419 0.44006c1.1345 0.31165 1.5903 0.381 1.7242 0.2544 0.29554-0.2993-0.15173-0.55896-1.4636-0.8589-0.68078-0.15575-1.33-0.374-1.4437-0.48754-0.09715-0.10936-0.13513-0.55493-0.06591-1.011 0.05273-0.45974 0.15112-1.1187 0.19751-1.4749 0.07397-0.62974 0.07397-0.62974 0.67565-0.5096 0.8175 0.1694 1.457 0.1235 1.597-0.1066 0.08399-0.13805-0.20349-0.2562-0.98401-0.4347l-1.0793-0.2468 0.08032-0.73304c0.26111-2.8235 0.4856-4.799 0.54688-4.8375 0.08166-0.05114 27.473 25.66 27.841 26.111 0.13185 0.18736 0.0967 0.49376-0.17614 1.3052-0.60034 1.7848-9.1013 39.192-10.335 45.427-2.5805 13.197-3.0538 17.177-3.189 27.473-0.05772 4.3026 0.08118 5.4527 0.88478 7.5935 0.75475 1.9724 1.276 2.8256 2.2557 3.661 0.84533 0.7351 2.9785 1.1879 4.6518 0.9763 6.0428-0.74986 15.797-9.0211 23.807-20.208 5.5104-7.6691 10.999-18.069 13.99-26.489 3.1208-8.7573 4.5944-13.75 5.2019-17.63 1.1398-7.2006 1.4669-10.236 1.6173-14.867 0.39723-12.665-2.4552-24.186-8.1286-32.77-1.2448-1.8921-4.3693-5.8043-4.914-6.1733-0.12146-0.0802-0.61987-1.033-1.1049-2.1225-0.47192-1.0688-1.6431-3.2064-2.5834-4.7494-1.9611-3.1918-2.1571-2.8696 1.5526-2.5107l2.2731 0.22277 0.42555 0.8136c0.24486 0.45803 0.52135 0.85327 0.65416 0.88366 0.43177 0.09864 0.48828-0.37768 0.11292-0.95273-0.20862-0.30984-0.33801-0.58425-0.29738-0.60977 0.10207-0.06396 7.4793 0.60937 8.0273 0.73462 0.24913 0.05701 0.77197 0.3689 1.1709 0.68715 0.37866 0.33116 0.8811 0.6559 1.0894 0.73827 0.69495 0.24623 0.62525-0.13647-0.15602-0.76953l-0.74828-0.62534 3.5854 0.1384c2.6138 0.1083 3.9304 0.2346 4.8693 0.48425 1.0552 0.27625 1.2787 0.29235 1.3281 0.07655 0.03406-0.1494-0.07214-0.29603-0.22168-0.33033-0.16223-0.05457 0.42762-0.11182 1.2906-0.14173 1.7961-0.06104 4.1757-0.30324 5.5834-0.57544l0.94703-0.16797 0.48767 0.61827c0.72064 0.8987 1.0774 1.1726 1.9142 1.4862 0.59166 0.24014 0.74876 0.2411 0.79431 0.0418 0.03809-0.16604-0.20642-0.3965-0.67795-0.62673-0.68874-0.34974-1.9959-1.4351-1.9542-1.6177 0.02272-0.09974 3.8822-0.92933 4.098-0.88 0.083 0.0189 2.8717 2.6485 6.1926 5.8542 7.4885 7.2166 10.524 9.99 15.189 13.887 4.1398 3.4453 6.3376 5.0662 9.4338 6.9623 1.1633 0.72034 2.9572 1.9693 3.9739 2.7959 3.3222 2.6642 8.8161 8.9005 8.8131 9.9831-0.0115 0.6615 0.1997 0.88454 0.46446 0.49074 0.16418-0.25954 0.79504 0.49636 4.8417 5.8775 2.5642 3.3821 4.971 6.536 5.3523 7.0076l0.6951 0.85791-0.35035 1.0731c-0.45019 1.4347-0.55385 2.6516-0.23825 2.7237 0.1992 0.04553 0.297-0.22914 0.55844-1.602l0.32606-1.6554 0.343 0.4104c0.1946 0.2191 1.0728 1.3461 1.9674 2.4768l1.6205 2.083-0.2064 1.4379c-0.4197 2.7524-0.46205 3.9309-0.15834 4.4372 0.32534 0.5636 0.61294 0.6818 0.57494 0.23635-0.19286-1.9836-0.2634-4.0444-0.1604-4.877l0.1116-1.023 0.5337 0.64635c0.4952 0.585 4.4873 5.5169 5.4795 6.7571l0.41968 0.53283-0.49609 3.4686c-0.40675 2.7726-0.48035 3.6294-0.32335 4.2419 0.09154 0.4403 0.2352 0.8053 0.3182 0.8242 0.18264 0.04177 0.1979-0.02464 0.22-1.802 0.0033-0.8553 0.0266-1.9509 0.0294-2.422 0.0149-0.90525 0.3639-3.8833 0.4696-3.964 0.0243-0.02943 1.2886 1.3955 2.7872 3.1709 4.263 5.0463 8.1968 9.5453 10.605 12.158 1.2041 1.3061 2.1895 2.4227 2.1781 2.4724-0.0077 0.0333-0.66296 0.53-1.47 1.0793-0.79043 0.5531-1.4623 1.046-1.4813 1.129-0.1216 0.53135 1.353-0.10998 2.5435-1.1132l0.86548-0.7283 1.3642 1.4478c2.1661 2.295 5.8182 5.7336 7.3628 6.9256 2.5984 2.0096 4.0653 3.2362 4.8879 4.0708l0.8394 0.83851-0.85696 0.53794c-1.2279 0.78505-1.0653 1.0669 0.28696 0.50234l1.1226-0.47717 1.3337 1.5804c1.6508 1.9502 3.1923 3.9976 4.985 6.6267 1.7544 2.568 3.9398 5.6189 5.5913 7.7962l1.3032 1.7135-1.0681 0.31484c-1.4787 0.43077-2.3182 0.8154-2.3828 1.0978-0.08727 0.38194 0.70655 0.19654 2.2538-0.53306 1.2156-0.57827 1.4171-0.6195 1.6041-0.3672 0.8118 1.1117 5.4566 6.8568 7.9126 9.7948 1.6177 1.9424 2.9768 3.5638 3.0025 3.6046 0.04234 0.0447-0.13232 0.1969-0.38086 0.3673-0.7422 0.49416-0.6422 0.7443 0.2001 0.50014l0.7312-0.21744 1.011 1.1573c3.5243 4.0735 8.146 9.0794 10.431 11.314 0.71645 0.68813 1.0226 1.1074 0.9732 1.3235-0.04175 0.1825-0.45765 1.0836-0.91418 2.0102-0.81372 1.6487-1.1992 3.0283-0.87087 3.1208 0.21584 0.04932 0.5529-0.65993 1.2306-2.7067 0.91633-2.7088 0.6421-2.579 2.4221-1.1935 2.4311 1.9012 5.8275 3.936 8.7296 5.2288 0.75914 0.34825 1.448 0.69785 1.549 0.79101 0.11375 0.11341 0.06299 0.87061-0.12731 2.0852-0.15624 1.0652-0.29944 2.1505-0.29764 2.4482 0.0192 0.75575 0.33194 1.9105 0.51455 1.9524 0.19935 0.04553 0.20885-0.3019 0.09985-2.4236-0.03747-0.8298 0.0087-2.025 0.0828-2.6545l0.1418-1.1558 0.42336 0.28896c1.6671 1.115 4.8779 4.1908 8.3468 7.9719 3.1184 3.4039 2.8271 2.6908 2.8562 6.9961-0.00342 0.85544 0.38174 1.9218 0.62659 1.7683 0.12231-0.0769 0.07445-1.0139-0.12268-2.5968-0.17637-1.3684-0.29871-2.5145-0.26187-2.5237 0.04104-0.0254 0.55667 0.54663 1.1619 1.2617 0.60546 0.7151 2.3931 2.6791 3.9846 4.3535 9.1382 9.708 17.815 16.235 26.023 19.545 2.6376 1.0747 7.2985 2.0883 9.7371 2.1215 5.2709 0.10434 6.3721-1.4262 4.9718-6.9185-0.5931-2.3723-2.1675-6.8735-3.1153-8.995-4.59-10.188-13.18-19.544-23.897-26.013-2.8239-1.7117-5.3621-2.9911-9.3644-4.7448-2.6812-1.1898-3.8753-2.0045-4.8815-3.3354-0.6323-0.82606-2.2548-3.8181-2.2054-4.0341 0.04697-0.1289 3.1411-1.2037 5.6217-1.9647 1.4864-0.46377 2.9747-1.2418 2.8211-1.4866-0.13194-0.1874-0.77634 0.0321-3.0903 1.0584-1.1672 0.51928-2.9009 1.2237-3.8193 1.5727-1.6077 0.6111-1.6817 0.62904-1.8255 0.26405-0.65173-1.5816-2.0657-4.4911-3.0653-6.3097-3.4663-6.3144-11.67-16.822-19.53-25.015l-2.8366-2.9549-0.23229-1.2765c-0.13426-0.7122-0.35256-1.8977-0.46241-2.6392-0.26379-1.5981-0.37415-1.9553-0.57445-1.8438-0.2893 0.19595-0.16957 1.4288 0.3309 3.2908 0.28164 1.0604 0.46865 1.9246 0.4187 1.9131-0.0498-0.01135-0.81223-0.72753-1.6846-1.5735-2.5164-2.4452-3.72-3.524-6.5897-5.8752l-2.6472-2.1779 0.4993-1.8778c0.33836-1.2507 0.467-2.0425 0.3934-2.4088l-0.0852-0.5437-0.2848 0.6338c-0.1667 0.3463-0.4021 1.3758-0.55345 2.2673-0.15525 0.9082-0.30565 1.6426-0.35545 1.6312-0.31545-0.07214-8.422-6.5738-8.3878-6.7232 0.00757-0.0332 0.53576 0.33213 1.1776 0.811 2.5356 1.9776 3.6311 2.6126 3.7336 2.1642 0.0569-0.249-0.1527-0.40186-1.6186-1.174-0.7477-0.39805-1.819-1.0624-2.3816-1.5056-0.5664-0.42653-1.1558-0.75353-1.2834-0.73013-0.16089 0.01565-0.18275-0.04184-0.08972-0.1429 0.11327-0.1139 0.06737-0.14186-0.14697-0.121-0.1648 0.03224-0.26062-0.0072-0.19176-0.0787 0.0687-0.0718-0.1974-0.35976-0.6039-0.6449-0.9768-0.6952-2.8934-2.7061-4.5804-4.8042-2.8788-3.6114-5.6309-7.7005-13.637-20.295-6.3502-9.9789-11.772-17.754-17.132-24.571l-1.4465-1.851 0.86597 0.1106c0.4763 0.0565 0.9181 0.0353 0.9778-0.0734 0.1604-0.243-0.844-0.6649-1.7506-0.74985-0.7035-0.05605-0.7586-0.12095-2.8385-2.6408-1.1609-1.4187-3.1405-3.6889-4.3997-5.06-4.4158-4.8366-6.6426-6.8658-10.116-9.2502-2.0955-1.4578-2.2288-1.7154-0.68066-1.3789 1.9504 0.411 4.8779 0.29406 4.8513-0.2013-0.0171-0.23084-0.4308-0.25574-2.1592-0.10925-0.78003 0.04885-2.1067 0.04245-2.9265-0.04015-1.503-0.1514-1.5195-0.15517-2.3229-0.8456-2.2662-1.9335-4.8708-5.0627-7.6279-9.2054l-1.287-1.9369 1.4442-0.50845c0.79626-0.27222 1.4761-0.57115 1.495-0.65415 0.07986-0.3488-0.69114-0.26284-1.9006 0.2119-0.8445 0.33116-1.3589 0.44066-1.4726 0.32726-0.08055-0.10586-1.0409-1.4087-2.133-2.8991-8.022-10.921-18.59-20.641-26.69-24.573-1.3686-0.66234-2.0382-0.8679-5.2226-1.6135-3.4373-0.786-3.6954-0.88-4.4127-1.4108-0.41553-0.32224-0.97727-0.92246-1.2298-1.3471l-0.4571-0.75096 0.9133-0.40285c0.5243-0.22975 1.4912-0.63745 2.2004-0.91225 1.3116-0.5389 1.879-0.8807 1.747-1.0682-0.13695-0.2411-1.6999 0.32774-3.2814 1.2068l-1.6759 0.90966-1.305-1.3992c-0.7345-0.76206-2.0059-1.9266-2.8166-2.5838l-1.4873-1.2136 1.2416-0.31018c0.6661-0.16226 1.3067-0.36526 1.4087-0.4292 0.72694-0.42786-1.3466-0.37781-2.5687 0.07654l-0.70924 0.27466-1.2606-0.82986c-3.1029-2.02-5.3075-3.1532-7.2992-3.766l-1.3887-0.42236 1.1782-0.79651c0.6438-0.4469 1.1895-0.84619 1.2046-0.91272 0.11402-0.49804-1.7052 0.27406-2.397 1.0072-0.57458 0.60242-0.57458 0.60242-1.8135 0.44141-1.6282-0.21485-5.8319-0.4773-8.6436-0.56092-1.2321-0.03713-2.2664-0.09873-2.292-0.13977-0.02174-0.05726 0.38623-0.31346 0.92186-0.59289 0.90822-0.45627 2.5352-0.92307 4.207-1.2048 0.85656-0.15368 0.98609-0.49096 0.20459-0.51233-1.4391-0.04955-2.6129 0.3461-4.7119 1.5785l-1.3722 0.8047-2.2545 0.0785c-2.4116 0.0775-3.983 0.2251-6.075 0.5854-0.7251 0.1138-1.3148 0.1713-1.2996 0.10464 0.01135-0.04968 0.21399-0.24804 0.44983-0.43874 0.4474-0.35203 0.6217-0.73155 0.37243-0.78856-0.23243-0.0531-1.645 1.0044-1.7058 1.27-0.03418 0.14954-0.79699 0.42934-1.8538 0.69458-0.99902 0.24316-3.1979 0.84131-4.8988 1.3261-1.6842 0.4885-3.1351 0.8733-3.2181 0.85424-0.16614-0.03794 1.3352-1.4071 1.7892-1.6352 0.55237-0.27565 0.26197-0.5343-0.41186-0.3389-0.48108 0.1172-0.89136 0.4602-1.6061 1.2928l-0.95654 1.1268-2.7424 0.6833c-1.5136 0.35293-2.8548 0.6404-3.0044 0.6062-0.21583-0.0494-0.18055-0.3558 0.34154-2.3332 1.0046-3.8593 1.3923-4.1026 9.1904-5.4997 4.6318-0.84558 8.0123-1.6451 11.4-2.7052 1.692-0.52197 2.5191-0.69971 2.7566-0.59314 0.188 0.0956 0.62634 0.3181 0.96887 0.5012 0.95227 0.49734 2.3234 0.4616 1.5653-0.0439-0.13806-0.084-0.63013-0.3014-1.1168-0.4651-0.48304-0.1803-0.85876-0.3711-0.84741-0.4209s0.55615-0.29225 1.184-0.51563c1.9812-0.71767 5.3694-2.1621 7.6897-3.2915l2.2181-1.0656 0.58533 0.3435c1.2706 0.71 1.8447 0.4917 0.78723-0.3092l-0.59595-0.4508 1.7423-0.89465c0.94898-0.48181 3.3298-1.877 5.3013-3.0863l3.5794-2.2044 0.93237 1.3489c0.9668 1.4269 1.4768 1.7181 1.1582 0.66674-0.10165-0.3203-0.52685-0.90673-0.91945-1.3285-0.4094-0.42564-0.7434-0.79906-0.73216-0.84886 0.01148-0.04981 1.1104-0.88194 2.4669-1.8474 1.3399-0.9692 3.1922-2.3453 4.1241-3.0583 1.0007-0.7847 1.7556-1.2587 1.8565-1.1658 0.0846 0.08924 0.58894 0.71143 1.1149 1.391 0.89099 1.1472 1.2991 1.5027 1.3711 1.1871 0.04186-0.1827-0.53699-1.014-1.4762-2.1026l-0.7705-0.91004 2.3795-2.0769c4.8331-4.1718 9.0596-8.5174 13.246-13.606 2.6785-3.2316 3.5033-3.9342 5.1278-4.3142 0.83084-0.19435 1.3184-0.18776 2.5755 0.0472 2.6667 0.4876 5.5948 2.0482 10.184 5.439 4.4716 3.2942 13.889 9.6412 14.537 9.7892 0.0996 0.02271 0.06835 0.31277-0.093 0.71267l-0.26297 0.69126 0.60693-0.43796 0.6106-0.4544 0.83594 0.4706c0.4678 0.24684 1.3688 0.66236 1.9731 0.923 0.96216 0.3773 1.319 0.651 2.5307 1.9239 1.2025 1.2362 5.1938 5.7134 5.551 6.2145 0.0513 0.08155-0.1576 0.38343-0.4697 0.67897-1.0464 0.98376-0.8119 1.3345 0.3534 0.51758l0.70896-0.50195 1.2949 1.5194c2.8745 3.4006 5.7427 6.9047 5.7162 7.0208-0.01527 0.06655-0.20642 0.21495-0.44737 0.35215-0.58034 0.32156-0.87453 0.6912-0.7057 0.86953 0.07165 0.06887 0.48644-0.06347 0.9276-0.31203l0.7805-0.4331 0.3777 0.4882c0.21253 0.2932 1.5257 1.8866 2.9195 3.5856 1.9569 2.3696 2.4973 3.1397 2.4033 3.3978-0.094 0.25807-0.06834 0.29897 0.16897 0.17837 0.23718-0.1204 0.48913 0.077 1.3695 1.1172 1.2749 1.5318 5.7804 6.5112 7.3206 8.1041l1.0888 1.1224-0.06653 1.2082c-0.10877 1.7749 0.11083 3.0309 0.68723 3.9488 0.7045 1.1222 0.9351 0.8778 0.41665-0.4464-0.2439-0.615-0.53555-1.5553-0.63755-2.1028-0.21145-1.0619-0.23086-2.4292-0.0197-2.2062 2.3141 2.2591 3.7327 3.5445 5.7788 5.2179 2.3147 1.8749 5.351 3.8797 6.7975 4.5075 0.5088 0.2212 0.6277 0.38817 0.8246 1.1321 0.2833 1.1306 1.5138 2.9323 1.6392 2.3843 0.01514-0.0664-0.23632-0.6482-0.53896-1.3115-0.8116-1.7232-0.823-1.6734 0.2786-1.1419 4.2648 2.0585 5.7833 3.5938 10.316 10.519l3.0992 4.7101-1.0382 1.1781c-1.2075 1.3838-1.5829 2.0319-1.677 2.9015-0.0878 0.76626 0.1257 0.9025 0.4105 0.2686 0.78053-1.6562 2.2069-4.0735 2.4061-4.028 0.04996 0.0115 0.58496 0.72805 1.2061 1.6039 1.9525 2.7705 4.6627 6.4306 6.2103 8.3746 0.82705 1.0454 1.5437 1.9606 1.6079 2.0626 0.08056 0.10584-0.07594 0.33216-0.40244 0.537-0.6364 0.4138-1.6894 1.8852-1.4871 2.0713 0.1267 0.13377 0.60206-0.2642 1.601-1.3463 0.34764-0.37487 0.66004-0.67027 0.72644-0.65517 0.0497 0.0115 1.4076 1.5625 3.0072 3.431 1.596 1.8852 3.4233 3.9805 4.0568 4.6494 0.6333 0.66904 1.1415 1.2745 1.1428 1.3446-0.0115 0.05004-0.59657 0.54529-1.2964 1.0841-1.3385 1.0394-1.8988 1.7325-1.6583 1.9797 0.08823 0.07264 0.31406 0.00196 0.5129-0.1797 0.6537-0.5669 1.4771-1.3397 2.1039-2.0177l0.64343-0.67405 0.79837 0.86389c1.364 1.4478 4.0732 4.0416 5.8064 5.5564 0.90053 0.79997 1.7458 1.5351 1.8597 1.6484 0.4683 0.47413 3.4728 2.5415 5.0745 3.4844 2.8736 1.723 5.9665 3.2514 7.4381 3.6927 0.76915 0.22827 1.7977 0.62073 2.2987 0.875 1.3981 0.68667 4.3865 2.9777 7.6594 5.8578 9.2385 8.1234 19.307 13.99 29.028 16.947 5.5586 1.6729 11.434 2.0376 14.667 0.88966 2.5275-0.88966 2.4858-2.5419-0.2091-6.8799-3.1049-4.991-7.765-10.058-13.887-15.075-6.7524-5.5456-15.045-10.238-20.21-11.419-1.7104-0.39111-3.4754-1.2315-4.7235-2.2683-1.4708-1.21-3.0657-3.252-6.3722-8.2019-3.7881-5.6712-5.5613-8.1562-8.2034-11.504-7.3832-9.3592-15.9-17.58-24.975-24.128-4.6632-3.373-8.1085-6.1878-9.5546-7.8114-1.679-1.9041-3.4398-4.596-5.9361-9.1157-1.166-2.0838-3.4374-5.9058-5.0513-8.4767l-2.9293-4.6884 0.3085-0.89065c0.7578-2.1681 1.2139-3.9334 1.0478-3.9714-0.26564-0.0608-0.59351 0.6854-1.1489 2.6554l-0.52477 1.8369-1.594-2.1991c-0.87194-1.2302-2.5067-3.404-3.6434-4.8522-2.308-2.974-2.494-3.3834-2.7357-6.1471-0.22035-2.322-0.1538-4.1415 0.1942-6.3509 0.28003-1.6834 0.2355-2.2527-0.1323-1.6377-0.54714 0.94066-0.65786 2.4181-0.4132 5.9336 0.1302 1.952 0.28476 3.8746 0.35446 4.2573l0.13414 0.7123-0.677-0.7838c-1.359-1.6214-5.6236-6.1261-7.5064-7.9021-4.1626-3.9573-10.247-8.9834-12.199-10.076-1.81-1.0255-3.1858-2.6507-5.635-6.6879-1.0774-1.7841-2.577-4.014-3.3232-4.9536-8.4481-10.738-23.056-18.307-37.066-19.239-7.8825-0.52676-18.462 0.0419-26.45 1.4304-6.0983 1.0694-10.134 2.3658-14.677 4.7344-0.61352 0.314-1.1786 0.5691-1.2451 0.554-0.13282-0.0304 0.71167-3.0349 1.1638-4.1721 0.36573-0.91223-0.1394-0.76586-0.67382 0.19534-0.33448 0.62253-0.45362 1.067-0.60279 2.4832l-0.18799 1.7394-1.4705 0.85193c-2.7812 1.618-6.5913 4.067-9.6755 6.2449-1.6906 1.2036-3.1301 2.1502-3.1762 2.1221-0.04603-0.0281-0.08911-0.5272-0.06335-1.098 0.02172-1.1657-0.02466-1.4209-0.29041-1.4816-0.19922-0.04564-0.39905 1.5162-0.34447 2.5772 0.0459 0.63941 0.0255 0.65224-1.5375 1.8326-2.9309 2.1956-6.017 4.6876-9.5718 7.7014-2.3848 2.0233-3.5857 2.9194-3.6345 2.7511-0.03978-0.13145-0.14368-0.9764-0.25658-1.8585-0.20948-1.9876-0.4159-2.384-0.5602-1.1416-0.0603 0.49304 0.0387 1.5117 0.19862 2.2646l0.2926 1.3949-2.8037 2.5565c-1.5459 1.4114-3.5083 3.2691-4.3876 4.134-0.86267 0.86877-1.6262 1.5331-1.6849 1.4846-0.05871-0.04845-0.33771-0.9686-0.63238-2.0494-0.28174-1.0603-0.58998-2.0047-0.66162-2.0734-0.49768-0.4983-0.05481 1.9971 0.63554 3.6402 0.36427 0.85215 0.36708 0.99255 0.09938 1.246-0.29175 0.28273-4.296 4.5744-5.3992 5.8073-0.91332 1.0142-1.8736 0.93454-4.1462-0.28396-2.8285-1.5379-4.2686-2.042-8.5156-3.0307-2.192-0.5011-4.0647-0.9469-4.1771-0.9899-0.3501-0.15014-0.28979-1.2544 0.21521-3.4629 0.61657-2.6199 1.2454-4.2236 2.4786-6.1784 0.94813-1.548 3.4369-4.561 3.7752-4.5885 0.10718-0.0105 0.51282 0.43188 0.91225 0.97755 0.8004 1.1616 1.5218 1.9032 2.1352 2.2007 0.67248 0.3458 0.56556-0.028-0.27881-0.9201-0.42223-0.4459-1.131-1.1673-1.5532-1.6134-0.43883-0.44956-0.8075-0.901-0.84215-0.9786-0.03065-0.0945 1.0293-1.215 2.3545-2.5021l2.4199-2.3298 0.35059 0.3772c1.2999 1.3456 1.741 1.7086 2.0296 1.6696 0.27196-0.0426 0.25377-0.1167-0.08156-0.5603-0.22912-0.297-0.75622-0.81945-1.168-1.1584-0.52941-0.4354-0.7163-0.68784-0.59912-0.81846 0.09302-0.10084 1.1991-1.1935 2.4796-2.4383l2.3179-2.2658 0.64806 0.98682c0.61866 0.96274 0.92176 1.2417 0.99012 0.94274 0.04553-0.1991-0.54834-1.5757-0.82872-1.9542-0.12294-0.1504-0.214-0.3634-0.19496-0.44655 0.01892-0.08289 1.3837-1.466 3.0287-3.0818 1.645-1.6157 3.5411-3.4888 4.2214-4.1719 0.68054-0.6831 1.2808-1.245 1.3306-1.2335 0.04993 0.01133 0.1792 0.28563 0.28087 0.60593 0.27357 0.86636 0.886 1.9325 1.1518 1.9933 0.44825 0.10255 0.33875-0.41186-0.3429-1.6335-0.36902-0.67856-0.6626-1.3048-0.64368-1.3878 0.02283-0.09961 0.46729-0.59205 1.0064-1.1155 1.6005-1.5735 9.1791-9.3464 9.6148-9.8759l0.4038-0.4668 0.52418 0.3821c0.76722 0.54223 1.0362 0.35925 0.51392-0.33704l-0.45826-0.59399 1.934-2.039c1.0599-1.1206 3.041-3.2887 4.4028-4.812l2.4855-2.769 0.74195 0.11704c0.42273 0.06176 1.1714 0.30286 1.6634 0.52026 0.88428 0.41187 2.099 0.60205 2.1598 0.33655 0.06066-0.26575-0.4812-0.49439-2.2518-1.0042-0.98486-0.2776-1.7669-0.52637-1.7631-0.543 0.0039-0.0166 1.3054-1.6584 2.9102-3.633 2.8337-3.5282 4.8722-6.3297 6.1359-8.4173 0.73181-1.213 0.71508-1.2169 2.2361 0.23166 0.91846 0.87405 1.2994 1.1184 1.3602 0.8527 0.09485-0.41505-1.1818-1.633-2.3423-2.2129-0.26697-0.1311-0.40283-0.3019-0.32642-0.40674 0.05994-0.10852 0.53297-1.0314 1.0327-2.0703 2.0343-4.2354 2.4547-4.6984 4.3392-4.6869 0.99207 0.01734 3.4847 0.2727 4.3317 0.46644l0.53137 0.12145-0.26856 1.6336c-0.30774 1.9565-0.34851 2.5937-0.14929 2.6394 0.33215 0.0759 0.74268-1.4902 0.72093-2.7709-0.04124-1.4247 0.06703-1.5923 0.94716-1.391 1.5608 0.35696 5.5364 0.1652 6.927-0.3381 0.49254-0.167 0.92764-0.31214 0.96084-0.3046 0.0332 0.0076-0.22634 0.455-0.5789 1.0034-0.625 0.97545-1.12 2.4524-0.8542 2.513 0.1494 0.0342 1.376-2.0442 1.4823-2.5092 0.12534-0.54795 0.76633-1.1352 1.2375-1.1324 0.80935-0.02475 3.4307 0.662 5.0932 1.3393 0.88294 0.34168 1.8745 0.74314 2.2118 0.87268 0.3208 0.12586 0.58035 0.28992 0.56505 0.35633-0.0151 0.06643-0.3193 0.55593-0.6681 1.0879-0.6975 1.0636-1.4316 2.9751-1.1659 3.0359 0.21582 0.04945 0.88757-1.055 1.5383-2.6012 0.3241-0.72975 0.62159-1.3432 0.66614-1.3854 0.0575-0.022 0.61975 0.19407 1.2534 0.47886 1.7892 0.81091 6.4989 2.6041 9.3034 3.56 1.6097 0.5254 5.7436 1.6279 11.533 3.0564 5.0585 1.2614 11.817 3.0343 15.405 4.0816 4.6091 1.316 8.3686 2.298 13.45 3.4598 9.5112 2.1923 10.885 2.297 13.985 1.1187 3.5058-1.3477 11.669-6.1738 15.803-9.3521 8.0974-6.2215 13.311-12.438 15.454-18.448 0.87598-2.4556 1.1358-5.3492 0.55091-6.0771-0.4364-0.5365-0.56922-0.56689-2.4268-0.46753-6.6946 0.39124-14.127 3.5497-20.575 8.75-0.83362 0.66567-3.1852 2.6967-5.2028 4.4893-2.034 1.7892-3.7228 3.2902-3.7635 3.3157-0.02429 0.0293-1.9856-0.71606-4.3393-1.6561-5.8484-2.3157-6.7592-2.6114-11.498-3.8175-4.328-1.0944-9.4918-2.0479-12.995-2.3946-2.8694-0.2891-6.5825-1.0159-8.5295-1.6708-2.0264-0.6904-4.406-1.8986-8.2998-4.2044-7.9918-4.7107-11.972-6.4071-18.565-7.9144-1.3118-0.3-2.3798-0.59665-2.3684-0.64646 0.01146-0.0498 0.307-0.34914 0.6638-0.68674 0.86036-0.7819 2.0171-1.4086 2.9105-1.5712 2.351-0.4237 2.2195-0.38366 1.8068-0.56555-0.20826-0.08239-0.71033-0.1798-1.1074-0.20065-0.90677-0.085-2.1769 0.6555-3.6321 2.0526l-1.0335 1.0043-0.99024-0.3313c-2.9371-0.98606-3.8585-1.3888-6.4161-2.8124-0.7771-0.4225-0.8147-0.64065-0.08304-0.63064 0.29358 0.01477 0.54371-0.08556 0.57789-0.23496 0.04555-0.1991-0.1001-0.2498-0.75015-0.3113-0.4432-0.0487-0.97544-0.0132-1.168 0.06506-0.30371 0.10534-0.59899 0.02039-1.7376-0.50219-1.0851-0.52757-2.033-0.81421-4.7562-1.4369-3.3007-0.77236-3.454-0.7898-5.5146-0.7194-1.5154 0.05544-2.8338 0.24306-4.6474 0.6847l-2.5498 0.60523 0.1405-0.61423c0.15944-0.69754 0.745-1.577 1.1826-1.8091 0.1759-0.08204 0.33387-0.23817 0.36047-0.3544 0.07215-0.3155-0.55456-0.2491-1.1132 0.1298-0.39134 0.2601-0.53894 0.5234-0.84314 1.6245l-0.34973 1.3004-1.3063 0.59254c-0.7079 0.34486-3.5286 2.0589-6.2701 3.8085-2.7416 1.7495-6.4843 4.0564-8.3346 5.1185-1.8506 1.0622-4.1152 2.484-5.0395 3.1638l-1.6777 1.224 0.02515-0.79796c0.03479-1.1454-0.30455-0.96095-0.67845 0.3689-0.28517 1.0183-0.39332 1.1856-1.0805 1.7451-0.41052 0.3429-1.727 1.4398-2.9138 2.4264-1.1904 1.0034-2.1987 1.8213-2.2319 1.8137-0.16602-0.03795 0.39904-0.90465 0.76488-1.2054 0.21534-0.17797 0.40516-0.39661 0.42042-0.46302 0.06445-0.28235-0.48438-0.25061-0.97413 0.05689-0.42457 0.2522-0.54419 0.46946-0.73779 1.3164l-0.23548 1.0297-3.1426 2.9684c-3.4994 3.306-3.5643 3.3612-3.3099 2.8601 0.15893-0.3131 0.1461-0.3335-0.22413-0.2433-0.22583 0.0706-0.51892 0.2831-0.64747 0.4634-0.1643 0.2595-0.4105 0.343-0.9442 0.30834-0.92713-0.07224-2.1522 0.24182-2.2242 0.55726-0.07983 0.34875 0.17675 0.3723 1.5808 0.1168 0.72876-0.13036 1.2573-0.1494 1.3047-0.05113 0.0271 0.11108-1.2047 1.5243-2.7667 3.1592-1.5621 1.6349-2.8488 2.983-2.8563 3.0162-0.0205 0.0129-0.4973-0.2709-1.0586-0.6438-1.0637-0.69765-1.6387-0.93386-1.7031-0.6515-0.05324 0.2324 1.0554 1.115 1.7722 1.4187l0.6211 0.2643-2.3197 2.5798c-1.2689 1.4222-2.3479 2.626-2.4053 2.6477-0.14294 0.0896-0.89122-1.9861-1.203-3.2981-0.1366-0.6252-0.3125-1.1546-0.37892-1.1699-0.22875-0.0697-0.3607 0.96594-0.21508 1.6284 0.07348 0.3662 0.44532 1.1852 0.80921 1.8101 0.3601 0.64133 0.64477 1.2306 0.62195 1.3303-0.07593 0.332-6.3147 7.7472-6.5979 7.8398-0.14795 0.03601-0.31738 0.24182-0.35914 0.42456-0.04564 0.1991-0.71142 1.2001-1.5048 2.2246-0.77673 1.0281-2.3417 3.1339-3.4634 4.6773-1.1384 1.5395-2.1254 2.799-2.2288 2.7928-0.1571-1e-3 -1.1005-2.5232-1.1708-3.1333-0.01563-0.161-0.08191-0.17614-0.28223-0.0646-0.4209 0.23587-0.1875 1.355 0.5492 2.6419l0.67273 1.1848-0.54615 0.7837c-0.30945 0.436-1.6053 2.3587-2.8845 4.2854-3.521 5.3106-5.6737 7.7716-8.1592 9.3175-1.0646 0.6827-6.6827 3.0151-6.7981 2.8315-0.14087-0.22446 0.65577-5.3891 1.0007-6.5161 1.7506-5.593 5.3829-14.6 10.72-26.555 11.092-24.897 17.452-41.249 21.174-54.394 1.392-4.9412 2.1082-8.7615 3.0568-16.425 0.4335-3.5005 0.81715-6.4009 0.83742-6.4137 0.04088-0.02551 2.4098-0.375 5.278-0.76755 7.5411-1.0366 9.8626-1.4844 14.384-2.6872 1.6562-0.44251 5.6963-0.30518 11.793 0.39001 2.1454 0.24595 4.6382 0.50135 5.5524 0.5531 8.0471 0.49475 10.718-1.0964 16.439-9.7655 4.7671-7.2451 6.5507-10.996 7.7847-16.393 0.7139-3.1216 0.8617-4.6082 0.691-6.9188-0.1532-1.8523-0.3694-2.7405-0.92543-3.6714-0.57251-0.93468-1.1922-1.1287-2.2573-0.67334z"/> <path d="m488.13 891.32c-0.31518 0.15525-0.50635 0.3036-0.41052 0.343 0.09974 0.0228 0.39038-0.1029 0.65954-0.286 0.61975-0.4175 0.52002-0.4403-0.24902-0.057z"/> </g> </svg>